<?xml version="1.0" encoding="utf-8" standalone="no"?>
<!DOCTYPE svg PUBLIC "-//W3C//DTD SVG 1.1//EN"
  "http://www.w3.org/Graphics/SVG/1.1/DTD/svg11.dtd">
<svg xmlns:xlink="http://www.w3.org/1999/xlink" width="1144.164816pt" height="424.509846pt" viewBox="0 0 1144.164816 424.509846" xmlns="http://www.w3.org/2000/svg" version="1.1">
 <metadata>
  <rdf:RDF xmlns:dc="http://purl.org/dc/elements/1.1/" xmlns:cc="http://creativecommons.org/ns#" xmlns:rdf="http://www.w3.org/1999/02/22-rdf-syntax-ns#">
   <cc:Work>
    <dc:type rdf:resource="http://purl.org/dc/dcmitype/StillImage"/>
    <dc:date>2025-12-26T16:34:13.430264</dc:date>
    <dc:format>image/svg+xml</dc:format>
    <dc:creator>
     <cc:Agent>
      <dc:title>Matplotlib v3.10.8, https://matplotlib.org/</dc:title>
     </cc:Agent>
    </dc:creator>
   </cc:Work>
  </rdf:RDF>
 </metadata>
 <defs>
  <style type="text/css">*{stroke-linejoin: round; stroke-linecap: butt}</style>
 </defs>
 <g id="figure_1">
  <g id="patch_1">
   <path d="M 0 424.509846 
L 1144.164816 424.509846 
L 1144.164816 0 
L 0 0 
z
" style="fill: #ffffff"/>
  </g>
  <g id="axes_1">
   <g id="patch_2">
    <path d="M 53.242801 346.758675 
L 1136.964816 346.758675 
L 1136.964816 25.3575 
L 53.242801 25.3575 
z
" style="fill: #ffffff"/>
   </g>
   <g id="matplotlib.axis_1">
    <g id="xtick_1">
     <g id="line2d_1">
      <path d="M 55.13742 346.758675 
L 55.13742 25.3575 
" clip-path="url(#p1210a5e6a6)" style="fill: none; stroke: #cccccc; stroke-opacity: 0.3; stroke-width: 0.8; stroke-linecap: round"/>
     </g>
     <g id="text_1">
      <!-- 2025-02-01 -->
      <g style="fill: #262626" transform="translate(12.572907 400.225535) rotate(-45) scale(0.1 -0.1)">
       <defs>
        <path id="DejaVuSans-32" d="M 1228 531 
L 3431 531 
L 3431 0 
L 469 0 
L 469 531 
Q 828 903 1448 1529 
Q 2069 2156 2228 2338 
Q 2531 2678 2651 2914 
Q 2772 3150 2772 3378 
Q 2772 3750 2511 3984 
Q 2250 4219 1831 4219 
Q 1534 4219 1204 4116 
Q 875 4013 500 3803 
L 500 4441 
Q 881 4594 1212 4672 
Q 1544 4750 1819 4750 
Q 2544 4750 2975 4387 
Q 3406 4025 3406 3419 
Q 3406 3131 3298 2873 
Q 3191 2616 2906 2266 
Q 2828 2175 2409 1742 
Q 1991 1309 1228 531 
z
" transform="scale(0.015625)"/>
        <path id="DejaVuSans-30" d="M 2034 4250 
Q 1547 4250 1301 3770 
Q 1056 3291 1056 2328 
Q 1056 1369 1301 889 
Q 1547 409 2034 409 
Q 2525 409 2770 889 
Q 3016 1369 3016 2328 
Q 3016 3291 2770 3770 
Q 2525 4250 2034 4250 
z
M 2034 4750 
Q 2819 4750 3233 4129 
Q 3647 3509 3647 2328 
Q 3647 1150 3233 529 
Q 2819 -91 2034 -91 
Q 1250 -91 836 529 
Q 422 1150 422 2328 
Q 422 3509 836 4129 
Q 1250 4750 2034 4750 
z
" transform="scale(0.015625)"/>
        <path id="DejaVuSans-35" d="M 691 4666 
L 3169 4666 
L 3169 4134 
L 1269 4134 
L 1269 2991 
Q 1406 3038 1543 3061 
Q 1681 3084 1819 3084 
Q 2600 3084 3056 2656 
Q 3513 2228 3513 1497 
Q 3513 744 3044 326 
Q 2575 -91 1722 -91 
Q 1428 -91 1123 -41 
Q 819 9 494 109 
L 494 744 
Q 775 591 1075 516 
Q 1375 441 1709 441 
Q 2250 441 2565 725 
Q 2881 1009 2881 1497 
Q 2881 1984 2565 2268 
Q 2250 2553 1709 2553 
Q 1456 2553 1204 2497 
Q 953 2441 691 2322 
L 691 4666 
z
" transform="scale(0.015625)"/>
        <path id="DejaVuSans-2d" d="M 313 2009 
L 1997 2009 
L 1997 1497 
L 313 1497 
L 313 2009 
z
" transform="scale(0.015625)"/>
        <path id="DejaVuSans-31" d="M 794 531 
L 1825 531 
L 1825 4091 
L 703 3866 
L 703 4441 
L 1819 4666 
L 2450 4666 
L 2450 531 
L 3481 531 
L 3481 0 
L 794 0 
L 794 531 
z
" transform="scale(0.015625)"/>
       </defs>
       <use xlink:href="#DejaVuSans-32"/>
       <use xlink:href="#DejaVuSans-30" transform="translate(63.623047 0)"/>
       <use xlink:href="#DejaVuSans-32" transform="translate(127.246094 0)"/>
       <use xlink:href="#DejaVuSans-35" transform="translate(190.869141 0)"/>
       <use xlink:href="#DejaVuSans-2d" transform="translate(254.492188 0)"/>
       <use xlink:href="#DejaVuSans-30" transform="translate(290.576172 0)"/>
       <use xlink:href="#DejaVuSans-32" transform="translate(354.199219 0)"/>
       <use xlink:href="#DejaVuSans-2d" transform="translate(417.822266 0)"/>
       <use xlink:href="#DejaVuSans-30" transform="translate(453.90625 0)"/>
       <use xlink:href="#DejaVuSans-31" transform="translate(517.529297 0)"/>
      </g>
     </g>
    </g>
    <g id="xtick_2">
     <g id="line2d_2">
      <path d="M 143.552969 346.758675 
L 143.552969 25.3575 
" clip-path="url(#p1210a5e6a6)" style="fill: none; stroke: #cccccc; stroke-opacity: 0.3; stroke-width: 0.8; stroke-linecap: round"/>
     </g>
     <g id="text_2">
      <!-- 2025-03-01 -->
      <g style="fill: #262626" transform="translate(100.988456 400.225535) rotate(-45) scale(0.1 -0.1)">
       <defs>
        <path id="DejaVuSans-33" d="M 2597 2516 
Q 3050 2419 3304 2112 
Q 3559 1806 3559 1356 
Q 3559 666 3084 287 
Q 2609 -91 1734 -91 
Q 1441 -91 1130 -33 
Q 819 25 488 141 
L 488 750 
Q 750 597 1062 519 
Q 1375 441 1716 441 
Q 2309 441 2620 675 
Q 2931 909 2931 1356 
Q 2931 1769 2642 2001 
Q 2353 2234 1838 2234 
L 1294 2234 
L 1294 2753 
L 1863 2753 
Q 2328 2753 2575 2939 
Q 2822 3125 2822 3475 
Q 2822 3834 2567 4026 
Q 2313 4219 1838 4219 
Q 1578 4219 1281 4162 
Q 984 4106 628 3988 
L 628 4550 
Q 988 4650 1302 4700 
Q 1616 4750 1894 4750 
Q 2613 4750 3031 4423 
Q 3450 4097 3450 3541 
Q 3450 3153 3228 2886 
Q 3006 2619 2597 2516 
z
" transform="scale(0.015625)"/>
       </defs>
       <use xlink:href="#DejaVuSans-32"/>
       <use xlink:href="#DejaVuSans-30" transform="translate(63.623047 0)"/>
       <use xlink:href="#DejaVuSans-32" transform="translate(127.246094 0)"/>
       <use xlink:href="#DejaVuSans-35" transform="translate(190.869141 0)"/>
       <use xlink:href="#DejaVuSans-2d" transform="translate(254.492188 0)"/>
       <use xlink:href="#DejaVuSans-30" transform="translate(290.576172 0)"/>
       <use xlink:href="#DejaVuSans-33" transform="translate(354.199219 0)"/>
       <use xlink:href="#DejaVuSans-2d" transform="translate(417.822266 0)"/>
       <use xlink:href="#DejaVuSans-30" transform="translate(453.90625 0)"/>
       <use xlink:href="#DejaVuSans-31" transform="translate(517.529297 0)"/>
      </g>
     </g>
    </g>
    <g id="xtick_3">
     <g id="line2d_3">
      <path d="M 241.441613 346.758675 
L 241.441613 25.3575 
" clip-path="url(#p1210a5e6a6)" style="fill: none; stroke: #cccccc; stroke-opacity: 0.3; stroke-width: 0.8; stroke-linecap: round"/>
     </g>
     <g id="text_3">
      <!-- 2025-04-01 -->
      <g style="fill: #262626" transform="translate(198.877099 400.225535) rotate(-45) scale(0.1 -0.1)">
       <defs>
        <path id="DejaVuSans-34" d="M 2419 4116 
L 825 1625 
L 2419 1625 
L 2419 4116 
z
M 2253 4666 
L 3047 4666 
L 3047 1625 
L 3713 1625 
L 3713 1100 
L 3047 1100 
L 3047 0 
L 2419 0 
L 2419 1100 
L 313 1100 
L 313 1709 
L 2253 4666 
z
" transform="scale(0.015625)"/>
       </defs>
       <use xlink:href="#DejaVuSans-32"/>
       <use xlink:href="#DejaVuSans-30" transform="translate(63.623047 0)"/>
       <use xlink:href="#DejaVuSans-32" transform="translate(127.246094 0)"/>
       <use xlink:href="#DejaVuSans-35" transform="translate(190.869141 0)"/>
       <use xlink:href="#DejaVuSans-2d" transform="translate(254.492188 0)"/>
       <use xlink:href="#DejaVuSans-30" transform="translate(290.576172 0)"/>
       <use xlink:href="#DejaVuSans-34" transform="translate(354.199219 0)"/>
       <use xlink:href="#DejaVuSans-2d" transform="translate(417.822266 0)"/>
       <use xlink:href="#DejaVuSans-30" transform="translate(453.90625 0)"/>
       <use xlink:href="#DejaVuSans-31" transform="translate(517.529297 0)"/>
      </g>
     </g>
    </g>
    <g id="xtick_4">
     <g id="line2d_4">
      <path d="M 336.172558 346.758675 
L 336.172558 25.3575 
" clip-path="url(#p1210a5e6a6)" style="fill: none; stroke: #cccccc; stroke-opacity: 0.3; stroke-width: 0.8; stroke-linecap: round"/>
     </g>
     <g id="text_4">
      <!-- 2025-05-01 -->
      <g style="fill: #262626" transform="translate(293.608044 400.225535) rotate(-45) scale(0.1 -0.1)">
       <use xlink:href="#DejaVuSans-32"/>
       <use xlink:href="#DejaVuSans-30" transform="translate(63.623047 0)"/>
       <use xlink:href="#DejaVuSans-32" transform="translate(127.246094 0)"/>
       <use xlink:href="#DejaVuSans-35" transform="translate(190.869141 0)"/>
       <use xlink:href="#DejaVuSans-2d" transform="translate(254.492188 0)"/>
       <use xlink:href="#DejaVuSans-30" transform="translate(290.576172 0)"/>
       <use xlink:href="#DejaVuSans-35" transform="translate(354.199219 0)"/>
       <use xlink:href="#DejaVuSans-2d" transform="translate(417.822266 0)"/>
       <use xlink:href="#DejaVuSans-30" transform="translate(453.90625 0)"/>
       <use xlink:href="#DejaVuSans-31" transform="translate(517.529297 0)"/>
      </g>
     </g>
    </g>
    <g id="xtick_5">
     <g id="line2d_5">
      <path d="M 434.061202 346.758675 
L 434.061202 25.3575 
" clip-path="url(#p1210a5e6a6)" style="fill: none; stroke: #cccccc; stroke-opacity: 0.3; stroke-width: 0.8; stroke-linecap: round"/>
     </g>
     <g id="text_5">
      <!-- 2025-06-01 -->
      <g style="fill: #262626" transform="translate(391.496688 400.225535) rotate(-45) scale(0.1 -0.1)">
       <defs>
        <path id="DejaVuSans-36" d="M 2113 2584 
Q 1688 2584 1439 2293 
Q 1191 2003 1191 1497 
Q 1191 994 1439 701 
Q 1688 409 2113 409 
Q 2538 409 2786 701 
Q 3034 994 3034 1497 
Q 3034 2003 2786 2293 
Q 2538 2584 2113 2584 
z
M 3366 4563 
L 3366 3988 
Q 3128 4100 2886 4159 
Q 2644 4219 2406 4219 
Q 1781 4219 1451 3797 
Q 1122 3375 1075 2522 
Q 1259 2794 1537 2939 
Q 1816 3084 2150 3084 
Q 2853 3084 3261 2657 
Q 3669 2231 3669 1497 
Q 3669 778 3244 343 
Q 2819 -91 2113 -91 
Q 1303 -91 875 529 
Q 447 1150 447 2328 
Q 447 3434 972 4092 
Q 1497 4750 2381 4750 
Q 2619 4750 2861 4703 
Q 3103 4656 3366 4563 
z
" transform="scale(0.015625)"/>
       </defs>
       <use xlink:href="#DejaVuSans-32"/>
       <use xlink:href="#DejaVuSans-30" transform="translate(63.623047 0)"/>
       <use xlink:href="#DejaVuSans-32" transform="translate(127.246094 0)"/>
       <use xlink:href="#DejaVuSans-35" transform="translate(190.869141 0)"/>
       <use xlink:href="#DejaVuSans-2d" transform="translate(254.492188 0)"/>
       <use xlink:href="#DejaVuSans-30" transform="translate(290.576172 0)"/>
       <use xlink:href="#DejaVuSans-36" transform="translate(354.199219 0)"/>
       <use xlink:href="#DejaVuSans-2d" transform="translate(417.822266 0)"/>
       <use xlink:href="#DejaVuSans-30" transform="translate(453.90625 0)"/>
       <use xlink:href="#DejaVuSans-31" transform="translate(517.529297 0)"/>
      </g>
     </g>
    </g>
    <g id="xtick_6">
     <g id="line2d_6">
      <path d="M 528.792147 346.758675 
L 528.792147 25.3575 
" clip-path="url(#p1210a5e6a6)" style="fill: none; stroke: #cccccc; stroke-opacity: 0.3; stroke-width: 0.8; stroke-linecap: round"/>
     </g>
     <g id="text_6">
      <!-- 2025-07-01 -->
      <g style="fill: #262626" transform="translate(486.227633 400.225535) rotate(-45) scale(0.1 -0.1)">
       <defs>
        <path id="DejaVuSans-37" d="M 525 4666 
L 3525 4666 
L 3525 4397 
L 1831 0 
L 1172 0 
L 2766 4134 
L 525 4134 
L 525 4666 
z
" transform="scale(0.015625)"/>
       </defs>
       <use xlink:href="#DejaVuSans-32"/>
       <use xlink:href="#DejaVuSans-30" transform="translate(63.623047 0)"/>
       <use xlink:href="#DejaVuSans-32" transform="translate(127.246094 0)"/>
       <use xlink:href="#DejaVuSans-35" transform="translate(190.869141 0)"/>
       <use xlink:href="#DejaVuSans-2d" transform="translate(254.492188 0)"/>
       <use xlink:href="#DejaVuSans-30" transform="translate(290.576172 0)"/>
       <use xlink:href="#DejaVuSans-37" transform="translate(354.199219 0)"/>
       <use xlink:href="#DejaVuSans-2d" transform="translate(417.822266 0)"/>
       <use xlink:href="#DejaVuSans-30" transform="translate(453.90625 0)"/>
       <use xlink:href="#DejaVuSans-31" transform="translate(517.529297 0)"/>
      </g>
     </g>
    </g>
    <g id="xtick_7">
     <g id="line2d_7">
      <path d="M 626.68079 346.758675 
L 626.68079 25.3575 
" clip-path="url(#p1210a5e6a6)" style="fill: none; stroke: #cccccc; stroke-opacity: 0.3; stroke-width: 0.8; stroke-linecap: round"/>
     </g>
     <g id="text_7">
      <!-- 2025-08-01 -->
      <g style="fill: #262626" transform="translate(584.116277 400.225535) rotate(-45) scale(0.1 -0.1)">
       <defs>
        <path id="DejaVuSans-38" d="M 2034 2216 
Q 1584 2216 1326 1975 
Q 1069 1734 1069 1313 
Q 1069 891 1326 650 
Q 1584 409 2034 409 
Q 2484 409 2743 651 
Q 3003 894 3003 1313 
Q 3003 1734 2745 1975 
Q 2488 2216 2034 2216 
z
M 1403 2484 
Q 997 2584 770 2862 
Q 544 3141 544 3541 
Q 544 4100 942 4425 
Q 1341 4750 2034 4750 
Q 2731 4750 3128 4425 
Q 3525 4100 3525 3541 
Q 3525 3141 3298 2862 
Q 3072 2584 2669 2484 
Q 3125 2378 3379 2068 
Q 3634 1759 3634 1313 
Q 3634 634 3220 271 
Q 2806 -91 2034 -91 
Q 1263 -91 848 271 
Q 434 634 434 1313 
Q 434 1759 690 2068 
Q 947 2378 1403 2484 
z
M 1172 3481 
Q 1172 3119 1398 2916 
Q 1625 2713 2034 2713 
Q 2441 2713 2670 2916 
Q 2900 3119 2900 3481 
Q 2900 3844 2670 4047 
Q 2441 4250 2034 4250 
Q 1625 4250 1398 4047 
Q 1172 3844 1172 3481 
z
" transform="scale(0.015625)"/>
       </defs>
       <use xlink:href="#DejaVuSans-32"/>
       <use xlink:href="#DejaVuSans-30" transform="translate(63.623047 0)"/>
       <use xlink:href="#DejaVuSans-32" transform="translate(127.246094 0)"/>
       <use xlink:href="#DejaVuSans-35" transform="translate(190.869141 0)"/>
       <use xlink:href="#DejaVuSans-2d" transform="translate(254.492188 0)"/>
       <use xlink:href="#DejaVuSans-30" transform="translate(290.576172 0)"/>
       <use xlink:href="#DejaVuSans-38" transform="translate(354.199219 0)"/>
       <use xlink:href="#DejaVuSans-2d" transform="translate(417.822266 0)"/>
       <use xlink:href="#DejaVuSans-30" transform="translate(453.90625 0)"/>
       <use xlink:href="#DejaVuSans-31" transform="translate(517.529297 0)"/>
      </g>
     </g>
    </g>
    <g id="xtick_8">
     <g id="line2d_8">
      <path d="M 724.569434 346.758675 
L 724.569434 25.3575 
" clip-path="url(#p1210a5e6a6)" style="fill: none; stroke: #cccccc; stroke-opacity: 0.3; stroke-width: 0.8; stroke-linecap: round"/>
     </g>
     <g id="text_8">
      <!-- 2025-09-01 -->
      <g style="fill: #262626" transform="translate(682.00492 400.225535) rotate(-45) scale(0.1 -0.1)">
       <defs>
        <path id="DejaVuSans-39" d="M 703 97 
L 703 672 
Q 941 559 1184 500 
Q 1428 441 1663 441 
Q 2288 441 2617 861 
Q 2947 1281 2994 2138 
Q 2813 1869 2534 1725 
Q 2256 1581 1919 1581 
Q 1219 1581 811 2004 
Q 403 2428 403 3163 
Q 403 3881 828 4315 
Q 1253 4750 1959 4750 
Q 2769 4750 3195 4129 
Q 3622 3509 3622 2328 
Q 3622 1225 3098 567 
Q 2575 -91 1691 -91 
Q 1453 -91 1209 -44 
Q 966 3 703 97 
z
M 1959 2075 
Q 2384 2075 2632 2365 
Q 2881 2656 2881 3163 
Q 2881 3666 2632 3958 
Q 2384 4250 1959 4250 
Q 1534 4250 1286 3958 
Q 1038 3666 1038 3163 
Q 1038 2656 1286 2365 
Q 1534 2075 1959 2075 
z
" transform="scale(0.015625)"/>
       </defs>
       <use xlink:href="#DejaVuSans-32"/>
       <use xlink:href="#DejaVuSans-30" transform="translate(63.623047 0)"/>
       <use xlink:href="#DejaVuSans-32" transform="translate(127.246094 0)"/>
       <use xlink:href="#DejaVuSans-35" transform="translate(190.869141 0)"/>
       <use xlink:href="#DejaVuSans-2d" transform="translate(254.492188 0)"/>
       <use xlink:href="#DejaVuSans-30" transform="translate(290.576172 0)"/>
       <use xlink:href="#DejaVuSans-39" transform="translate(354.199219 0)"/>
       <use xlink:href="#DejaVuSans-2d" transform="translate(417.822266 0)"/>
       <use xlink:href="#DejaVuSans-30" transform="translate(453.90625 0)"/>
       <use xlink:href="#DejaVuSans-31" transform="translate(517.529297 0)"/>
      </g>
     </g>
    </g>
    <g id="xtick_9">
     <g id="line2d_9">
      <path d="M 819.300379 346.758675 
L 819.300379 25.3575 
" clip-path="url(#p1210a5e6a6)" style="fill: none; stroke: #cccccc; stroke-opacity: 0.3; stroke-width: 0.8; stroke-linecap: round"/>
     </g>
     <g id="text_9">
      <!-- 2025-10-01 -->
      <g style="fill: #262626" transform="translate(776.735866 400.225535) rotate(-45) scale(0.1 -0.1)">
       <use xlink:href="#DejaVuSans-32"/>
       <use xlink:href="#DejaVuSans-30" transform="translate(63.623047 0)"/>
       <use xlink:href="#DejaVuSans-32" transform="translate(127.246094 0)"/>
       <use xlink:href="#DejaVuSans-35" transform="translate(190.869141 0)"/>
       <use xlink:href="#DejaVuSans-2d" transform="translate(254.492188 0)"/>
       <use xlink:href="#DejaVuSans-31" transform="translate(290.576172 0)"/>
       <use xlink:href="#DejaVuSans-30" transform="translate(354.199219 0)"/>
       <use xlink:href="#DejaVuSans-2d" transform="translate(417.822266 0)"/>
       <use xlink:href="#DejaVuSans-30" transform="translate(453.90625 0)"/>
       <use xlink:href="#DejaVuSans-31" transform="translate(517.529297 0)"/>
      </g>
     </g>
    </g>
    <g id="xtick_10">
     <g id="line2d_10">
      <path d="M 917.189023 346.758675 
L 917.189023 25.3575 
" clip-path="url(#p1210a5e6a6)" style="fill: none; stroke: #cccccc; stroke-opacity: 0.3; stroke-width: 0.8; stroke-linecap: round"/>
     </g>
     <g id="text_10">
      <!-- 2025-11-01 -->
      <g style="fill: #262626" transform="translate(874.624509 400.225535) rotate(-45) scale(0.1 -0.1)">
       <use xlink:href="#DejaVuSans-32"/>
       <use xlink:href="#DejaVuSans-30" transform="translate(63.623047 0)"/>
       <use xlink:href="#DejaVuSans-32" transform="translate(127.246094 0)"/>
       <use xlink:href="#DejaVuSans-35" transform="translate(190.869141 0)"/>
       <use xlink:href="#DejaVuSans-2d" transform="translate(254.492188 0)"/>
       <use xlink:href="#DejaVuSans-31" transform="translate(290.576172 0)"/>
       <use xlink:href="#DejaVuSans-31" transform="translate(354.199219 0)"/>
       <use xlink:href="#DejaVuSans-2d" transform="translate(417.822266 0)"/>
       <use xlink:href="#DejaVuSans-30" transform="translate(453.90625 0)"/>
       <use xlink:href="#DejaVuSans-31" transform="translate(517.529297 0)"/>
      </g>
     </g>
    </g>
    <g id="xtick_11">
     <g id="line2d_11">
      <path d="M 1011.919968 346.758675 
L 1011.919968 25.3575 
" clip-path="url(#p1210a5e6a6)" style="fill: none; stroke: #cccccc; stroke-opacity: 0.3; stroke-width: 0.8; stroke-linecap: round"/>
     </g>
     <g id="text_11">
      <!-- 2025-12-01 -->
      <g style="fill: #262626" transform="translate(969.355454 400.225535) rotate(-45) scale(0.1 -0.1)">
       <use xlink:href="#DejaVuSans-32"/>
       <use xlink:href="#DejaVuSans-30" transform="translate(63.623047 0)"/>
       <use xlink:href="#DejaVuSans-32" transform="translate(127.246094 0)"/>
       <use xlink:href="#DejaVuSans-35" transform="translate(190.869141 0)"/>
       <use xlink:href="#DejaVuSans-2d" transform="translate(254.492188 0)"/>
       <use xlink:href="#DejaVuSans-31" transform="translate(290.576172 0)"/>
       <use xlink:href="#DejaVuSans-32" transform="translate(354.199219 0)"/>
       <use xlink:href="#DejaVuSans-2d" transform="translate(417.822266 0)"/>
       <use xlink:href="#DejaVuSans-30" transform="translate(453.90625 0)"/>
       <use xlink:href="#DejaVuSans-31" transform="translate(517.529297 0)"/>
      </g>
     </g>
    </g>
    <g id="xtick_12">
     <g id="line2d_12">
      <path d="M 1109.808612 346.758675 
L 1109.808612 25.3575 
" clip-path="url(#p1210a5e6a6)" style="fill: none; stroke: #cccccc; stroke-opacity: 0.3; stroke-width: 0.8; stroke-linecap: round"/>
     </g>
     <g id="text_12">
      <!-- 2026-01-01 -->
      <g style="fill: #262626" transform="translate(1067.244098 400.225535) rotate(-45) scale(0.1 -0.1)">
       <use xlink:href="#DejaVuSans-32"/>
       <use xlink:href="#DejaVuSans-30" transform="translate(63.623047 0)"/>
       <use xlink:href="#DejaVuSans-32" transform="translate(127.246094 0)"/>
       <use xlink:href="#DejaVuSans-36" transform="translate(190.869141 0)"/>
       <use xlink:href="#DejaVuSans-2d" transform="translate(254.492188 0)"/>
       <use xlink:href="#DejaVuSans-30" transform="translate(290.576172 0)"/>
       <use xlink:href="#DejaVuSans-31" transform="translate(354.199219 0)"/>
       <use xlink:href="#DejaVuSans-2d" transform="translate(417.822266 0)"/>
       <use xlink:href="#DejaVuSans-30" transform="translate(453.90625 0)"/>
       <use xlink:href="#DejaVuSans-31" transform="translate(517.529297 0)"/>
      </g>
     </g>
    </g>
    <g id="text_13">
     <!-- Date -->
     <g style="fill: #262626" transform="translate(580.762871 414.814221) scale(0.12 -0.12)">
      <defs>
       <path id="DejaVuSans-44" d="M 1259 4147 
L 1259 519 
L 2022 519 
Q 2988 519 3436 956 
Q 3884 1394 3884 2338 
Q 3884 3275 3436 3711 
Q 2988 4147 2022 4147 
L 1259 4147 
z
M 628 4666 
L 1925 4666 
Q 3281 4666 3915 4102 
Q 4550 3538 4550 2338 
Q 4550 1131 3912 565 
Q 3275 0 1925 0 
L 628 0 
L 628 4666 
z
" transform="scale(0.015625)"/>
       <path id="DejaVuSans-61" d="M 2194 1759 
Q 1497 1759 1228 1600 
Q 959 1441 959 1056 
Q 959 750 1161 570 
Q 1363 391 1709 391 
Q 2188 391 2477 730 
Q 2766 1069 2766 1631 
L 2766 1759 
L 2194 1759 
z
M 3341 1997 
L 3341 0 
L 2766 0 
L 2766 531 
Q 2569 213 2275 61 
Q 1981 -91 1556 -91 
Q 1019 -91 701 211 
Q 384 513 384 1019 
Q 384 1609 779 1909 
Q 1175 2209 1959 2209 
L 2766 2209 
L 2766 2266 
Q 2766 2663 2505 2880 
Q 2244 3097 1772 3097 
Q 1472 3097 1187 3025 
Q 903 2953 641 2809 
L 641 3341 
Q 956 3463 1253 3523 
Q 1550 3584 1831 3584 
Q 2591 3584 2966 3190 
Q 3341 2797 3341 1997 
z
" transform="scale(0.015625)"/>
       <path id="DejaVuSans-74" d="M 1172 4494 
L 1172 3500 
L 2356 3500 
L 2356 3053 
L 1172 3053 
L 1172 1153 
Q 1172 725 1289 603 
Q 1406 481 1766 481 
L 2356 481 
L 2356 0 
L 1766 0 
Q 1100 0 847 248 
Q 594 497 594 1153 
L 594 3053 
L 172 3053 
L 172 3500 
L 594 3500 
L 594 4494 
L 1172 4494 
z
" transform="scale(0.015625)"/>
       <path id="DejaVuSans-65" d="M 3597 1894 
L 3597 1613 
L 953 1613 
Q 991 1019 1311 708 
Q 1631 397 2203 397 
Q 2534 397 2845 478 
Q 3156 559 3463 722 
L 3463 178 
Q 3153 47 2828 -22 
Q 2503 -91 2169 -91 
Q 1331 -91 842 396 
Q 353 884 353 1716 
Q 353 2575 817 3079 
Q 1281 3584 2069 3584 
Q 2775 3584 3186 3129 
Q 3597 2675 3597 1894 
z
M 3022 2063 
Q 3016 2534 2758 2815 
Q 2500 3097 2075 3097 
Q 1594 3097 1305 2825 
Q 1016 2553 972 2059 
L 3022 2063 
z
" transform="scale(0.015625)"/>
      </defs>
      <use xlink:href="#DejaVuSans-44"/>
      <use xlink:href="#DejaVuSans-61" transform="translate(77.001953 0)"/>
      <use xlink:href="#DejaVuSans-74" transform="translate(138.28125 0)"/>
      <use xlink:href="#DejaVuSans-65" transform="translate(177.490234 0)"/>
     </g>
    </g>
   </g>
   <g id="matplotlib.axis_2">
    <g id="ytick_1">
     <g id="line2d_13">
      <path d="M 53.242801 332.149531 
L 1136.964816 332.149531 
" clip-path="url(#p1210a5e6a6)" style="fill: none; stroke: #cccccc; stroke-opacity: 0.3; stroke-width: 0.8; stroke-linecap: round"/>
     </g>
     <g id="text_14">
      <!-- 0 -->
      <g style="fill: #262626" transform="translate(39.880301 335.94875) scale(0.1 -0.1)">
       <use xlink:href="#DejaVuSans-30"/>
      </g>
     </g>
    </g>
    <g id="ytick_2">
     <g id="line2d_14">
      <path d="M 53.242801 279.974016 
L 1136.964816 279.974016 
" clip-path="url(#p1210a5e6a6)" style="fill: none; stroke: #cccccc; stroke-opacity: 0.3; stroke-width: 0.8; stroke-linecap: round"/>
     </g>
     <g id="text_15">
      <!-- 5 -->
      <g style="fill: #262626" transform="translate(39.880301 283.773234) scale(0.1 -0.1)">
       <use xlink:href="#DejaVuSans-35"/>
      </g>
     </g>
    </g>
    <g id="ytick_3">
     <g id="line2d_15">
      <path d="M 53.242801 227.7985 
L 1136.964816 227.7985 
" clip-path="url(#p1210a5e6a6)" style="fill: none; stroke: #cccccc; stroke-opacity: 0.3; stroke-width: 0.8; stroke-linecap: round"/>
     </g>
     <g id="text_16">
      <!-- 10 -->
      <g style="fill: #262626" transform="translate(33.517801 231.597719) scale(0.1 -0.1)">
       <use xlink:href="#DejaVuSans-31"/>
       <use xlink:href="#DejaVuSans-30" transform="translate(63.623047 0)"/>
      </g>
     </g>
    </g>
    <g id="ytick_4">
     <g id="line2d_16">
      <path d="M 53.242801 175.622985 
L 1136.964816 175.622985 
" clip-path="url(#p1210a5e6a6)" style="fill: none; stroke: #cccccc; stroke-opacity: 0.3; stroke-width: 0.8; stroke-linecap: round"/>
     </g>
     <g id="text_17">
      <!-- 15 -->
      <g style="fill: #262626" transform="translate(33.517801 179.422203) scale(0.1 -0.1)">
       <use xlink:href="#DejaVuSans-31"/>
       <use xlink:href="#DejaVuSans-35" transform="translate(63.623047 0)"/>
      </g>
     </g>
    </g>
    <g id="ytick_5">
     <g id="line2d_17">
      <path d="M 53.242801 123.447469 
L 1136.964816 123.447469 
" clip-path="url(#p1210a5e6a6)" style="fill: none; stroke: #cccccc; stroke-opacity: 0.3; stroke-width: 0.8; stroke-linecap: round"/>
     </g>
     <g id="text_18">
      <!-- 20 -->
      <g style="fill: #262626" transform="translate(33.517801 127.246688) scale(0.1 -0.1)">
       <use xlink:href="#DejaVuSans-32"/>
       <use xlink:href="#DejaVuSans-30" transform="translate(63.623047 0)"/>
      </g>
     </g>
    </g>
    <g id="ytick_6">
     <g id="line2d_18">
      <path d="M 53.242801 71.271954 
L 1136.964816 71.271954 
" clip-path="url(#p1210a5e6a6)" style="fill: none; stroke: #cccccc; stroke-opacity: 0.3; stroke-width: 0.8; stroke-linecap: round"/>
     </g>
     <g id="text_19">
      <!-- 25 -->
      <g style="fill: #262626" transform="translate(33.517801 75.071172) scale(0.1 -0.1)">
       <use xlink:href="#DejaVuSans-32"/>
       <use xlink:href="#DejaVuSans-35" transform="translate(63.623047 0)"/>
      </g>
     </g>
    </g>
    <g id="text_20">
     <!-- Number of Detections -->
     <g style="fill: #262626" transform="translate(27.022176 252.031838) rotate(-90) scale(0.12 -0.12)">
      <defs>
       <path id="DejaVuSans-4e" d="M 628 4666 
L 1478 4666 
L 3547 763 
L 3547 4666 
L 4159 4666 
L 4159 0 
L 3309 0 
L 1241 3903 
L 1241 0 
L 628 0 
L 628 4666 
z
" transform="scale(0.015625)"/>
       <path id="DejaVuSans-75" d="M 544 1381 
L 544 3500 
L 1119 3500 
L 1119 1403 
Q 1119 906 1312 657 
Q 1506 409 1894 409 
Q 2359 409 2629 706 
Q 2900 1003 2900 1516 
L 2900 3500 
L 3475 3500 
L 3475 0 
L 2900 0 
L 2900 538 
Q 2691 219 2414 64 
Q 2138 -91 1772 -91 
Q 1169 -91 856 284 
Q 544 659 544 1381 
z
M 1991 3584 
L 1991 3584 
z
" transform="scale(0.015625)"/>
       <path id="DejaVuSans-6d" d="M 3328 2828 
Q 3544 3216 3844 3400 
Q 4144 3584 4550 3584 
Q 5097 3584 5394 3201 
Q 5691 2819 5691 2113 
L 5691 0 
L 5113 0 
L 5113 2094 
Q 5113 2597 4934 2840 
Q 4756 3084 4391 3084 
Q 3944 3084 3684 2787 
Q 3425 2491 3425 1978 
L 3425 0 
L 2847 0 
L 2847 2094 
Q 2847 2600 2669 2842 
Q 2491 3084 2119 3084 
Q 1678 3084 1418 2786 
Q 1159 2488 1159 1978 
L 1159 0 
L 581 0 
L 581 3500 
L 1159 3500 
L 1159 2956 
Q 1356 3278 1631 3431 
Q 1906 3584 2284 3584 
Q 2666 3584 2933 3390 
Q 3200 3197 3328 2828 
z
" transform="scale(0.015625)"/>
       <path id="DejaVuSans-62" d="M 3116 1747 
Q 3116 2381 2855 2742 
Q 2594 3103 2138 3103 
Q 1681 3103 1420 2742 
Q 1159 2381 1159 1747 
Q 1159 1113 1420 752 
Q 1681 391 2138 391 
Q 2594 391 2855 752 
Q 3116 1113 3116 1747 
z
M 1159 2969 
Q 1341 3281 1617 3432 
Q 1894 3584 2278 3584 
Q 2916 3584 3314 3078 
Q 3713 2572 3713 1747 
Q 3713 922 3314 415 
Q 2916 -91 2278 -91 
Q 1894 -91 1617 61 
Q 1341 213 1159 525 
L 1159 0 
L 581 0 
L 581 4863 
L 1159 4863 
L 1159 2969 
z
" transform="scale(0.015625)"/>
       <path id="DejaVuSans-72" d="M 2631 2963 
Q 2534 3019 2420 3045 
Q 2306 3072 2169 3072 
Q 1681 3072 1420 2755 
Q 1159 2438 1159 1844 
L 1159 0 
L 581 0 
L 581 3500 
L 1159 3500 
L 1159 2956 
Q 1341 3275 1631 3429 
Q 1922 3584 2338 3584 
Q 2397 3584 2469 3576 
Q 2541 3569 2628 3553 
L 2631 2963 
z
" transform="scale(0.015625)"/>
       <path id="DejaVuSans-20" transform="scale(0.015625)"/>
       <path id="DejaVuSans-6f" d="M 1959 3097 
Q 1497 3097 1228 2736 
Q 959 2375 959 1747 
Q 959 1119 1226 758 
Q 1494 397 1959 397 
Q 2419 397 2687 759 
Q 2956 1122 2956 1747 
Q 2956 2369 2687 2733 
Q 2419 3097 1959 3097 
z
M 1959 3584 
Q 2709 3584 3137 3096 
Q 3566 2609 3566 1747 
Q 3566 888 3137 398 
Q 2709 -91 1959 -91 
Q 1206 -91 779 398 
Q 353 888 353 1747 
Q 353 2609 779 3096 
Q 1206 3584 1959 3584 
z
" transform="scale(0.015625)"/>
       <path id="DejaVuSans-66" d="M 2375 4863 
L 2375 4384 
L 1825 4384 
Q 1516 4384 1395 4259 
Q 1275 4134 1275 3809 
L 1275 3500 
L 2222 3500 
L 2222 3053 
L 1275 3053 
L 1275 0 
L 697 0 
L 697 3053 
L 147 3053 
L 147 3500 
L 697 3500 
L 697 3744 
Q 697 4328 969 4595 
Q 1241 4863 1831 4863 
L 2375 4863 
z
" transform="scale(0.015625)"/>
       <path id="DejaVuSans-63" d="M 3122 3366 
L 3122 2828 
Q 2878 2963 2633 3030 
Q 2388 3097 2138 3097 
Q 1578 3097 1268 2742 
Q 959 2388 959 1747 
Q 959 1106 1268 751 
Q 1578 397 2138 397 
Q 2388 397 2633 464 
Q 2878 531 3122 666 
L 3122 134 
Q 2881 22 2623 -34 
Q 2366 -91 2075 -91 
Q 1284 -91 818 406 
Q 353 903 353 1747 
Q 353 2603 823 3093 
Q 1294 3584 2113 3584 
Q 2378 3584 2631 3529 
Q 2884 3475 3122 3366 
z
" transform="scale(0.015625)"/>
       <path id="DejaVuSans-69" d="M 603 3500 
L 1178 3500 
L 1178 0 
L 603 0 
L 603 3500 
z
M 603 4863 
L 1178 4863 
L 1178 4134 
L 603 4134 
L 603 4863 
z
" transform="scale(0.015625)"/>
       <path id="DejaVuSans-6e" d="M 3513 2113 
L 3513 0 
L 2938 0 
L 2938 2094 
Q 2938 2591 2744 2837 
Q 2550 3084 2163 3084 
Q 1697 3084 1428 2787 
Q 1159 2491 1159 1978 
L 1159 0 
L 581 0 
L 581 3500 
L 1159 3500 
L 1159 2956 
Q 1366 3272 1645 3428 
Q 1925 3584 2291 3584 
Q 2894 3584 3203 3211 
Q 3513 2838 3513 2113 
z
" transform="scale(0.015625)"/>
       <path id="DejaVuSans-73" d="M 2834 3397 
L 2834 2853 
Q 2591 2978 2328 3040 
Q 2066 3103 1784 3103 
Q 1356 3103 1142 2972 
Q 928 2841 928 2578 
Q 928 2378 1081 2264 
Q 1234 2150 1697 2047 
L 1894 2003 
Q 2506 1872 2764 1633 
Q 3022 1394 3022 966 
Q 3022 478 2636 193 
Q 2250 -91 1575 -91 
Q 1294 -91 989 -36 
Q 684 19 347 128 
L 347 722 
Q 666 556 975 473 
Q 1284 391 1588 391 
Q 1994 391 2212 530 
Q 2431 669 2431 922 
Q 2431 1156 2273 1281 
Q 2116 1406 1581 1522 
L 1381 1569 
Q 847 1681 609 1914 
Q 372 2147 372 2553 
Q 372 3047 722 3315 
Q 1072 3584 1716 3584 
Q 2034 3584 2315 3537 
Q 2597 3491 2834 3397 
z
" transform="scale(0.015625)"/>
      </defs>
      <use xlink:href="#DejaVuSans-4e"/>
      <use xlink:href="#DejaVuSans-75" transform="translate(74.804688 0)"/>
      <use xlink:href="#DejaVuSans-6d" transform="translate(138.183594 0)"/>
      <use xlink:href="#DejaVuSans-62" transform="translate(235.595703 0)"/>
      <use xlink:href="#DejaVuSans-65" transform="translate(299.072266 0)"/>
      <use xlink:href="#DejaVuSans-72" transform="translate(360.595703 0)"/>
      <use xlink:href="#DejaVuSans-20" transform="translate(401.708984 0)"/>
      <use xlink:href="#DejaVuSans-6f" transform="translate(433.496094 0)"/>
      <use xlink:href="#DejaVuSans-66" transform="translate(494.677734 0)"/>
      <use xlink:href="#DejaVuSans-20" transform="translate(529.882812 0)"/>
      <use xlink:href="#DejaVuSans-44" transform="translate(561.669922 0)"/>
      <use xlink:href="#DejaVuSans-65" transform="translate(638.671875 0)"/>
      <use xlink:href="#DejaVuSans-74" transform="translate(700.195312 0)"/>
      <use xlink:href="#DejaVuSans-65" transform="translate(739.404297 0)"/>
      <use xlink:href="#DejaVuSans-63" transform="translate(800.927734 0)"/>
      <use xlink:href="#DejaVuSans-74" transform="translate(855.908203 0)"/>
      <use xlink:href="#DejaVuSans-69" transform="translate(895.117188 0)"/>
      <use xlink:href="#DejaVuSans-6f" transform="translate(922.900391 0)"/>
      <use xlink:href="#DejaVuSans-6e" transform="translate(984.082031 0)"/>
      <use xlink:href="#DejaVuSans-73" transform="translate(1047.460938 0)"/>
     </g>
    </g>
   </g>
   <g id="FillBetweenPolyCollection_1">
    <defs>
     <path id="mef3c1e3779" d="M 102.502893 -92.360315 
L 102.502893 -113.230521 
L 105.660591 -384.543201 
L 108.818289 -134.100727 
L 156.183762 -113.230521 
L 162.499158 -102.795418 
L 168.814555 -113.230521 
L 171.972253 -113.230521 
L 184.603046 -102.795418 
L 190.918442 -102.795418 
L 200.391537 -113.230521 
L 206.706933 -102.795418 
L 213.022329 -123.665624 
L 216.180027 -102.795418 
L 219.337726 -102.795418 
L 228.81082 -102.795418 
L 238.283915 -102.795418 
L 244.599311 -113.230521 
L 250.914707 -102.795418 
L 257.230104 -113.230521 
L 260.387802 -134.100727 
L 263.5455 -102.795418 
L 269.860896 -113.230521 
L 273.018595 -144.53583 
L 282.491689 -144.53583 
L 285.649387 -144.53583 
L 288.807085 -113.230521 
L 291.964784 -102.795418 
L 295.122482 -134.100727 
L 298.28018 -154.970933 
L 301.437878 -102.795418 
L 509.845958 -154.970933 
L 513.003656 -113.230521 
L 516.161354 -123.665624 
L 519.319052 -123.665624 
L 522.476751 -154.970933 
L 525.634449 -113.230521 
L 528.792147 -123.665624 
L 531.949845 -102.795418 
L 538.265242 -102.795418 
L 541.42294 -102.795418 
L 544.580638 -207.146449 
L 547.738336 -113.230521 
L 550.896034 -175.841139 
L 554.053732 -175.841139 
L 557.211431 -207.146449 
L 560.369129 -144.53583 
L 563.526827 -144.53583 
L 566.684525 -113.230521 
L 569.842223 -113.230521 
L 572.999921 -165.406036 
L 576.15762 -102.795418 
L 579.315318 -123.665624 
L 582.473016 -113.230521 
L 585.630714 -123.665624 
L 588.788412 -123.665624 
L 591.946111 -144.53583 
L 595.103809 -207.146449 
L 598.261507 -186.276243 
L 601.419205 -102.795418 
L 604.576903 -123.665624 
L 607.734601 -102.795418 
L 610.8923 -113.230521 
L 614.049998 -123.665624 
L 617.207696 -134.100727 
L 620.365394 -217.581552 
L 623.523092 -175.841139 
L 626.68079 -154.970933 
L 629.838489 -113.230521 
L 632.996187 -228.016655 
L 636.153885 -102.795418 
L 645.62698 -217.581552 
L 651.942376 -123.665624 
L 655.100074 -134.100727 
L 658.257772 -123.665624 
L 661.41547 -113.230521 
L 670.888565 -102.795418 
L 674.046263 -113.230521 
L 677.203961 -113.230521 
L 680.36166 -144.53583 
L 683.519358 -113.230521 
L 686.677056 -102.795418 
L 689.834754 -196.711346 
L 692.992452 -134.100727 
L 699.307849 -102.795418 
L 702.465547 -196.711346 
L 705.623245 -165.406036 
L 708.780943 -134.100727 
L 711.938641 -217.581552 
L 715.096339 -113.230521 
L 718.254038 -113.230521 
L 724.569434 -113.230521 
L 727.727132 -123.665624 
L 730.88483 -165.406036 
L 737.200227 -144.53583 
L 740.357925 -228.016655 
L 743.515623 -113.230521 
L 746.673321 -113.230521 
L 749.831019 -123.665624 
L 752.988718 -207.146449 
L 756.146416 -102.795418 
L 759.304114 -175.841139 
L 762.461812 -175.841139 
L 765.61951 -228.016655 
L 768.777208 -113.230521 
L 771.934907 -144.53583 
L 775.092605 -175.841139 
L 781.408001 -134.100727 
L 784.565699 -217.581552 
L 787.723398 -113.230521 
L 790.881096 -144.53583 
L 794.038794 -175.841139 
L 797.196492 -165.406036 
L 800.35419 -207.146449 
L 803.511888 -123.665624 
L 809.827285 -165.406036 
L 812.984983 -207.146449 
L 816.142681 -123.665624 
L 819.300379 -102.795418 
L 822.458078 -165.406036 
L 825.615776 -102.795418 
L 828.773474 -102.795418 
L 831.931172 -154.970933 
L 835.08887 -113.230521 
L 838.246568 -102.795418 
L 841.404267 -102.795418 
L 844.561965 -123.665624 
L 847.719663 -154.970933 
L 850.877361 -123.665624 
L 854.035059 -165.406036 
L 857.192757 -134.100727 
L 860.350456 -123.665624 
L 863.508154 -113.230521 
L 866.665852 -102.795418 
L 869.82355 -186.276243 
L 872.981248 -113.230521 
L 876.138947 -134.100727 
L 882.454343 -123.665624 
L 885.612041 -154.970933 
L 888.769739 -102.795418 
L 891.927437 -123.665624 
L 895.085136 -102.795418 
L 898.242834 -123.665624 
L 901.400532 -113.230521 
L 904.55823 -144.53583 
L 907.715928 -134.100727 
L 910.873626 -196.711346 
L 914.031325 -113.230521 
L 917.189023 -154.970933 
L 920.346721 -165.406036 
L 923.504419 -186.276243 
L 926.662117 -196.711346 
L 929.819816 -196.711346 
L 936.135212 -165.406036 
L 939.29291 -123.665624 
L 942.450608 -175.841139 
L 945.608306 -217.581552 
L 948.766005 -144.53583 
L 951.923703 -238.451758 
L 955.081401 -113.230521 
L 958.239099 -280.19217 
L 961.396797 -321.932583 
L 964.554495 -123.665624 
L 967.712194 -165.406036 
L 970.869892 -186.276243 
L 974.02759 -175.841139 
L 977.185288 -144.53583 
L 980.342986 -154.970933 
L 983.500685 -217.581552 
L 986.658383 -217.581552 
L 989.816081 -113.230521 
L 992.973779 -123.665624 
L 996.131477 -123.665624 
L 999.289175 -144.53583 
L 1002.446874 -113.230521 
L 1005.604572 -175.841139 
L 1008.76227 -134.100727 
L 1011.919968 -186.276243 
L 1015.077666 -175.841139 
L 1018.235365 -175.841139 
L 1021.393063 -154.970933 
L 1024.550761 -154.970933 
L 1027.708459 -154.970933 
L 1030.866157 -165.406036 
L 1034.023855 -217.581552 
L 1037.181554 -269.757067 
L 1040.339252 -280.19217 
L 1043.49695 -123.665624 
L 1046.654648 -154.970933 
L 1049.812346 -207.146449 
L 1052.970044 -165.406036 
L 1056.127743 -248.886861 
L 1059.285441 -165.406036 
L 1062.443139 -134.100727 
L 1065.600837 -154.970933 
L 1068.758535 -175.841139 
L 1075.073932 -134.100727 
L 1078.23163 -165.406036 
L 1081.389328 -165.406036 
L 1084.547026 -113.230521 
L 1087.704724 -144.53583 
L 1087.704724 -92.360315 
L 1087.704724 -92.360315 
L 1084.547026 -92.360315 
L 1081.389328 -92.360315 
L 1078.23163 -92.360315 
L 1075.073932 -92.360315 
L 1068.758535 -92.360315 
L 1065.600837 -92.360315 
L 1062.443139 -92.360315 
L 1059.285441 -92.360315 
L 1056.127743 -92.360315 
L 1052.970044 -92.360315 
L 1049.812346 -92.360315 
L 1046.654648 -92.360315 
L 1043.49695 -92.360315 
L 1040.339252 -92.360315 
L 1037.181554 -92.360315 
L 1034.023855 -92.360315 
L 1030.866157 -92.360315 
L 1027.708459 -92.360315 
L 1024.550761 -92.360315 
L 1021.393063 -92.360315 
L 1018.235365 -92.360315 
L 1015.077666 -92.360315 
L 1011.919968 -92.360315 
L 1008.76227 -92.360315 
L 1005.604572 -92.360315 
L 1002.446874 -92.360315 
L 999.289175 -92.360315 
L 996.131477 -92.360315 
L 992.973779 -92.360315 
L 989.816081 -92.360315 
L 986.658383 -92.360315 
L 983.500685 -92.360315 
L 980.342986 -92.360315 
L 977.185288 -92.360315 
L 974.02759 -92.360315 
L 970.869892 -92.360315 
L 967.712194 -92.360315 
L 964.554495 -92.360315 
L 961.396797 -92.360315 
L 958.239099 -92.360315 
L 955.081401 -92.360315 
L 951.923703 -92.360315 
L 948.766005 -92.360315 
L 945.608306 -92.360315 
L 942.450608 -92.360315 
L 939.29291 -92.360315 
L 936.135212 -92.360315 
L 929.819816 -92.360315 
L 926.662117 -92.360315 
L 923.504419 -92.360315 
L 920.346721 -92.360315 
L 917.189023 -92.360315 
L 914.031325 -92.360315 
L 910.873626 -92.360315 
L 907.715928 -92.360315 
L 904.55823 -92.360315 
L 901.400532 -92.360315 
L 898.242834 -92.360315 
L 895.085136 -92.360315 
L 891.927437 -92.360315 
L 888.769739 -92.360315 
L 885.612041 -92.360315 
L 882.454343 -92.360315 
L 876.138947 -92.360315 
L 872.981248 -92.360315 
L 869.82355 -92.360315 
L 866.665852 -92.360315 
L 863.508154 -92.360315 
L 860.350456 -92.360315 
L 857.192757 -92.360315 
L 854.035059 -92.360315 
L 850.877361 -92.360315 
L 847.719663 -92.360315 
L 844.561965 -92.360315 
L 841.404267 -92.360315 
L 838.246568 -92.360315 
L 835.08887 -92.360315 
L 831.931172 -92.360315 
L 828.773474 -92.360315 
L 825.615776 -92.360315 
L 822.458078 -92.360315 
L 819.300379 -92.360315 
L 816.142681 -92.360315 
L 812.984983 -92.360315 
L 809.827285 -92.360315 
L 803.511888 -92.360315 
L 800.35419 -92.360315 
L 797.196492 -92.360315 
L 794.038794 -92.360315 
L 790.881096 -92.360315 
L 787.723398 -92.360315 
L 784.565699 -92.360315 
L 781.408001 -92.360315 
L 775.092605 -92.360315 
L 771.934907 -92.360315 
L 768.777208 -92.360315 
L 765.61951 -92.360315 
L 762.461812 -92.360315 
L 759.304114 -92.360315 
L 756.146416 -92.360315 
L 752.988718 -92.360315 
L 749.831019 -92.360315 
L 746.673321 -92.360315 
L 743.515623 -92.360315 
L 740.357925 -92.360315 
L 737.200227 -92.360315 
L 730.88483 -92.360315 
L 727.727132 -92.360315 
L 724.569434 -92.360315 
L 718.254038 -92.360315 
L 715.096339 -92.360315 
L 711.938641 -92.360315 
L 708.780943 -92.360315 
L 705.623245 -92.360315 
L 702.465547 -92.360315 
L 699.307849 -92.360315 
L 692.992452 -92.360315 
L 689.834754 -92.360315 
L 686.677056 -92.360315 
L 683.519358 -92.360315 
L 680.36166 -92.360315 
L 677.203961 -92.360315 
L 674.046263 -92.360315 
L 670.888565 -92.360315 
L 661.41547 -92.360315 
L 658.257772 -92.360315 
L 655.100074 -92.360315 
L 651.942376 -92.360315 
L 645.62698 -92.360315 
L 636.153885 -92.360315 
L 632.996187 -92.360315 
L 629.838489 -92.360315 
L 626.68079 -92.360315 
L 623.523092 -92.360315 
L 620.365394 -92.360315 
L 617.207696 -92.360315 
L 614.049998 -92.360315 
L 610.8923 -92.360315 
L 607.734601 -92.360315 
L 604.576903 -92.360315 
L 601.419205 -92.360315 
L 598.261507 -92.360315 
L 595.103809 -92.360315 
L 591.946111 -92.360315 
L 588.788412 -92.360315 
L 585.630714 -92.360315 
L 582.473016 -92.360315 
L 579.315318 -92.360315 
L 576.15762 -92.360315 
L 572.999921 -92.360315 
L 569.842223 -92.360315 
L 566.684525 -92.360315 
L 563.526827 -92.360315 
L 560.369129 -92.360315 
L 557.211431 -92.360315 
L 554.053732 -92.360315 
L 550.896034 -92.360315 
L 547.738336 -92.360315 
L 544.580638 -92.360315 
L 541.42294 -92.360315 
L 538.265242 -92.360315 
L 531.949845 -92.360315 
L 528.792147 -92.360315 
L 525.634449 -92.360315 
L 522.476751 -92.360315 
L 519.319052 -92.360315 
L 516.161354 -92.360315 
L 513.003656 -92.360315 
L 509.845958 -92.360315 
L 301.437878 -92.360315 
L 298.28018 -92.360315 
L 295.122482 -92.360315 
L 291.964784 -92.360315 
L 288.807085 -92.360315 
L 285.649387 -92.360315 
L 282.491689 -92.360315 
L 273.018595 -92.360315 
L 269.860896 -92.360315 
L 263.5455 -92.360315 
L 260.387802 -92.360315 
L 257.230104 -92.360315 
L 250.914707 -92.360315 
L 244.599311 -92.360315 
L 238.283915 -92.360315 
L 228.81082 -92.360315 
L 219.337726 -92.360315 
L 216.180027 -92.360315 
L 213.022329 -92.360315 
L 206.706933 -92.360315 
L 200.391537 -92.360315 
L 190.918442 -92.360315 
L 184.603046 -92.360315 
L 171.972253 -92.360315 
L 168.814555 -92.360315 
L 162.499158 -92.360315 
L 156.183762 -92.360315 
L 108.818289 -92.360315 
L 105.660591 -92.360315 
L 102.502893 -92.360315 
z
" style="stroke: #4682b4; stroke-opacity: 0.3"/>
    </defs>
    <g clip-path="url(#p1210a5e6a6)">
     <use xlink:href="#mef3c1e3779" x="0" y="424.509846" style="fill: #4682b4; fill-opacity: 0.3; stroke: #4682b4; stroke-opacity: 0.3"/>
    </g>
   </g>
   <g id="line2d_19">
    <path d="M 102.502893 311.279325 
L 105.660591 39.966644 
L 108.818289 290.409119 
L 156.183762 311.279325 
L 162.499158 321.714428 
L 168.814555 311.279325 
L 171.972253 311.279325 
L 184.603046 321.714428 
L 190.918442 321.714428 
L 200.391537 311.279325 
L 206.706933 321.714428 
L 213.022329 300.844222 
L 216.180027 321.714428 
L 238.283915 321.714428 
L 244.599311 311.279325 
L 250.914707 321.714428 
L 257.230104 311.279325 
L 260.387802 290.409119 
L 263.5455 321.714428 
L 269.860896 311.279325 
L 273.018595 279.974016 
L 285.649387 279.974016 
L 288.807085 311.279325 
L 291.964784 321.714428 
L 295.122482 290.409119 
L 298.28018 269.538912 
L 301.437878 321.714428 
L 509.845958 269.538912 
L 513.003656 311.279325 
L 516.161354 300.844222 
L 519.319052 300.844222 
L 522.476751 269.538912 
L 525.634449 311.279325 
L 528.792147 300.844222 
L 531.949845 321.714428 
L 541.42294 321.714428 
L 544.580638 217.363397 
L 547.738336 311.279325 
L 550.896034 248.668706 
L 554.053732 248.668706 
L 557.211431 217.363397 
L 560.369129 279.974016 
L 563.526827 279.974016 
L 566.684525 311.279325 
L 569.842223 311.279325 
L 572.999921 259.103809 
L 576.15762 321.714428 
L 579.315318 300.844222 
L 582.473016 311.279325 
L 585.630714 300.844222 
L 588.788412 300.844222 
L 591.946111 279.974016 
L 595.103809 217.363397 
L 598.261507 238.233603 
L 601.419205 321.714428 
L 604.576903 300.844222 
L 607.734601 321.714428 
L 617.207696 290.409119 
L 620.365394 206.928294 
L 623.523092 248.668706 
L 626.68079 269.538912 
L 629.838489 311.279325 
L 632.996187 196.493191 
L 636.153885 321.714428 
L 645.62698 206.928294 
L 651.942376 300.844222 
L 655.100074 290.409119 
L 661.41547 311.279325 
L 670.888565 321.714428 
L 674.046263 311.279325 
L 677.203961 311.279325 
L 680.36166 279.974016 
L 683.519358 311.279325 
L 686.677056 321.714428 
L 689.834754 227.7985 
L 692.992452 290.409119 
L 699.307849 321.714428 
L 702.465547 227.7985 
L 708.780943 290.409119 
L 711.938641 206.928294 
L 715.096339 311.279325 
L 724.569434 311.279325 
L 727.727132 300.844222 
L 730.88483 259.103809 
L 737.200227 279.974016 
L 740.357925 196.493191 
L 743.515623 311.279325 
L 746.673321 311.279325 
L 749.831019 300.844222 
L 752.988718 217.363397 
L 756.146416 321.714428 
L 759.304114 248.668706 
L 762.461812 248.668706 
L 765.61951 196.493191 
L 768.777208 311.279325 
L 775.092605 248.668706 
L 781.408001 290.409119 
L 784.565699 206.928294 
L 787.723398 311.279325 
L 794.038794 248.668706 
L 797.196492 259.103809 
L 800.35419 217.363397 
L 803.511888 300.844222 
L 809.827285 259.103809 
L 812.984983 217.363397 
L 816.142681 300.844222 
L 819.300379 321.714428 
L 822.458078 259.103809 
L 825.615776 321.714428 
L 828.773474 321.714428 
L 831.931172 269.538912 
L 835.08887 311.279325 
L 838.246568 321.714428 
L 841.404267 321.714428 
L 844.561965 300.844222 
L 847.719663 269.538912 
L 850.877361 300.844222 
L 854.035059 259.103809 
L 857.192757 290.409119 
L 866.665852 321.714428 
L 869.82355 238.233603 
L 872.981248 311.279325 
L 876.138947 290.409119 
L 882.454343 300.844222 
L 885.612041 269.538912 
L 888.769739 321.714428 
L 891.927437 300.844222 
L 895.085136 321.714428 
L 898.242834 300.844222 
L 901.400532 311.279325 
L 904.55823 279.974016 
L 907.715928 290.409119 
L 910.873626 227.7985 
L 914.031325 311.279325 
L 917.189023 269.538912 
L 920.346721 259.103809 
L 923.504419 238.233603 
L 926.662117 227.7985 
L 929.819816 227.7985 
L 936.135212 259.103809 
L 939.29291 300.844222 
L 942.450608 248.668706 
L 945.608306 206.928294 
L 948.766005 279.974016 
L 951.923703 186.058088 
L 955.081401 311.279325 
L 958.239099 144.317675 
L 961.396797 102.577263 
L 964.554495 300.844222 
L 967.712194 259.103809 
L 970.869892 238.233603 
L 974.02759 248.668706 
L 977.185288 279.974016 
L 980.342986 269.538912 
L 983.500685 206.928294 
L 986.658383 206.928294 
L 989.816081 311.279325 
L 992.973779 300.844222 
L 996.131477 300.844222 
L 999.289175 279.974016 
L 1002.446874 311.279325 
L 1005.604572 248.668706 
L 1008.76227 290.409119 
L 1011.919968 238.233603 
L 1015.077666 248.668706 
L 1018.235365 248.668706 
L 1021.393063 269.538912 
L 1027.708459 269.538912 
L 1030.866157 259.103809 
L 1037.181554 154.752778 
L 1040.339252 144.317675 
L 1043.49695 300.844222 
L 1046.654648 269.538912 
L 1049.812346 217.363397 
L 1052.970044 259.103809 
L 1056.127743 175.622985 
L 1059.285441 259.103809 
L 1062.443139 290.409119 
L 1068.758535 248.668706 
L 1075.073932 290.409119 
L 1078.23163 259.103809 
L 1081.389328 259.103809 
L 1084.547026 311.279325 
L 1087.704724 279.974016 
L 1087.704724 279.974016 
" clip-path="url(#p1210a5e6a6)" style="fill: none; stroke: #4682b4; stroke-width: 2; stroke-linecap: round"/>
    <defs>
     <path id="maaed2c66c8" d="M 0 2 
C 0.530406 2 1.03916 1.789267 1.414214 1.414214 
C 1.789267 1.03916 2 0.530406 2 0 
C 2 -0.530406 1.789267 -1.03916 1.414214 -1.414214 
C 1.03916 -1.789267 0.530406 -2 0 -2 
C -0.530406 -2 -1.03916 -1.789267 -1.414214 -1.414214 
C -1.789267 -1.03916 -2 -0.530406 -2 0 
C -2 0.530406 -1.789267 1.03916 -1.414214 1.414214 
C -1.03916 1.789267 -0.530406 2 0 2 
z
" style="stroke: #4682b4"/>
    </defs>
    <g clip-path="url(#p1210a5e6a6)">
     <use xlink:href="#maaed2c66c8" x="102.502893" y="311.279325" style="fill: #4682b4; stroke: #4682b4"/>
     <use xlink:href="#maaed2c66c8" x="105.660591" y="39.966644" style="fill: #4682b4; stroke: #4682b4"/>
     <use xlink:href="#maaed2c66c8" x="108.818289" y="290.409119" style="fill: #4682b4; stroke: #4682b4"/>
     <use xlink:href="#maaed2c66c8" x="156.183762" y="311.279325" style="fill: #4682b4; stroke: #4682b4"/>
     <use xlink:href="#maaed2c66c8" x="162.499158" y="321.714428" style="fill: #4682b4; stroke: #4682b4"/>
     <use xlink:href="#maaed2c66c8" x="168.814555" y="311.279325" style="fill: #4682b4; stroke: #4682b4"/>
     <use xlink:href="#maaed2c66c8" x="171.972253" y="311.279325" style="fill: #4682b4; stroke: #4682b4"/>
     <use xlink:href="#maaed2c66c8" x="184.603046" y="321.714428" style="fill: #4682b4; stroke: #4682b4"/>
     <use xlink:href="#maaed2c66c8" x="190.918442" y="321.714428" style="fill: #4682b4; stroke: #4682b4"/>
     <use xlink:href="#maaed2c66c8" x="200.391537" y="311.279325" style="fill: #4682b4; stroke: #4682b4"/>
     <use xlink:href="#maaed2c66c8" x="206.706933" y="321.714428" style="fill: #4682b4; stroke: #4682b4"/>
     <use xlink:href="#maaed2c66c8" x="213.022329" y="300.844222" style="fill: #4682b4; stroke: #4682b4"/>
     <use xlink:href="#maaed2c66c8" x="216.180027" y="321.714428" style="fill: #4682b4; stroke: #4682b4"/>
     <use xlink:href="#maaed2c66c8" x="219.337726" y="321.714428" style="fill: #4682b4; stroke: #4682b4"/>
     <use xlink:href="#maaed2c66c8" x="228.81082" y="321.714428" style="fill: #4682b4; stroke: #4682b4"/>
     <use xlink:href="#maaed2c66c8" x="238.283915" y="321.714428" style="fill: #4682b4; stroke: #4682b4"/>
     <use xlink:href="#maaed2c66c8" x="244.599311" y="311.279325" style="fill: #4682b4; stroke: #4682b4"/>
     <use xlink:href="#maaed2c66c8" x="250.914707" y="321.714428" style="fill: #4682b4; stroke: #4682b4"/>
     <use xlink:href="#maaed2c66c8" x="257.230104" y="311.279325" style="fill: #4682b4; stroke: #4682b4"/>
     <use xlink:href="#maaed2c66c8" x="260.387802" y="290.409119" style="fill: #4682b4; stroke: #4682b4"/>
     <use xlink:href="#maaed2c66c8" x="263.5455" y="321.714428" style="fill: #4682b4; stroke: #4682b4"/>
     <use xlink:href="#maaed2c66c8" x="269.860896" y="311.279325" style="fill: #4682b4; stroke: #4682b4"/>
     <use xlink:href="#maaed2c66c8" x="273.018595" y="279.974016" style="fill: #4682b4; stroke: #4682b4"/>
     <use xlink:href="#maaed2c66c8" x="282.491689" y="279.974016" style="fill: #4682b4; stroke: #4682b4"/>
     <use xlink:href="#maaed2c66c8" x="285.649387" y="279.974016" style="fill: #4682b4; stroke: #4682b4"/>
     <use xlink:href="#maaed2c66c8" x="288.807085" y="311.279325" style="fill: #4682b4; stroke: #4682b4"/>
     <use xlink:href="#maaed2c66c8" x="291.964784" y="321.714428" style="fill: #4682b4; stroke: #4682b4"/>
     <use xlink:href="#maaed2c66c8" x="295.122482" y="290.409119" style="fill: #4682b4; stroke: #4682b4"/>
     <use xlink:href="#maaed2c66c8" x="298.28018" y="269.538912" style="fill: #4682b4; stroke: #4682b4"/>
     <use xlink:href="#maaed2c66c8" x="301.437878" y="321.714428" style="fill: #4682b4; stroke: #4682b4"/>
     <use xlink:href="#maaed2c66c8" x="509.845958" y="269.538912" style="fill: #4682b4; stroke: #4682b4"/>
     <use xlink:href="#maaed2c66c8" x="513.003656" y="311.279325" style="fill: #4682b4; stroke: #4682b4"/>
     <use xlink:href="#maaed2c66c8" x="516.161354" y="300.844222" style="fill: #4682b4; stroke: #4682b4"/>
     <use xlink:href="#maaed2c66c8" x="519.319052" y="300.844222" style="fill: #4682b4; stroke: #4682b4"/>
     <use xlink:href="#maaed2c66c8" x="522.476751" y="269.538912" style="fill: #4682b4; stroke: #4682b4"/>
     <use xlink:href="#maaed2c66c8" x="525.634449" y="311.279325" style="fill: #4682b4; stroke: #4682b4"/>
     <use xlink:href="#maaed2c66c8" x="528.792147" y="300.844222" style="fill: #4682b4; stroke: #4682b4"/>
     <use xlink:href="#maaed2c66c8" x="531.949845" y="321.714428" style="fill: #4682b4; stroke: #4682b4"/>
     <use xlink:href="#maaed2c66c8" x="538.265242" y="321.714428" style="fill: #4682b4; stroke: #4682b4"/>
     <use xlink:href="#maaed2c66c8" x="541.42294" y="321.714428" style="fill: #4682b4; stroke: #4682b4"/>
     <use xlink:href="#maaed2c66c8" x="544.580638" y="217.363397" style="fill: #4682b4; stroke: #4682b4"/>
     <use xlink:href="#maaed2c66c8" x="547.738336" y="311.279325" style="fill: #4682b4; stroke: #4682b4"/>
     <use xlink:href="#maaed2c66c8" x="550.896034" y="248.668706" style="fill: #4682b4; stroke: #4682b4"/>
     <use xlink:href="#maaed2c66c8" x="554.053732" y="248.668706" style="fill: #4682b4; stroke: #4682b4"/>
     <use xlink:href="#maaed2c66c8" x="557.211431" y="217.363397" style="fill: #4682b4; stroke: #4682b4"/>
     <use xlink:href="#maaed2c66c8" x="560.369129" y="279.974016" style="fill: #4682b4; stroke: #4682b4"/>
     <use xlink:href="#maaed2c66c8" x="563.526827" y="279.974016" style="fill: #4682b4; stroke: #4682b4"/>
     <use xlink:href="#maaed2c66c8" x="566.684525" y="311.279325" style="fill: #4682b4; stroke: #4682b4"/>
     <use xlink:href="#maaed2c66c8" x="569.842223" y="311.279325" style="fill: #4682b4; stroke: #4682b4"/>
     <use xlink:href="#maaed2c66c8" x="572.999921" y="259.103809" style="fill: #4682b4; stroke: #4682b4"/>
     <use xlink:href="#maaed2c66c8" x="576.15762" y="321.714428" style="fill: #4682b4; stroke: #4682b4"/>
     <use xlink:href="#maaed2c66c8" x="579.315318" y="300.844222" style="fill: #4682b4; stroke: #4682b4"/>
     <use xlink:href="#maaed2c66c8" x="582.473016" y="311.279325" style="fill: #4682b4; stroke: #4682b4"/>
     <use xlink:href="#maaed2c66c8" x="585.630714" y="300.844222" style="fill: #4682b4; stroke: #4682b4"/>
     <use xlink:href="#maaed2c66c8" x="588.788412" y="300.844222" style="fill: #4682b4; stroke: #4682b4"/>
     <use xlink:href="#maaed2c66c8" x="591.946111" y="279.974016" style="fill: #4682b4; stroke: #4682b4"/>
     <use xlink:href="#maaed2c66c8" x="595.103809" y="217.363397" style="fill: #4682b4; stroke: #4682b4"/>
     <use xlink:href="#maaed2c66c8" x="598.261507" y="238.233603" style="fill: #4682b4; stroke: #4682b4"/>
     <use xlink:href="#maaed2c66c8" x="601.419205" y="321.714428" style="fill: #4682b4; stroke: #4682b4"/>
     <use xlink:href="#maaed2c66c8" x="604.576903" y="300.844222" style="fill: #4682b4; stroke: #4682b4"/>
     <use xlink:href="#maaed2c66c8" x="607.734601" y="321.714428" style="fill: #4682b4; stroke: #4682b4"/>
     <use xlink:href="#maaed2c66c8" x="610.8923" y="311.279325" style="fill: #4682b4; stroke: #4682b4"/>
     <use xlink:href="#maaed2c66c8" x="614.049998" y="300.844222" style="fill: #4682b4; stroke: #4682b4"/>
     <use xlink:href="#maaed2c66c8" x="617.207696" y="290.409119" style="fill: #4682b4; stroke: #4682b4"/>
     <use xlink:href="#maaed2c66c8" x="620.365394" y="206.928294" style="fill: #4682b4; stroke: #4682b4"/>
     <use xlink:href="#maaed2c66c8" x="623.523092" y="248.668706" style="fill: #4682b4; stroke: #4682b4"/>
     <use xlink:href="#maaed2c66c8" x="626.68079" y="269.538912" style="fill: #4682b4; stroke: #4682b4"/>
     <use xlink:href="#maaed2c66c8" x="629.838489" y="311.279325" style="fill: #4682b4; stroke: #4682b4"/>
     <use xlink:href="#maaed2c66c8" x="632.996187" y="196.493191" style="fill: #4682b4; stroke: #4682b4"/>
     <use xlink:href="#maaed2c66c8" x="636.153885" y="321.714428" style="fill: #4682b4; stroke: #4682b4"/>
     <use xlink:href="#maaed2c66c8" x="645.62698" y="206.928294" style="fill: #4682b4; stroke: #4682b4"/>
     <use xlink:href="#maaed2c66c8" x="651.942376" y="300.844222" style="fill: #4682b4; stroke: #4682b4"/>
     <use xlink:href="#maaed2c66c8" x="655.100074" y="290.409119" style="fill: #4682b4; stroke: #4682b4"/>
     <use xlink:href="#maaed2c66c8" x="658.257772" y="300.844222" style="fill: #4682b4; stroke: #4682b4"/>
     <use xlink:href="#maaed2c66c8" x="661.41547" y="311.279325" style="fill: #4682b4; stroke: #4682b4"/>
     <use xlink:href="#maaed2c66c8" x="670.888565" y="321.714428" style="fill: #4682b4; stroke: #4682b4"/>
     <use xlink:href="#maaed2c66c8" x="674.046263" y="311.279325" style="fill: #4682b4; stroke: #4682b4"/>
     <use xlink:href="#maaed2c66c8" x="677.203961" y="311.279325" style="fill: #4682b4; stroke: #4682b4"/>
     <use xlink:href="#maaed2c66c8" x="680.36166" y="279.974016" style="fill: #4682b4; stroke: #4682b4"/>
     <use xlink:href="#maaed2c66c8" x="683.519358" y="311.279325" style="fill: #4682b4; stroke: #4682b4"/>
     <use xlink:href="#maaed2c66c8" x="686.677056" y="321.714428" style="fill: #4682b4; stroke: #4682b4"/>
     <use xlink:href="#maaed2c66c8" x="689.834754" y="227.7985" style="fill: #4682b4; stroke: #4682b4"/>
     <use xlink:href="#maaed2c66c8" x="692.992452" y="290.409119" style="fill: #4682b4; stroke: #4682b4"/>
     <use xlink:href="#maaed2c66c8" x="699.307849" y="321.714428" style="fill: #4682b4; stroke: #4682b4"/>
     <use xlink:href="#maaed2c66c8" x="702.465547" y="227.7985" style="fill: #4682b4; stroke: #4682b4"/>
     <use xlink:href="#maaed2c66c8" x="705.623245" y="259.103809" style="fill: #4682b4; stroke: #4682b4"/>
     <use xlink:href="#maaed2c66c8" x="708.780943" y="290.409119" style="fill: #4682b4; stroke: #4682b4"/>
     <use xlink:href="#maaed2c66c8" x="711.938641" y="206.928294" style="fill: #4682b4; stroke: #4682b4"/>
     <use xlink:href="#maaed2c66c8" x="715.096339" y="311.279325" style="fill: #4682b4; stroke: #4682b4"/>
     <use xlink:href="#maaed2c66c8" x="718.254038" y="311.279325" style="fill: #4682b4; stroke: #4682b4"/>
     <use xlink:href="#maaed2c66c8" x="724.569434" y="311.279325" style="fill: #4682b4; stroke: #4682b4"/>
     <use xlink:href="#maaed2c66c8" x="727.727132" y="300.844222" style="fill: #4682b4; stroke: #4682b4"/>
     <use xlink:href="#maaed2c66c8" x="730.88483" y="259.103809" style="fill: #4682b4; stroke: #4682b4"/>
     <use xlink:href="#maaed2c66c8" x="737.200227" y="279.974016" style="fill: #4682b4; stroke: #4682b4"/>
     <use xlink:href="#maaed2c66c8" x="740.357925" y="196.493191" style="fill: #4682b4; stroke: #4682b4"/>
     <use xlink:href="#maaed2c66c8" x="743.515623" y="311.279325" style="fill: #4682b4; stroke: #4682b4"/>
     <use xlink:href="#maaed2c66c8" x="746.673321" y="311.279325" style="fill: #4682b4; stroke: #4682b4"/>
     <use xlink:href="#maaed2c66c8" x="749.831019" y="300.844222" style="fill: #4682b4; stroke: #4682b4"/>
     <use xlink:href="#maaed2c66c8" x="752.988718" y="217.363397" style="fill: #4682b4; stroke: #4682b4"/>
     <use xlink:href="#maaed2c66c8" x="756.146416" y="321.714428" style="fill: #4682b4; stroke: #4682b4"/>
     <use xlink:href="#maaed2c66c8" x="759.304114" y="248.668706" style="fill: #4682b4; stroke: #4682b4"/>
     <use xlink:href="#maaed2c66c8" x="762.461812" y="248.668706" style="fill: #4682b4; stroke: #4682b4"/>
     <use xlink:href="#maaed2c66c8" x="765.61951" y="196.493191" style="fill: #4682b4; stroke: #4682b4"/>
     <use xlink:href="#maaed2c66c8" x="768.777208" y="311.279325" style="fill: #4682b4; stroke: #4682b4"/>
     <use xlink:href="#maaed2c66c8" x="771.934907" y="279.974016" style="fill: #4682b4; stroke: #4682b4"/>
     <use xlink:href="#maaed2c66c8" x="775.092605" y="248.668706" style="fill: #4682b4; stroke: #4682b4"/>
     <use xlink:href="#maaed2c66c8" x="781.408001" y="290.409119" style="fill: #4682b4; stroke: #4682b4"/>
     <use xlink:href="#maaed2c66c8" x="784.565699" y="206.928294" style="fill: #4682b4; stroke: #4682b4"/>
     <use xlink:href="#maaed2c66c8" x="787.723398" y="311.279325" style="fill: #4682b4; stroke: #4682b4"/>
     <use xlink:href="#maaed2c66c8" x="790.881096" y="279.974016" style="fill: #4682b4; stroke: #4682b4"/>
     <use xlink:href="#maaed2c66c8" x="794.038794" y="248.668706" style="fill: #4682b4; stroke: #4682b4"/>
     <use xlink:href="#maaed2c66c8" x="797.196492" y="259.103809" style="fill: #4682b4; stroke: #4682b4"/>
     <use xlink:href="#maaed2c66c8" x="800.35419" y="217.363397" style="fill: #4682b4; stroke: #4682b4"/>
     <use xlink:href="#maaed2c66c8" x="803.511888" y="300.844222" style="fill: #4682b4; stroke: #4682b4"/>
     <use xlink:href="#maaed2c66c8" x="809.827285" y="259.103809" style="fill: #4682b4; stroke: #4682b4"/>
     <use xlink:href="#maaed2c66c8" x="812.984983" y="217.363397" style="fill: #4682b4; stroke: #4682b4"/>
     <use xlink:href="#maaed2c66c8" x="816.142681" y="300.844222" style="fill: #4682b4; stroke: #4682b4"/>
     <use xlink:href="#maaed2c66c8" x="819.300379" y="321.714428" style="fill: #4682b4; stroke: #4682b4"/>
     <use xlink:href="#maaed2c66c8" x="822.458078" y="259.103809" style="fill: #4682b4; stroke: #4682b4"/>
     <use xlink:href="#maaed2c66c8" x="825.615776" y="321.714428" style="fill: #4682b4; stroke: #4682b4"/>
     <use xlink:href="#maaed2c66c8" x="828.773474" y="321.714428" style="fill: #4682b4; stroke: #4682b4"/>
     <use xlink:href="#maaed2c66c8" x="831.931172" y="269.538912" style="fill: #4682b4; stroke: #4682b4"/>
     <use xlink:href="#maaed2c66c8" x="835.08887" y="311.279325" style="fill: #4682b4; stroke: #4682b4"/>
     <use xlink:href="#maaed2c66c8" x="838.246568" y="321.714428" style="fill: #4682b4; stroke: #4682b4"/>
     <use xlink:href="#maaed2c66c8" x="841.404267" y="321.714428" style="fill: #4682b4; stroke: #4682b4"/>
     <use xlink:href="#maaed2c66c8" x="844.561965" y="300.844222" style="fill: #4682b4; stroke: #4682b4"/>
     <use xlink:href="#maaed2c66c8" x="847.719663" y="269.538912" style="fill: #4682b4; stroke: #4682b4"/>
     <use xlink:href="#maaed2c66c8" x="850.877361" y="300.844222" style="fill: #4682b4; stroke: #4682b4"/>
     <use xlink:href="#maaed2c66c8" x="854.035059" y="259.103809" style="fill: #4682b4; stroke: #4682b4"/>
     <use xlink:href="#maaed2c66c8" x="857.192757" y="290.409119" style="fill: #4682b4; stroke: #4682b4"/>
     <use xlink:href="#maaed2c66c8" x="860.350456" y="300.844222" style="fill: #4682b4; stroke: #4682b4"/>
     <use xlink:href="#maaed2c66c8" x="863.508154" y="311.279325" style="fill: #4682b4; stroke: #4682b4"/>
     <use xlink:href="#maaed2c66c8" x="866.665852" y="321.714428" style="fill: #4682b4; stroke: #4682b4"/>
     <use xlink:href="#maaed2c66c8" x="869.82355" y="238.233603" style="fill: #4682b4; stroke: #4682b4"/>
     <use xlink:href="#maaed2c66c8" x="872.981248" y="311.279325" style="fill: #4682b4; stroke: #4682b4"/>
     <use xlink:href="#maaed2c66c8" x="876.138947" y="290.409119" style="fill: #4682b4; stroke: #4682b4"/>
     <use xlink:href="#maaed2c66c8" x="882.454343" y="300.844222" style="fill: #4682b4; stroke: #4682b4"/>
     <use xlink:href="#maaed2c66c8" x="885.612041" y="269.538912" style="fill: #4682b4; stroke: #4682b4"/>
     <use xlink:href="#maaed2c66c8" x="888.769739" y="321.714428" style="fill: #4682b4; stroke: #4682b4"/>
     <use xlink:href="#maaed2c66c8" x="891.927437" y="300.844222" style="fill: #4682b4; stroke: #4682b4"/>
     <use xlink:href="#maaed2c66c8" x="895.085136" y="321.714428" style="fill: #4682b4; stroke: #4682b4"/>
     <use xlink:href="#maaed2c66c8" x="898.242834" y="300.844222" style="fill: #4682b4; stroke: #4682b4"/>
     <use xlink:href="#maaed2c66c8" x="901.400532" y="311.279325" style="fill: #4682b4; stroke: #4682b4"/>
     <use xlink:href="#maaed2c66c8" x="904.55823" y="279.974016" style="fill: #4682b4; stroke: #4682b4"/>
     <use xlink:href="#maaed2c66c8" x="907.715928" y="290.409119" style="fill: #4682b4; stroke: #4682b4"/>
     <use xlink:href="#maaed2c66c8" x="910.873626" y="227.7985" style="fill: #4682b4; stroke: #4682b4"/>
     <use xlink:href="#maaed2c66c8" x="914.031325" y="311.279325" style="fill: #4682b4; stroke: #4682b4"/>
     <use xlink:href="#maaed2c66c8" x="917.189023" y="269.538912" style="fill: #4682b4; stroke: #4682b4"/>
     <use xlink:href="#maaed2c66c8" x="920.346721" y="259.103809" style="fill: #4682b4; stroke: #4682b4"/>
     <use xlink:href="#maaed2c66c8" x="923.504419" y="238.233603" style="fill: #4682b4; stroke: #4682b4"/>
     <use xlink:href="#maaed2c66c8" x="926.662117" y="227.7985" style="fill: #4682b4; stroke: #4682b4"/>
     <use xlink:href="#maaed2c66c8" x="929.819816" y="227.7985" style="fill: #4682b4; stroke: #4682b4"/>
     <use xlink:href="#maaed2c66c8" x="936.135212" y="259.103809" style="fill: #4682b4; stroke: #4682b4"/>
     <use xlink:href="#maaed2c66c8" x="939.29291" y="300.844222" style="fill: #4682b4; stroke: #4682b4"/>
     <use xlink:href="#maaed2c66c8" x="942.450608" y="248.668706" style="fill: #4682b4; stroke: #4682b4"/>
     <use xlink:href="#maaed2c66c8" x="945.608306" y="206.928294" style="fill: #4682b4; stroke: #4682b4"/>
     <use xlink:href="#maaed2c66c8" x="948.766005" y="279.974016" style="fill: #4682b4; stroke: #4682b4"/>
     <use xlink:href="#maaed2c66c8" x="951.923703" y="186.058088" style="fill: #4682b4; stroke: #4682b4"/>
     <use xlink:href="#maaed2c66c8" x="955.081401" y="311.279325" style="fill: #4682b4; stroke: #4682b4"/>
     <use xlink:href="#maaed2c66c8" x="958.239099" y="144.317675" style="fill: #4682b4; stroke: #4682b4"/>
     <use xlink:href="#maaed2c66c8" x="961.396797" y="102.577263" style="fill: #4682b4; stroke: #4682b4"/>
     <use xlink:href="#maaed2c66c8" x="964.554495" y="300.844222" style="fill: #4682b4; stroke: #4682b4"/>
     <use xlink:href="#maaed2c66c8" x="967.712194" y="259.103809" style="fill: #4682b4; stroke: #4682b4"/>
     <use xlink:href="#maaed2c66c8" x="970.869892" y="238.233603" style="fill: #4682b4; stroke: #4682b4"/>
     <use xlink:href="#maaed2c66c8" x="974.02759" y="248.668706" style="fill: #4682b4; stroke: #4682b4"/>
     <use xlink:href="#maaed2c66c8" x="977.185288" y="279.974016" style="fill: #4682b4; stroke: #4682b4"/>
     <use xlink:href="#maaed2c66c8" x="980.342986" y="269.538912" style="fill: #4682b4; stroke: #4682b4"/>
     <use xlink:href="#maaed2c66c8" x="983.500685" y="206.928294" style="fill: #4682b4; stroke: #4682b4"/>
     <use xlink:href="#maaed2c66c8" x="986.658383" y="206.928294" style="fill: #4682b4; stroke: #4682b4"/>
     <use xlink:href="#maaed2c66c8" x="989.816081" y="311.279325" style="fill: #4682b4; stroke: #4682b4"/>
     <use xlink:href="#maaed2c66c8" x="992.973779" y="300.844222" style="fill: #4682b4; stroke: #4682b4"/>
     <use xlink:href="#maaed2c66c8" x="996.131477" y="300.844222" style="fill: #4682b4; stroke: #4682b4"/>
     <use xlink:href="#maaed2c66c8" x="999.289175" y="279.974016" style="fill: #4682b4; stroke: #4682b4"/>
     <use xlink:href="#maaed2c66c8" x="1002.446874" y="311.279325" style="fill: #4682b4; stroke: #4682b4"/>
     <use xlink:href="#maaed2c66c8" x="1005.604572" y="248.668706" style="fill: #4682b4; stroke: #4682b4"/>
     <use xlink:href="#maaed2c66c8" x="1008.76227" y="290.409119" style="fill: #4682b4; stroke: #4682b4"/>
     <use xlink:href="#maaed2c66c8" x="1011.919968" y="238.233603" style="fill: #4682b4; stroke: #4682b4"/>
     <use xlink:href="#maaed2c66c8" x="1015.077666" y="248.668706" style="fill: #4682b4; stroke: #4682b4"/>
     <use xlink:href="#maaed2c66c8" x="1018.235365" y="248.668706" style="fill: #4682b4; stroke: #4682b4"/>
     <use xlink:href="#maaed2c66c8" x="1021.393063" y="269.538912" style="fill: #4682b4; stroke: #4682b4"/>
     <use xlink:href="#maaed2c66c8" x="1024.550761" y="269.538912" style="fill: #4682b4; stroke: #4682b4"/>
     <use xlink:href="#maaed2c66c8" x="1027.708459" y="269.538912" style="fill: #4682b4; stroke: #4682b4"/>
     <use xlink:href="#maaed2c66c8" x="1030.866157" y="259.103809" style="fill: #4682b4; stroke: #4682b4"/>
     <use xlink:href="#maaed2c66c8" x="1034.023855" y="206.928294" style="fill: #4682b4; stroke: #4682b4"/>
     <use xlink:href="#maaed2c66c8" x="1037.181554" y="154.752778" style="fill: #4682b4; stroke: #4682b4"/>
     <use xlink:href="#maaed2c66c8" x="1040.339252" y="144.317675" style="fill: #4682b4; stroke: #4682b4"/>
     <use xlink:href="#maaed2c66c8" x="1043.49695" y="300.844222" style="fill: #4682b4; stroke: #4682b4"/>
     <use xlink:href="#maaed2c66c8" x="1046.654648" y="269.538912" style="fill: #4682b4; stroke: #4682b4"/>
     <use xlink:href="#maaed2c66c8" x="1049.812346" y="217.363397" style="fill: #4682b4; stroke: #4682b4"/>
     <use xlink:href="#maaed2c66c8" x="1052.970044" y="259.103809" style="fill: #4682b4; stroke: #4682b4"/>
     <use xlink:href="#maaed2c66c8" x="1056.127743" y="175.622985" style="fill: #4682b4; stroke: #4682b4"/>
     <use xlink:href="#maaed2c66c8" x="1059.285441" y="259.103809" style="fill: #4682b4; stroke: #4682b4"/>
     <use xlink:href="#maaed2c66c8" x="1062.443139" y="290.409119" style="fill: #4682b4; stroke: #4682b4"/>
     <use xlink:href="#maaed2c66c8" x="1065.600837" y="269.538912" style="fill: #4682b4; stroke: #4682b4"/>
     <use xlink:href="#maaed2c66c8" x="1068.758535" y="248.668706" style="fill: #4682b4; stroke: #4682b4"/>
     <use xlink:href="#maaed2c66c8" x="1075.073932" y="290.409119" style="fill: #4682b4; stroke: #4682b4"/>
     <use xlink:href="#maaed2c66c8" x="1078.23163" y="259.103809" style="fill: #4682b4; stroke: #4682b4"/>
     <use xlink:href="#maaed2c66c8" x="1081.389328" y="259.103809" style="fill: #4682b4; stroke: #4682b4"/>
     <use xlink:href="#maaed2c66c8" x="1084.547026" y="311.279325" style="fill: #4682b4; stroke: #4682b4"/>
     <use xlink:href="#maaed2c66c8" x="1087.704724" y="279.974016" style="fill: #4682b4; stroke: #4682b4"/>
    </g>
   </g>
   <g id="patch_3">
    <path d="M 53.242801 346.758675 
L 53.242801 25.3575 
" style="fill: none; stroke: #cccccc; stroke-width: 0.8; stroke-linejoin: miter; stroke-linecap: square"/>
   </g>
   <g id="patch_4">
    <path d="M 1136.964816 346.758675 
L 1136.964816 25.3575 
" style="fill: none; stroke: #cccccc; stroke-width: 0.8; stroke-linejoin: miter; stroke-linecap: square"/>
   </g>
   <g id="patch_5">
    <path d="M 53.242801 346.758675 
L 1136.964816 346.758675 
" style="fill: none; stroke: #cccccc; stroke-width: 0.8; stroke-linejoin: miter; stroke-linecap: square"/>
   </g>
   <g id="patch_6">
    <path d="M 53.242801 25.3575 
L 1136.964816 25.3575 
" style="fill: none; stroke: #cccccc; stroke-width: 0.8; stroke-linejoin: miter; stroke-linecap: square"/>
   </g>
   <g id="text_21">
    <!-- Wildlife Activity Over Time -->
    <g style="fill: #262626" transform="translate(474.476309 19.3575) scale(0.16 -0.16)">
     <defs>
      <path id="DejaVuSans-Bold-57" d="M 191 4666 
L 1344 4666 
L 2150 1275 
L 2950 4666 
L 4109 4666 
L 4909 1275 
L 5716 4666 
L 6859 4666 
L 5759 0 
L 4372 0 
L 3525 3547 
L 2688 0 
L 1300 0 
L 191 4666 
z
" transform="scale(0.015625)"/>
      <path id="DejaVuSans-Bold-69" d="M 538 3500 
L 1656 3500 
L 1656 0 
L 538 0 
L 538 3500 
z
M 538 4863 
L 1656 4863 
L 1656 3950 
L 538 3950 
L 538 4863 
z
" transform="scale(0.015625)"/>
      <path id="DejaVuSans-Bold-6c" d="M 538 4863 
L 1656 4863 
L 1656 0 
L 538 0 
L 538 4863 
z
" transform="scale(0.015625)"/>
      <path id="DejaVuSans-Bold-64" d="M 2919 2988 
L 2919 4863 
L 4044 4863 
L 4044 0 
L 2919 0 
L 2919 506 
Q 2688 197 2409 53 
Q 2131 -91 1766 -91 
Q 1119 -91 703 423 
Q 288 938 288 1747 
Q 288 2556 703 3070 
Q 1119 3584 1766 3584 
Q 2128 3584 2408 3439 
Q 2688 3294 2919 2988 
z
M 2181 722 
Q 2541 722 2730 984 
Q 2919 1247 2919 1747 
Q 2919 2247 2730 2509 
Q 2541 2772 2181 2772 
Q 1825 2772 1636 2509 
Q 1447 2247 1447 1747 
Q 1447 1247 1636 984 
Q 1825 722 2181 722 
z
" transform="scale(0.015625)"/>
      <path id="DejaVuSans-Bold-66" d="M 2841 4863 
L 2841 4128 
L 2222 4128 
Q 1984 4128 1890 4042 
Q 1797 3956 1797 3744 
L 1797 3500 
L 2753 3500 
L 2753 2700 
L 1797 2700 
L 1797 0 
L 678 0 
L 678 2700 
L 122 2700 
L 122 3500 
L 678 3500 
L 678 3744 
Q 678 4316 997 4589 
Q 1316 4863 1984 4863 
L 2841 4863 
z
" transform="scale(0.015625)"/>
      <path id="DejaVuSans-Bold-65" d="M 4031 1759 
L 4031 1441 
L 1416 1441 
Q 1456 1047 1700 850 
Q 1944 653 2381 653 
Q 2734 653 3104 758 
Q 3475 863 3866 1075 
L 3866 213 
Q 3469 63 3072 -14 
Q 2675 -91 2278 -91 
Q 1328 -91 801 392 
Q 275 875 275 1747 
Q 275 2603 792 3093 
Q 1309 3584 2216 3584 
Q 3041 3584 3536 3087 
Q 4031 2591 4031 1759 
z
M 2881 2131 
Q 2881 2450 2695 2645 
Q 2509 2841 2209 2841 
Q 1884 2841 1681 2658 
Q 1478 2475 1428 2131 
L 2881 2131 
z
" transform="scale(0.015625)"/>
      <path id="DejaVuSans-Bold-20" transform="scale(0.015625)"/>
      <path id="DejaVuSans-Bold-41" d="M 3419 850 
L 1538 850 
L 1241 0 
L 31 0 
L 1759 4666 
L 3194 4666 
L 4922 0 
L 3713 0 
L 3419 850 
z
M 1838 1716 
L 3116 1716 
L 2478 3572 
L 1838 1716 
z
" transform="scale(0.015625)"/>
      <path id="DejaVuSans-Bold-63" d="M 3366 3391 
L 3366 2478 
Q 3138 2634 2908 2709 
Q 2678 2784 2431 2784 
Q 1963 2784 1702 2511 
Q 1441 2238 1441 1747 
Q 1441 1256 1702 982 
Q 1963 709 2431 709 
Q 2694 709 2930 787 
Q 3166 866 3366 1019 
L 3366 103 
Q 3103 6 2833 -42 
Q 2563 -91 2291 -91 
Q 1344 -91 809 395 
Q 275 881 275 1747 
Q 275 2613 809 3098 
Q 1344 3584 2291 3584 
Q 2566 3584 2833 3536 
Q 3100 3488 3366 3391 
z
" transform="scale(0.015625)"/>
      <path id="DejaVuSans-Bold-74" d="M 1759 4494 
L 1759 3500 
L 2913 3500 
L 2913 2700 
L 1759 2700 
L 1759 1216 
Q 1759 972 1856 886 
Q 1953 800 2241 800 
L 2816 800 
L 2816 0 
L 1856 0 
Q 1194 0 917 276 
Q 641 553 641 1216 
L 641 2700 
L 84 2700 
L 84 3500 
L 641 3500 
L 641 4494 
L 1759 4494 
z
" transform="scale(0.015625)"/>
      <path id="DejaVuSans-Bold-76" d="M 97 3500 
L 1216 3500 
L 2088 1081 
L 2956 3500 
L 4078 3500 
L 2700 0 
L 1472 0 
L 97 3500 
z
" transform="scale(0.015625)"/>
      <path id="DejaVuSans-Bold-79" d="M 78 3500 
L 1197 3500 
L 2138 1125 
L 2938 3500 
L 4056 3500 
L 2584 -331 
Q 2363 -916 2067 -1148 
Q 1772 -1381 1288 -1381 
L 641 -1381 
L 641 -647 
L 991 -647 
Q 1275 -647 1404 -556 
Q 1534 -466 1606 -231 
L 1638 -134 
L 78 3500 
z
" transform="scale(0.015625)"/>
      <path id="DejaVuSans-Bold-4f" d="M 2719 3878 
Q 2169 3878 1866 3472 
Q 1563 3066 1563 2328 
Q 1563 1594 1866 1187 
Q 2169 781 2719 781 
Q 3272 781 3575 1187 
Q 3878 1594 3878 2328 
Q 3878 3066 3575 3472 
Q 3272 3878 2719 3878 
z
M 2719 4750 
Q 3844 4750 4481 4106 
Q 5119 3463 5119 2328 
Q 5119 1197 4481 553 
Q 3844 -91 2719 -91 
Q 1597 -91 958 553 
Q 319 1197 319 2328 
Q 319 3463 958 4106 
Q 1597 4750 2719 4750 
z
" transform="scale(0.015625)"/>
      <path id="DejaVuSans-Bold-72" d="M 3138 2547 
Q 2991 2616 2845 2648 
Q 2700 2681 2553 2681 
Q 2122 2681 1889 2404 
Q 1656 2128 1656 1613 
L 1656 0 
L 538 0 
L 538 3500 
L 1656 3500 
L 1656 2925 
Q 1872 3269 2151 3426 
Q 2431 3584 2822 3584 
Q 2878 3584 2943 3579 
Q 3009 3575 3134 3559 
L 3138 2547 
z
" transform="scale(0.015625)"/>
      <path id="DejaVuSans-Bold-54" d="M 31 4666 
L 4331 4666 
L 4331 3756 
L 2784 3756 
L 2784 0 
L 1581 0 
L 1581 3756 
L 31 3756 
L 31 4666 
z
" transform="scale(0.015625)"/>
      <path id="DejaVuSans-Bold-6d" d="M 3781 2919 
Q 3994 3244 4286 3414 
Q 4578 3584 4928 3584 
Q 5531 3584 5847 3212 
Q 6163 2841 6163 2131 
L 6163 0 
L 5038 0 
L 5038 1825 
Q 5041 1866 5042 1909 
Q 5044 1953 5044 2034 
Q 5044 2406 4934 2573 
Q 4825 2741 4581 2741 
Q 4263 2741 4089 2478 
Q 3916 2216 3909 1719 
L 3909 0 
L 2784 0 
L 2784 1825 
Q 2784 2406 2684 2573 
Q 2584 2741 2328 2741 
Q 2006 2741 1831 2477 
Q 1656 2213 1656 1722 
L 1656 0 
L 531 0 
L 531 3500 
L 1656 3500 
L 1656 2988 
Q 1863 3284 2130 3434 
Q 2397 3584 2719 3584 
Q 3081 3584 3359 3409 
Q 3638 3234 3781 2919 
z
" transform="scale(0.015625)"/>
     </defs>
     <use xlink:href="#DejaVuSans-Bold-57"/>
     <use xlink:href="#DejaVuSans-Bold-69" transform="translate(110.302734 0)"/>
     <use xlink:href="#DejaVuSans-Bold-6c" transform="translate(144.580078 0)"/>
     <use xlink:href="#DejaVuSans-Bold-64" transform="translate(178.857422 0)"/>
     <use xlink:href="#DejaVuSans-Bold-6c" transform="translate(250.439453 0)"/>
     <use xlink:href="#DejaVuSans-Bold-69" transform="translate(284.716797 0)"/>
     <use xlink:href="#DejaVuSans-Bold-66" transform="translate(318.994141 0)"/>
     <use xlink:href="#DejaVuSans-Bold-65" transform="translate(362.5 0)"/>
     <use xlink:href="#DejaVuSans-Bold-20" transform="translate(430.322266 0)"/>
     <use xlink:href="#DejaVuSans-Bold-41" transform="translate(465.136719 0)"/>
     <use xlink:href="#DejaVuSans-Bold-63" transform="translate(542.529297 0)"/>
     <use xlink:href="#DejaVuSans-Bold-74" transform="translate(601.806641 0)"/>
     <use xlink:href="#DejaVuSans-Bold-69" transform="translate(649.609375 0)"/>
     <use xlink:href="#DejaVuSans-Bold-76" transform="translate(683.886719 0)"/>
     <use xlink:href="#DejaVuSans-Bold-69" transform="translate(749.072266 0)"/>
     <use xlink:href="#DejaVuSans-Bold-74" transform="translate(783.349609 0)"/>
     <use xlink:href="#DejaVuSans-Bold-79" transform="translate(831.152344 0)"/>
     <use xlink:href="#DejaVuSans-Bold-20" transform="translate(896.337891 0)"/>
     <use xlink:href="#DejaVuSans-Bold-4f" transform="translate(931.152344 0)"/>
     <use xlink:href="#DejaVuSans-Bold-76" transform="translate(1016.162109 0)"/>
     <use xlink:href="#DejaVuSans-Bold-65" transform="translate(1081.347656 0)"/>
     <use xlink:href="#DejaVuSans-Bold-72" transform="translate(1149.169922 0)"/>
     <use xlink:href="#DejaVuSans-Bold-20" transform="translate(1198.486328 0)"/>
     <use xlink:href="#DejaVuSans-Bold-54" transform="translate(1233.300781 0)"/>
     <use xlink:href="#DejaVuSans-Bold-69" transform="translate(1301.513672 0)"/>
     <use xlink:href="#DejaVuSans-Bold-6d" transform="translate(1335.791016 0)"/>
     <use xlink:href="#DejaVuSans-Bold-65" transform="translate(1439.990234 0)"/>
    </g>
   </g>
  </g>
 </g>
 <defs>
  <clipPath id="p1210a5e6a6">
   <rect x="53.242801" y="25.3575" width="1083.722015" height="321.401175"/>
  </clipPath>
 </defs>
</svg>
