<?xml version="1.0" encoding="utf-8" standalone="no"?>
<!DOCTYPE svg PUBLIC "-//W3C//DTD SVG 1.1//EN"
  "http://www.w3.org/Graphics/SVG/1.1/DTD/svg11.dtd">
<svg xmlns:xlink="http://www.w3.org/1999/xlink" width="1144.370625pt" height="424.474375pt" viewBox="0 0 1144.370625 424.474375" xmlns="http://www.w3.org/2000/svg" version="1.1">
 <metadata>
  <rdf:RDF xmlns:dc="http://purl.org/dc/elements/1.1/" xmlns:cc="http://creativecommons.org/ns#" xmlns:rdf="http://www.w3.org/1999/02/22-rdf-syntax-ns#">
   <cc:Work>
    <dc:type rdf:resource="http://purl.org/dc/dcmitype/StillImage"/>
    <dc:date>2025-12-26T18:08:57.749684</dc:date>
    <dc:format>image/svg+xml</dc:format>
    <dc:creator>
     <cc:Agent>
      <dc:title>Matplotlib v3.10.8, https://matplotlib.org/</dc:title>
     </cc:Agent>
    </dc:creator>
   </cc:Work>
  </rdf:RDF>
 </metadata>
 <defs>
  <style type="text/css">*{stroke-linejoin: round; stroke-linecap: butt}</style>
 </defs>
 <g id="figure_1">
  <g id="patch_1">
   <path d="M 0 424.474375 
L 1144.370625 424.474375 
L 1144.370625 0 
L 0 0 
z
" style="fill: #ffffff"/>
  </g>
  <g id="axes_1">
   <g id="patch_2">
    <path d="M 34.240625 386.918125 
L 563.375625 386.918125 
L 563.375625 22.318125 
L 34.240625 22.318125 
z
" style="fill: #ffffff"/>
   </g>
   <g id="matplotlib.axis_1">
    <g id="xtick_1">
     <g id="line2d_1">
      <path d="M 288.921001 386.918125 
L 288.921001 22.318125 
" clip-path="url(#p974565c0ba)" style="fill: none; stroke: #cccccc; stroke-width: 0.8; stroke-linecap: round"/>
     </g>
     <g id="text_1">
      <!-- −6 -->
      <g style="fill: #262626" transform="translate(281.549907 401.516562) scale(0.1 -0.1)">
       <defs>
        <path id="DejaVuSans-2212" d="M 678 2272 
L 4684 2272 
L 4684 1741 
L 678 1741 
L 678 2272 
z
" transform="scale(0.015625)"/>
        <path id="DejaVuSans-36" d="M 2113 2584 
Q 1688 2584 1439 2293 
Q 1191 2003 1191 1497 
Q 1191 994 1439 701 
Q 1688 409 2113 409 
Q 2538 409 2786 701 
Q 3034 994 3034 1497 
Q 3034 2003 2786 2293 
Q 2538 2584 2113 2584 
z
M 3366 4563 
L 3366 3988 
Q 3128 4100 2886 4159 
Q 2644 4219 2406 4219 
Q 1781 4219 1451 3797 
Q 1122 3375 1075 2522 
Q 1259 2794 1537 2939 
Q 1816 3084 2150 3084 
Q 2853 3084 3261 2657 
Q 3669 2231 3669 1497 
Q 3669 778 3244 343 
Q 2819 -91 2113 -91 
Q 1303 -91 875 529 
Q 447 1150 447 2328 
Q 447 3434 972 4092 
Q 1497 4750 2381 4750 
Q 2619 4750 2861 4703 
Q 3103 4656 3366 4563 
z
" transform="scale(0.015625)"/>
       </defs>
       <use xlink:href="#DejaVuSans-2212"/>
       <use xlink:href="#DejaVuSans-36" transform="translate(83.789062 0)"/>
      </g>
     </g>
    </g>
    <g id="xtick_2">
     <g id="line2d_2">
      <path d="M 308.539703 386.918125 
L 308.539703 22.318125 
" clip-path="url(#p974565c0ba)" style="fill: none; stroke: #cccccc; stroke-width: 0.8; stroke-linecap: round"/>
     </g>
     <g id="text_2">
      <!-- −5 -->
      <g style="fill: #262626" transform="translate(301.168609 401.516562) scale(0.1 -0.1)">
       <defs>
        <path id="DejaVuSans-35" d="M 691 4666 
L 3169 4666 
L 3169 4134 
L 1269 4134 
L 1269 2991 
Q 1406 3038 1543 3061 
Q 1681 3084 1819 3084 
Q 2600 3084 3056 2656 
Q 3513 2228 3513 1497 
Q 3513 744 3044 326 
Q 2575 -91 1722 -91 
Q 1428 -91 1123 -41 
Q 819 9 494 109 
L 494 744 
Q 775 591 1075 516 
Q 1375 441 1709 441 
Q 2250 441 2565 725 
Q 2881 1009 2881 1497 
Q 2881 1984 2565 2268 
Q 2250 2553 1709 2553 
Q 1456 2553 1204 2497 
Q 953 2441 691 2322 
L 691 4666 
z
" transform="scale(0.015625)"/>
       </defs>
       <use xlink:href="#DejaVuSans-2212"/>
       <use xlink:href="#DejaVuSans-35" transform="translate(83.789062 0)"/>
      </g>
     </g>
    </g>
    <g id="xtick_3">
     <g id="line2d_3">
      <path d="M 328.158405 386.918125 
L 328.158405 22.318125 
" clip-path="url(#p974565c0ba)" style="fill: none; stroke: #cccccc; stroke-width: 0.8; stroke-linecap: round"/>
     </g>
     <g id="text_3">
      <!-- −4 -->
      <g style="fill: #262626" transform="translate(320.787311 401.516562) scale(0.1 -0.1)">
       <defs>
        <path id="DejaVuSans-34" d="M 2419 4116 
L 825 1625 
L 2419 1625 
L 2419 4116 
z
M 2253 4666 
L 3047 4666 
L 3047 1625 
L 3713 1625 
L 3713 1100 
L 3047 1100 
L 3047 0 
L 2419 0 
L 2419 1100 
L 313 1100 
L 313 1709 
L 2253 4666 
z
" transform="scale(0.015625)"/>
       </defs>
       <use xlink:href="#DejaVuSans-2212"/>
       <use xlink:href="#DejaVuSans-34" transform="translate(83.789062 0)"/>
      </g>
     </g>
    </g>
    <g id="xtick_4">
     <g id="line2d_4">
      <path d="M 347.777106 386.918125 
L 347.777106 22.318125 
" clip-path="url(#p974565c0ba)" style="fill: none; stroke: #cccccc; stroke-width: 0.8; stroke-linecap: round"/>
     </g>
     <g id="text_4">
      <!-- −3 -->
      <g style="fill: #262626" transform="translate(340.406013 401.516562) scale(0.1 -0.1)">
       <defs>
        <path id="DejaVuSans-33" d="M 2597 2516 
Q 3050 2419 3304 2112 
Q 3559 1806 3559 1356 
Q 3559 666 3084 287 
Q 2609 -91 1734 -91 
Q 1441 -91 1130 -33 
Q 819 25 488 141 
L 488 750 
Q 750 597 1062 519 
Q 1375 441 1716 441 
Q 2309 441 2620 675 
Q 2931 909 2931 1356 
Q 2931 1769 2642 2001 
Q 2353 2234 1838 2234 
L 1294 2234 
L 1294 2753 
L 1863 2753 
Q 2328 2753 2575 2939 
Q 2822 3125 2822 3475 
Q 2822 3834 2567 4026 
Q 2313 4219 1838 4219 
Q 1578 4219 1281 4162 
Q 984 4106 628 3988 
L 628 4550 
Q 988 4650 1302 4700 
Q 1616 4750 1894 4750 
Q 2613 4750 3031 4423 
Q 3450 4097 3450 3541 
Q 3450 3153 3228 2886 
Q 3006 2619 2597 2516 
z
" transform="scale(0.015625)"/>
       </defs>
       <use xlink:href="#DejaVuSans-2212"/>
       <use xlink:href="#DejaVuSans-33" transform="translate(83.789062 0)"/>
      </g>
     </g>
    </g>
    <g id="xtick_5">
     <g id="line2d_5">
      <path d="M 367.395808 386.918125 
L 367.395808 22.318125 
" clip-path="url(#p974565c0ba)" style="fill: none; stroke: #cccccc; stroke-width: 0.8; stroke-linecap: round"/>
     </g>
     <g id="text_5">
      <!-- −2 -->
      <g style="fill: #262626" transform="translate(360.024715 401.516562) scale(0.1 -0.1)">
       <defs>
        <path id="DejaVuSans-32" d="M 1228 531 
L 3431 531 
L 3431 0 
L 469 0 
L 469 531 
Q 828 903 1448 1529 
Q 2069 2156 2228 2338 
Q 2531 2678 2651 2914 
Q 2772 3150 2772 3378 
Q 2772 3750 2511 3984 
Q 2250 4219 1831 4219 
Q 1534 4219 1204 4116 
Q 875 4013 500 3803 
L 500 4441 
Q 881 4594 1212 4672 
Q 1544 4750 1819 4750 
Q 2544 4750 2975 4387 
Q 3406 4025 3406 3419 
Q 3406 3131 3298 2873 
Q 3191 2616 2906 2266 
Q 2828 2175 2409 1742 
Q 1991 1309 1228 531 
z
" transform="scale(0.015625)"/>
       </defs>
       <use xlink:href="#DejaVuSans-2212"/>
       <use xlink:href="#DejaVuSans-32" transform="translate(83.789062 0)"/>
      </g>
     </g>
    </g>
    <g id="xtick_6">
     <g id="line2d_6">
      <path d="M 387.01451 386.918125 
L 387.01451 22.318125 
" clip-path="url(#p974565c0ba)" style="fill: none; stroke: #cccccc; stroke-width: 0.8; stroke-linecap: round"/>
     </g>
     <g id="text_6">
      <!-- −1 -->
      <g style="fill: #262626" transform="translate(379.643416 401.516562) scale(0.1 -0.1)">
       <defs>
        <path id="DejaVuSans-31" d="M 794 531 
L 1825 531 
L 1825 4091 
L 703 3866 
L 703 4441 
L 1819 4666 
L 2450 4666 
L 2450 531 
L 3481 531 
L 3481 0 
L 794 0 
L 794 531 
z
" transform="scale(0.015625)"/>
       </defs>
       <use xlink:href="#DejaVuSans-2212"/>
       <use xlink:href="#DejaVuSans-31" transform="translate(83.789062 0)"/>
      </g>
     </g>
    </g>
    <g id="xtick_7">
     <g id="line2d_7">
      <path d="M 406.633212 386.918125 
L 406.633212 22.318125 
" clip-path="url(#p974565c0ba)" style="fill: none; stroke: #cccccc; stroke-width: 0.8; stroke-linecap: round"/>
     </g>
     <g id="text_7">
      <!-- 0 -->
      <g style="fill: #262626" transform="translate(403.451962 401.516562) scale(0.1 -0.1)">
       <defs>
        <path id="DejaVuSans-30" d="M 2034 4250 
Q 1547 4250 1301 3770 
Q 1056 3291 1056 2328 
Q 1056 1369 1301 889 
Q 1547 409 2034 409 
Q 2525 409 2770 889 
Q 3016 1369 3016 2328 
Q 3016 3291 2770 3770 
Q 2525 4250 2034 4250 
z
M 2034 4750 
Q 2819 4750 3233 4129 
Q 3647 3509 3647 2328 
Q 3647 1150 3233 529 
Q 2819 -91 2034 -91 
Q 1250 -91 836 529 
Q 422 1150 422 2328 
Q 422 3509 836 4129 
Q 1250 4750 2034 4750 
z
" transform="scale(0.015625)"/>
       </defs>
       <use xlink:href="#DejaVuSans-30"/>
      </g>
     </g>
    </g>
    <g id="xtick_8">
     <g id="line2d_8">
      <path d="M 426.251914 386.918125 
L 426.251914 22.318125 
" clip-path="url(#p974565c0ba)" style="fill: none; stroke: #cccccc; stroke-width: 0.8; stroke-linecap: round"/>
     </g>
     <g id="text_8">
      <!-- 1 -->
      <g style="fill: #262626" transform="translate(423.070664 401.516562) scale(0.1 -0.1)">
       <use xlink:href="#DejaVuSans-31"/>
      </g>
     </g>
    </g>
    <g id="xtick_9">
     <g id="line2d_9">
      <path d="M 445.870616 386.918125 
L 445.870616 22.318125 
" clip-path="url(#p974565c0ba)" style="fill: none; stroke: #cccccc; stroke-width: 0.8; stroke-linecap: round"/>
     </g>
     <g id="text_9">
      <!-- 2 -->
      <g style="fill: #262626" transform="translate(442.689366 401.516562) scale(0.1 -0.1)">
       <use xlink:href="#DejaVuSans-32"/>
      </g>
     </g>
    </g>
    <g id="xtick_10">
     <g id="line2d_10">
      <path d="M 465.489317 386.918125 
L 465.489317 22.318125 
" clip-path="url(#p974565c0ba)" style="fill: none; stroke: #cccccc; stroke-width: 0.8; stroke-linecap: round"/>
     </g>
     <g id="text_10">
      <!-- 3 -->
      <g style="fill: #262626" transform="translate(462.308067 401.516562) scale(0.1 -0.1)">
       <use xlink:href="#DejaVuSans-33"/>
      </g>
     </g>
    </g>
    <g id="xtick_11">
     <g id="line2d_11">
      <path d="M 485.108019 386.918125 
L 485.108019 22.318125 
" clip-path="url(#p974565c0ba)" style="fill: none; stroke: #cccccc; stroke-width: 0.8; stroke-linecap: round"/>
     </g>
     <g id="text_11">
      <!-- 4 -->
      <g style="fill: #262626" transform="translate(481.926769 401.516562) scale(0.1 -0.1)">
       <use xlink:href="#DejaVuSans-34"/>
      </g>
     </g>
    </g>
    <g id="xtick_12">
     <g id="line2d_12">
      <path d="M 504.726721 386.918125 
L 504.726721 22.318125 
" clip-path="url(#p974565c0ba)" style="fill: none; stroke: #cccccc; stroke-width: 0.8; stroke-linecap: round"/>
     </g>
     <g id="text_12">
      <!-- 5 -->
      <g style="fill: #262626" transform="translate(501.545471 401.516562) scale(0.1 -0.1)">
       <use xlink:href="#DejaVuSans-35"/>
      </g>
     </g>
    </g>
    <g id="xtick_13">
     <g id="line2d_13">
      <path d="M 524.345423 386.918125 
L 524.345423 22.318125 
" clip-path="url(#p974565c0ba)" style="fill: none; stroke: #cccccc; stroke-width: 0.8; stroke-linecap: round"/>
     </g>
     <g id="text_13">
      <!-- 6 -->
      <g style="fill: #262626" transform="translate(521.164173 401.516562) scale(0.1 -0.1)">
       <use xlink:href="#DejaVuSans-36"/>
      </g>
     </g>
    </g>
    <g id="text_14">
     <!-- Hours from Sunset -->
     <g style="fill: #262626" transform="translate(252.195625 415.194687) scale(0.1 -0.1)">
      <defs>
       <path id="DejaVuSans-48" d="M 628 4666 
L 1259 4666 
L 1259 2753 
L 3553 2753 
L 3553 4666 
L 4184 4666 
L 4184 0 
L 3553 0 
L 3553 2222 
L 1259 2222 
L 1259 0 
L 628 0 
L 628 4666 
z
" transform="scale(0.015625)"/>
       <path id="DejaVuSans-6f" d="M 1959 3097 
Q 1497 3097 1228 2736 
Q 959 2375 959 1747 
Q 959 1119 1226 758 
Q 1494 397 1959 397 
Q 2419 397 2687 759 
Q 2956 1122 2956 1747 
Q 2956 2369 2687 2733 
Q 2419 3097 1959 3097 
z
M 1959 3584 
Q 2709 3584 3137 3096 
Q 3566 2609 3566 1747 
Q 3566 888 3137 398 
Q 2709 -91 1959 -91 
Q 1206 -91 779 398 
Q 353 888 353 1747 
Q 353 2609 779 3096 
Q 1206 3584 1959 3584 
z
" transform="scale(0.015625)"/>
       <path id="DejaVuSans-75" d="M 544 1381 
L 544 3500 
L 1119 3500 
L 1119 1403 
Q 1119 906 1312 657 
Q 1506 409 1894 409 
Q 2359 409 2629 706 
Q 2900 1003 2900 1516 
L 2900 3500 
L 3475 3500 
L 3475 0 
L 2900 0 
L 2900 538 
Q 2691 219 2414 64 
Q 2138 -91 1772 -91 
Q 1169 -91 856 284 
Q 544 659 544 1381 
z
M 1991 3584 
L 1991 3584 
z
" transform="scale(0.015625)"/>
       <path id="DejaVuSans-72" d="M 2631 2963 
Q 2534 3019 2420 3045 
Q 2306 3072 2169 3072 
Q 1681 3072 1420 2755 
Q 1159 2438 1159 1844 
L 1159 0 
L 581 0 
L 581 3500 
L 1159 3500 
L 1159 2956 
Q 1341 3275 1631 3429 
Q 1922 3584 2338 3584 
Q 2397 3584 2469 3576 
Q 2541 3569 2628 3553 
L 2631 2963 
z
" transform="scale(0.015625)"/>
       <path id="DejaVuSans-73" d="M 2834 3397 
L 2834 2853 
Q 2591 2978 2328 3040 
Q 2066 3103 1784 3103 
Q 1356 3103 1142 2972 
Q 928 2841 928 2578 
Q 928 2378 1081 2264 
Q 1234 2150 1697 2047 
L 1894 2003 
Q 2506 1872 2764 1633 
Q 3022 1394 3022 966 
Q 3022 478 2636 193 
Q 2250 -91 1575 -91 
Q 1294 -91 989 -36 
Q 684 19 347 128 
L 347 722 
Q 666 556 975 473 
Q 1284 391 1588 391 
Q 1994 391 2212 530 
Q 2431 669 2431 922 
Q 2431 1156 2273 1281 
Q 2116 1406 1581 1522 
L 1381 1569 
Q 847 1681 609 1914 
Q 372 2147 372 2553 
Q 372 3047 722 3315 
Q 1072 3584 1716 3584 
Q 2034 3584 2315 3537 
Q 2597 3491 2834 3397 
z
" transform="scale(0.015625)"/>
       <path id="DejaVuSans-20" transform="scale(0.015625)"/>
       <path id="DejaVuSans-66" d="M 2375 4863 
L 2375 4384 
L 1825 4384 
Q 1516 4384 1395 4259 
Q 1275 4134 1275 3809 
L 1275 3500 
L 2222 3500 
L 2222 3053 
L 1275 3053 
L 1275 0 
L 697 0 
L 697 3053 
L 147 3053 
L 147 3500 
L 697 3500 
L 697 3744 
Q 697 4328 969 4595 
Q 1241 4863 1831 4863 
L 2375 4863 
z
" transform="scale(0.015625)"/>
       <path id="DejaVuSans-6d" d="M 3328 2828 
Q 3544 3216 3844 3400 
Q 4144 3584 4550 3584 
Q 5097 3584 5394 3201 
Q 5691 2819 5691 2113 
L 5691 0 
L 5113 0 
L 5113 2094 
Q 5113 2597 4934 2840 
Q 4756 3084 4391 3084 
Q 3944 3084 3684 2787 
Q 3425 2491 3425 1978 
L 3425 0 
L 2847 0 
L 2847 2094 
Q 2847 2600 2669 2842 
Q 2491 3084 2119 3084 
Q 1678 3084 1418 2786 
Q 1159 2488 1159 1978 
L 1159 0 
L 581 0 
L 581 3500 
L 1159 3500 
L 1159 2956 
Q 1356 3278 1631 3431 
Q 1906 3584 2284 3584 
Q 2666 3584 2933 3390 
Q 3200 3197 3328 2828 
z
" transform="scale(0.015625)"/>
       <path id="DejaVuSans-53" d="M 3425 4513 
L 3425 3897 
Q 3066 4069 2747 4153 
Q 2428 4238 2131 4238 
Q 1616 4238 1336 4038 
Q 1056 3838 1056 3469 
Q 1056 3159 1242 3001 
Q 1428 2844 1947 2747 
L 2328 2669 
Q 3034 2534 3370 2195 
Q 3706 1856 3706 1288 
Q 3706 609 3251 259 
Q 2797 -91 1919 -91 
Q 1588 -91 1214 -16 
Q 841 59 441 206 
L 441 856 
Q 825 641 1194 531 
Q 1563 422 1919 422 
Q 2459 422 2753 634 
Q 3047 847 3047 1241 
Q 3047 1584 2836 1778 
Q 2625 1972 2144 2069 
L 1759 2144 
Q 1053 2284 737 2584 
Q 422 2884 422 3419 
Q 422 4038 858 4394 
Q 1294 4750 2059 4750 
Q 2388 4750 2728 4690 
Q 3069 4631 3425 4513 
z
" transform="scale(0.015625)"/>
       <path id="DejaVuSans-6e" d="M 3513 2113 
L 3513 0 
L 2938 0 
L 2938 2094 
Q 2938 2591 2744 2837 
Q 2550 3084 2163 3084 
Q 1697 3084 1428 2787 
Q 1159 2491 1159 1978 
L 1159 0 
L 581 0 
L 581 3500 
L 1159 3500 
L 1159 2956 
Q 1366 3272 1645 3428 
Q 1925 3584 2291 3584 
Q 2894 3584 3203 3211 
Q 3513 2838 3513 2113 
z
" transform="scale(0.015625)"/>
       <path id="DejaVuSans-65" d="M 3597 1894 
L 3597 1613 
L 953 1613 
Q 991 1019 1311 708 
Q 1631 397 2203 397 
Q 2534 397 2845 478 
Q 3156 559 3463 722 
L 3463 178 
Q 3153 47 2828 -22 
Q 2503 -91 2169 -91 
Q 1331 -91 842 396 
Q 353 884 353 1716 
Q 353 2575 817 3079 
Q 1281 3584 2069 3584 
Q 2775 3584 3186 3129 
Q 3597 2675 3597 1894 
z
M 3022 2063 
Q 3016 2534 2758 2815 
Q 2500 3097 2075 3097 
Q 1594 3097 1305 2825 
Q 1016 2553 972 2059 
L 3022 2063 
z
" transform="scale(0.015625)"/>
       <path id="DejaVuSans-74" d="M 1172 4494 
L 1172 3500 
L 2356 3500 
L 2356 3053 
L 1172 3053 
L 1172 1153 
Q 1172 725 1289 603 
Q 1406 481 1766 481 
L 2356 481 
L 2356 0 
L 1766 0 
Q 1100 0 847 248 
Q 594 497 594 1153 
L 594 3053 
L 172 3053 
L 172 3500 
L 594 3500 
L 594 4494 
L 1172 4494 
z
" transform="scale(0.015625)"/>
      </defs>
      <use xlink:href="#DejaVuSans-48"/>
      <use xlink:href="#DejaVuSans-6f" transform="translate(75.195312 0)"/>
      <use xlink:href="#DejaVuSans-75" transform="translate(136.376953 0)"/>
      <use xlink:href="#DejaVuSans-72" transform="translate(199.755859 0)"/>
      <use xlink:href="#DejaVuSans-73" transform="translate(240.869141 0)"/>
      <use xlink:href="#DejaVuSans-20" transform="translate(292.96875 0)"/>
      <use xlink:href="#DejaVuSans-66" transform="translate(324.755859 0)"/>
      <use xlink:href="#DejaVuSans-72" transform="translate(359.960938 0)"/>
      <use xlink:href="#DejaVuSans-6f" transform="translate(398.824219 0)"/>
      <use xlink:href="#DejaVuSans-6d" transform="translate(460.005859 0)"/>
      <use xlink:href="#DejaVuSans-20" transform="translate(557.417969 0)"/>
      <use xlink:href="#DejaVuSans-53" transform="translate(589.205078 0)"/>
      <use xlink:href="#DejaVuSans-75" transform="translate(652.681641 0)"/>
      <use xlink:href="#DejaVuSans-6e" transform="translate(716.060547 0)"/>
      <use xlink:href="#DejaVuSans-73" transform="translate(779.439453 0)"/>
      <use xlink:href="#DejaVuSans-65" transform="translate(831.539062 0)"/>
      <use xlink:href="#DejaVuSans-74" transform="translate(893.0625 0)"/>
     </g>
    </g>
   </g>
   <g id="matplotlib.axis_2">
    <g id="ytick_1">
     <g id="line2d_14">
      <path d="M 34.240625 386.918125 
L 563.375625 386.918125 
" clip-path="url(#p974565c0ba)" style="fill: none; stroke: #cccccc; stroke-opacity: 0.3; stroke-width: 0.8; stroke-linecap: round"/>
     </g>
     <g id="text_15">
      <!-- 0 -->
      <g style="fill: #262626" transform="translate(20.878125 390.717344) scale(0.1 -0.1)">
       <use xlink:href="#DejaVuSans-30"/>
      </g>
     </g>
    </g>
    <g id="ytick_2">
     <g id="line2d_15">
      <path d="M 34.240625 329.045109 
L 563.375625 329.045109 
" clip-path="url(#p974565c0ba)" style="fill: none; stroke: #cccccc; stroke-opacity: 0.3; stroke-width: 0.8; stroke-linecap: round"/>
     </g>
     <g id="text_16">
      <!-- 1 -->
      <g style="fill: #262626" transform="translate(20.878125 332.844328) scale(0.1 -0.1)">
       <use xlink:href="#DejaVuSans-31"/>
      </g>
     </g>
    </g>
    <g id="ytick_3">
     <g id="line2d_16">
      <path d="M 34.240625 271.172093 
L 563.375625 271.172093 
" clip-path="url(#p974565c0ba)" style="fill: none; stroke: #cccccc; stroke-opacity: 0.3; stroke-width: 0.8; stroke-linecap: round"/>
     </g>
     <g id="text_17">
      <!-- 2 -->
      <g style="fill: #262626" transform="translate(20.878125 274.971312) scale(0.1 -0.1)">
       <use xlink:href="#DejaVuSans-32"/>
      </g>
     </g>
    </g>
    <g id="ytick_4">
     <g id="line2d_17">
      <path d="M 34.240625 213.299077 
L 563.375625 213.299077 
" clip-path="url(#p974565c0ba)" style="fill: none; stroke: #cccccc; stroke-opacity: 0.3; stroke-width: 0.8; stroke-linecap: round"/>
     </g>
     <g id="text_18">
      <!-- 3 -->
      <g style="fill: #262626" transform="translate(20.878125 217.098296) scale(0.1 -0.1)">
       <use xlink:href="#DejaVuSans-33"/>
      </g>
     </g>
    </g>
    <g id="ytick_5">
     <g id="line2d_18">
      <path d="M 34.240625 155.426062 
L 563.375625 155.426062 
" clip-path="url(#p974565c0ba)" style="fill: none; stroke: #cccccc; stroke-opacity: 0.3; stroke-width: 0.8; stroke-linecap: round"/>
     </g>
     <g id="text_19">
      <!-- 4 -->
      <g style="fill: #262626" transform="translate(20.878125 159.22528) scale(0.1 -0.1)">
       <use xlink:href="#DejaVuSans-34"/>
      </g>
     </g>
    </g>
    <g id="ytick_6">
     <g id="line2d_19">
      <path d="M 34.240625 97.553046 
L 563.375625 97.553046 
" clip-path="url(#p974565c0ba)" style="fill: none; stroke: #cccccc; stroke-opacity: 0.3; stroke-width: 0.8; stroke-linecap: round"/>
     </g>
     <g id="text_20">
      <!-- 5 -->
      <g style="fill: #262626" transform="translate(20.878125 101.352264) scale(0.1 -0.1)">
       <use xlink:href="#DejaVuSans-35"/>
      </g>
     </g>
    </g>
    <g id="ytick_7">
     <g id="line2d_20">
      <path d="M 34.240625 39.68003 
L 563.375625 39.68003 
" clip-path="url(#p974565c0ba)" style="fill: none; stroke: #cccccc; stroke-opacity: 0.3; stroke-width: 0.8; stroke-linecap: round"/>
     </g>
     <g id="text_21">
      <!-- 6 -->
      <g style="fill: #262626" transform="translate(20.878125 43.479249) scale(0.1 -0.1)">
       <use xlink:href="#DejaVuSans-36"/>
      </g>
     </g>
    </g>
    <g id="text_22">
     <!-- Number of Sightings -->
     <g style="fill: #262626" transform="translate(14.798438 255.904844) rotate(-90) scale(0.1 -0.1)">
      <defs>
       <path id="DejaVuSans-4e" d="M 628 4666 
L 1478 4666 
L 3547 763 
L 3547 4666 
L 4159 4666 
L 4159 0 
L 3309 0 
L 1241 3903 
L 1241 0 
L 628 0 
L 628 4666 
z
" transform="scale(0.015625)"/>
       <path id="DejaVuSans-62" d="M 3116 1747 
Q 3116 2381 2855 2742 
Q 2594 3103 2138 3103 
Q 1681 3103 1420 2742 
Q 1159 2381 1159 1747 
Q 1159 1113 1420 752 
Q 1681 391 2138 391 
Q 2594 391 2855 752 
Q 3116 1113 3116 1747 
z
M 1159 2969 
Q 1341 3281 1617 3432 
Q 1894 3584 2278 3584 
Q 2916 3584 3314 3078 
Q 3713 2572 3713 1747 
Q 3713 922 3314 415 
Q 2916 -91 2278 -91 
Q 1894 -91 1617 61 
Q 1341 213 1159 525 
L 1159 0 
L 581 0 
L 581 4863 
L 1159 4863 
L 1159 2969 
z
" transform="scale(0.015625)"/>
       <path id="DejaVuSans-69" d="M 603 3500 
L 1178 3500 
L 1178 0 
L 603 0 
L 603 3500 
z
M 603 4863 
L 1178 4863 
L 1178 4134 
L 603 4134 
L 603 4863 
z
" transform="scale(0.015625)"/>
       <path id="DejaVuSans-67" d="M 2906 1791 
Q 2906 2416 2648 2759 
Q 2391 3103 1925 3103 
Q 1463 3103 1205 2759 
Q 947 2416 947 1791 
Q 947 1169 1205 825 
Q 1463 481 1925 481 
Q 2391 481 2648 825 
Q 2906 1169 2906 1791 
z
M 3481 434 
Q 3481 -459 3084 -895 
Q 2688 -1331 1869 -1331 
Q 1566 -1331 1297 -1286 
Q 1028 -1241 775 -1147 
L 775 -588 
Q 1028 -725 1275 -790 
Q 1522 -856 1778 -856 
Q 2344 -856 2625 -561 
Q 2906 -266 2906 331 
L 2906 616 
Q 2728 306 2450 153 
Q 2172 0 1784 0 
Q 1141 0 747 490 
Q 353 981 353 1791 
Q 353 2603 747 3093 
Q 1141 3584 1784 3584 
Q 2172 3584 2450 3431 
Q 2728 3278 2906 2969 
L 2906 3500 
L 3481 3500 
L 3481 434 
z
" transform="scale(0.015625)"/>
       <path id="DejaVuSans-68" d="M 3513 2113 
L 3513 0 
L 2938 0 
L 2938 2094 
Q 2938 2591 2744 2837 
Q 2550 3084 2163 3084 
Q 1697 3084 1428 2787 
Q 1159 2491 1159 1978 
L 1159 0 
L 581 0 
L 581 4863 
L 1159 4863 
L 1159 2956 
Q 1366 3272 1645 3428 
Q 1925 3584 2291 3584 
Q 2894 3584 3203 3211 
Q 3513 2838 3513 2113 
z
" transform="scale(0.015625)"/>
      </defs>
      <use xlink:href="#DejaVuSans-4e"/>
      <use xlink:href="#DejaVuSans-75" transform="translate(74.804688 0)"/>
      <use xlink:href="#DejaVuSans-6d" transform="translate(138.183594 0)"/>
      <use xlink:href="#DejaVuSans-62" transform="translate(235.595703 0)"/>
      <use xlink:href="#DejaVuSans-65" transform="translate(299.072266 0)"/>
      <use xlink:href="#DejaVuSans-72" transform="translate(360.595703 0)"/>
      <use xlink:href="#DejaVuSans-20" transform="translate(401.708984 0)"/>
      <use xlink:href="#DejaVuSans-6f" transform="translate(433.496094 0)"/>
      <use xlink:href="#DejaVuSans-66" transform="translate(494.677734 0)"/>
      <use xlink:href="#DejaVuSans-20" transform="translate(529.882812 0)"/>
      <use xlink:href="#DejaVuSans-53" transform="translate(561.669922 0)"/>
      <use xlink:href="#DejaVuSans-69" transform="translate(625.146484 0)"/>
      <use xlink:href="#DejaVuSans-67" transform="translate(652.929688 0)"/>
      <use xlink:href="#DejaVuSans-68" transform="translate(716.40625 0)"/>
      <use xlink:href="#DejaVuSans-74" transform="translate(779.785156 0)"/>
      <use xlink:href="#DejaVuSans-69" transform="translate(818.994141 0)"/>
      <use xlink:href="#DejaVuSans-6e" transform="translate(846.777344 0)"/>
      <use xlink:href="#DejaVuSans-67" transform="translate(910.15625 0)"/>
      <use xlink:href="#DejaVuSans-73" transform="translate(973.632812 0)"/>
     </g>
    </g>
   </g>
   <g id="patch_3">
    <path d="M 58.292216 386.918125 
L 67.912852 386.918125 
L 67.912852 271.172093 
L 58.292216 271.172093 
z
" clip-path="url(#p974565c0ba)" style="fill: #4682b4; opacity: 0.7; stroke: #000000; stroke-linejoin: miter"/>
   </g>
   <g id="patch_4">
    <path d="M 67.912852 386.918125 
L 77.533489 386.918125 
L 77.533489 271.172093 
L 67.912852 271.172093 
z
" clip-path="url(#p974565c0ba)" style="fill: #4682b4; opacity: 0.7; stroke: #000000; stroke-linejoin: miter"/>
   </g>
   <g id="patch_5">
    <path d="M 77.533489 386.918125 
L 87.154125 386.918125 
L 87.154125 271.172093 
L 77.533489 271.172093 
z
" clip-path="url(#p974565c0ba)" style="fill: #4682b4; opacity: 0.7; stroke: #000000; stroke-linejoin: miter"/>
   </g>
   <g id="patch_6">
    <path d="M 87.154125 386.918125 
L 96.774761 386.918125 
L 96.774761 271.172093 
L 87.154125 271.172093 
z
" clip-path="url(#p974565c0ba)" style="fill: #4682b4; opacity: 0.7; stroke: #000000; stroke-linejoin: miter"/>
   </g>
   <g id="patch_7">
    <path d="M 96.774761 386.918125 
L 106.395398 386.918125 
L 106.395398 329.045109 
L 96.774761 329.045109 
z
" clip-path="url(#p974565c0ba)" style="fill: #4682b4; opacity: 0.7; stroke: #000000; stroke-linejoin: miter"/>
   </g>
   <g id="patch_8">
    <path d="M 106.395398 386.918125 
L 116.016034 386.918125 
L 116.016034 386.918125 
L 106.395398 386.918125 
z
" clip-path="url(#p974565c0ba)" style="fill: #4682b4; opacity: 0.7; stroke: #000000; stroke-linejoin: miter"/>
   </g>
   <g id="patch_9">
    <path d="M 116.016034 386.918125 
L 125.63667 386.918125 
L 125.63667 213.299077 
L 116.016034 213.299077 
z
" clip-path="url(#p974565c0ba)" style="fill: #4682b4; opacity: 0.7; stroke: #000000; stroke-linejoin: miter"/>
   </g>
   <g id="patch_10">
    <path d="M 125.63667 386.918125 
L 135.257307 386.918125 
L 135.257307 39.68003 
L 125.63667 39.68003 
z
" clip-path="url(#p974565c0ba)" style="fill: #4682b4; opacity: 0.7; stroke: #000000; stroke-linejoin: miter"/>
   </g>
   <g id="patch_11">
    <path d="M 135.257307 386.918125 
L 144.877943 386.918125 
L 144.877943 329.045109 
L 135.257307 329.045109 
z
" clip-path="url(#p974565c0ba)" style="fill: #4682b4; opacity: 0.7; stroke: #000000; stroke-linejoin: miter"/>
   </g>
   <g id="patch_12">
    <path d="M 144.877943 386.918125 
L 154.49858 386.918125 
L 154.49858 386.918125 
L 144.877943 386.918125 
z
" clip-path="url(#p974565c0ba)" style="fill: #4682b4; opacity: 0.7; stroke: #000000; stroke-linejoin: miter"/>
   </g>
   <g id="patch_13">
    <path d="M 154.49858 386.918125 
L 164.119216 386.918125 
L 164.119216 213.299077 
L 154.49858 213.299077 
z
" clip-path="url(#p974565c0ba)" style="fill: #4682b4; opacity: 0.7; stroke: #000000; stroke-linejoin: miter"/>
   </g>
   <g id="patch_14">
    <path d="M 164.119216 386.918125 
L 173.739852 386.918125 
L 173.739852 39.68003 
L 164.119216 39.68003 
z
" clip-path="url(#p974565c0ba)" style="fill: #4682b4; opacity: 0.7; stroke: #000000; stroke-linejoin: miter"/>
   </g>
   <g id="patch_15">
    <path d="M 173.739852 386.918125 
L 183.360489 386.918125 
L 183.360489 213.299077 
L 173.739852 213.299077 
z
" clip-path="url(#p974565c0ba)" style="fill: #4682b4; opacity: 0.7; stroke: #000000; stroke-linejoin: miter"/>
   </g>
   <g id="patch_16">
    <path d="M 183.360489 386.918125 
L 192.981125 386.918125 
L 192.981125 271.172093 
L 183.360489 271.172093 
z
" clip-path="url(#p974565c0ba)" style="fill: #4682b4; opacity: 0.7; stroke: #000000; stroke-linejoin: miter"/>
   </g>
   <g id="patch_17">
    <path d="M 192.981125 386.918125 
L 202.601761 386.918125 
L 202.601761 155.426062 
L 192.981125 155.426062 
z
" clip-path="url(#p974565c0ba)" style="fill: #4682b4; opacity: 0.7; stroke: #000000; stroke-linejoin: miter"/>
   </g>
   <g id="patch_18">
    <path d="M 202.601761 386.918125 
L 212.222398 386.918125 
L 212.222398 386.918125 
L 202.601761 386.918125 
z
" clip-path="url(#p974565c0ba)" style="fill: #4682b4; opacity: 0.7; stroke: #000000; stroke-linejoin: miter"/>
   </g>
   <g id="patch_19">
    <path d="M 212.222398 386.918125 
L 221.843034 386.918125 
L 221.843034 386.918125 
L 212.222398 386.918125 
z
" clip-path="url(#p974565c0ba)" style="fill: #4682b4; opacity: 0.7; stroke: #000000; stroke-linejoin: miter"/>
   </g>
   <g id="patch_20">
    <path d="M 221.843034 386.918125 
L 231.46367 386.918125 
L 231.46367 271.172093 
L 221.843034 271.172093 
z
" clip-path="url(#p974565c0ba)" style="fill: #4682b4; opacity: 0.7; stroke: #000000; stroke-linejoin: miter"/>
   </g>
   <g id="patch_21">
    <path d="M 231.46367 386.918125 
L 241.084307 386.918125 
L 241.084307 213.299077 
L 231.46367 213.299077 
z
" clip-path="url(#p974565c0ba)" style="fill: #4682b4; opacity: 0.7; stroke: #000000; stroke-linejoin: miter"/>
   </g>
   <g id="patch_22">
    <path d="M 241.084307 386.918125 
L 250.704943 386.918125 
L 250.704943 329.045109 
L 241.084307 329.045109 
z
" clip-path="url(#p974565c0ba)" style="fill: #4682b4; opacity: 0.7; stroke: #000000; stroke-linejoin: miter"/>
   </g>
   <g id="patch_23">
    <path d="M 250.704943 386.918125 
L 260.32558 386.918125 
L 260.32558 386.918125 
L 250.704943 386.918125 
z
" clip-path="url(#p974565c0ba)" style="fill: #4682b4; opacity: 0.7; stroke: #000000; stroke-linejoin: miter"/>
   </g>
   <g id="patch_24">
    <path d="M 260.32558 386.918125 
L 269.946216 386.918125 
L 269.946216 386.918125 
L 260.32558 386.918125 
z
" clip-path="url(#p974565c0ba)" style="fill: #4682b4; opacity: 0.7; stroke: #000000; stroke-linejoin: miter"/>
   </g>
   <g id="patch_25">
    <path d="M 269.946216 386.918125 
L 279.566852 386.918125 
L 279.566852 329.045109 
L 269.946216 329.045109 
z
" clip-path="url(#p974565c0ba)" style="fill: #4682b4; opacity: 0.7; stroke: #000000; stroke-linejoin: miter"/>
   </g>
   <g id="patch_26">
    <path d="M 279.566852 386.918125 
L 289.187489 386.918125 
L 289.187489 386.918125 
L 279.566852 386.918125 
z
" clip-path="url(#p974565c0ba)" style="fill: #4682b4; opacity: 0.7; stroke: #000000; stroke-linejoin: miter"/>
   </g>
   <g id="patch_27">
    <path d="M 289.187489 386.918125 
L 298.808125 386.918125 
L 298.808125 329.045109 
L 289.187489 329.045109 
z
" clip-path="url(#p974565c0ba)" style="fill: #4682b4; opacity: 0.7; stroke: #000000; stroke-linejoin: miter"/>
   </g>
   <g id="patch_28">
    <path d="M 298.808125 386.918125 
L 308.428761 386.918125 
L 308.428761 155.426062 
L 298.808125 155.426062 
z
" clip-path="url(#p974565c0ba)" style="fill: #4682b4; opacity: 0.7; stroke: #000000; stroke-linejoin: miter"/>
   </g>
   <g id="patch_29">
    <path d="M 308.428761 386.918125 
L 318.049398 386.918125 
L 318.049398 386.918125 
L 308.428761 386.918125 
z
" clip-path="url(#p974565c0ba)" style="fill: #4682b4; opacity: 0.7; stroke: #000000; stroke-linejoin: miter"/>
   </g>
   <g id="patch_30">
    <path d="M 318.049398 386.918125 
L 327.670034 386.918125 
L 327.670034 386.918125 
L 318.049398 386.918125 
z
" clip-path="url(#p974565c0ba)" style="fill: #4682b4; opacity: 0.7; stroke: #000000; stroke-linejoin: miter"/>
   </g>
   <g id="patch_31">
    <path d="M 327.670034 386.918125 
L 337.29067 386.918125 
L 337.29067 386.918125 
L 327.670034 386.918125 
z
" clip-path="url(#p974565c0ba)" style="fill: #4682b4; opacity: 0.7; stroke: #000000; stroke-linejoin: miter"/>
   </g>
   <g id="patch_32">
    <path d="M 337.29067 386.918125 
L 346.911307 386.918125 
L 346.911307 329.045109 
L 337.29067 329.045109 
z
" clip-path="url(#p974565c0ba)" style="fill: #4682b4; opacity: 0.7; stroke: #000000; stroke-linejoin: miter"/>
   </g>
   <g id="patch_33">
    <path d="M 346.911307 386.918125 
L 356.531943 386.918125 
L 356.531943 386.918125 
L 346.911307 386.918125 
z
" clip-path="url(#p974565c0ba)" style="fill: #4682b4; opacity: 0.7; stroke: #000000; stroke-linejoin: miter"/>
   </g>
   <g id="patch_34">
    <path d="M 356.531943 386.918125 
L 366.15258 386.918125 
L 366.15258 329.045109 
L 356.531943 329.045109 
z
" clip-path="url(#p974565c0ba)" style="fill: #4682b4; opacity: 0.7; stroke: #000000; stroke-linejoin: miter"/>
   </g>
   <g id="patch_35">
    <path d="M 366.15258 386.918125 
L 375.773216 386.918125 
L 375.773216 386.918125 
L 366.15258 386.918125 
z
" clip-path="url(#p974565c0ba)" style="fill: #4682b4; opacity: 0.7; stroke: #000000; stroke-linejoin: miter"/>
   </g>
   <g id="patch_36">
    <path d="M 375.773216 386.918125 
L 385.393852 386.918125 
L 385.393852 386.918125 
L 375.773216 386.918125 
z
" clip-path="url(#p974565c0ba)" style="fill: #4682b4; opacity: 0.7; stroke: #000000; stroke-linejoin: miter"/>
   </g>
   <g id="patch_37">
    <path d="M 385.393852 386.918125 
L 395.014489 386.918125 
L 395.014489 386.918125 
L 385.393852 386.918125 
z
" clip-path="url(#p974565c0ba)" style="fill: #4682b4; opacity: 0.7; stroke: #000000; stroke-linejoin: miter"/>
   </g>
   <g id="patch_38">
    <path d="M 395.014489 386.918125 
L 404.635125 386.918125 
L 404.635125 329.045109 
L 395.014489 329.045109 
z
" clip-path="url(#p974565c0ba)" style="fill: #4682b4; opacity: 0.7; stroke: #000000; stroke-linejoin: miter"/>
   </g>
   <g id="patch_39">
    <path d="M 404.635125 386.918125 
L 414.255761 386.918125 
L 414.255761 329.045109 
L 404.635125 329.045109 
z
" clip-path="url(#p974565c0ba)" style="fill: #4682b4; opacity: 0.7; stroke: #000000; stroke-linejoin: miter"/>
   </g>
   <g id="patch_40">
    <path d="M 414.255761 386.918125 
L 423.876398 386.918125 
L 423.876398 386.918125 
L 414.255761 386.918125 
z
" clip-path="url(#p974565c0ba)" style="fill: #4682b4; opacity: 0.7; stroke: #000000; stroke-linejoin: miter"/>
   </g>
   <g id="patch_41">
    <path d="M 423.876398 386.918125 
L 433.497034 386.918125 
L 433.497034 271.172093 
L 423.876398 271.172093 
z
" clip-path="url(#p974565c0ba)" style="fill: #4682b4; opacity: 0.7; stroke: #000000; stroke-linejoin: miter"/>
   </g>
   <g id="patch_42">
    <path d="M 433.497034 386.918125 
L 443.11767 386.918125 
L 443.11767 386.918125 
L 433.497034 386.918125 
z
" clip-path="url(#p974565c0ba)" style="fill: #4682b4; opacity: 0.7; stroke: #000000; stroke-linejoin: miter"/>
   </g>
   <g id="patch_43">
    <path d="M 443.11767 386.918125 
L 452.738307 386.918125 
L 452.738307 155.426062 
L 443.11767 155.426062 
z
" clip-path="url(#p974565c0ba)" style="fill: #4682b4; opacity: 0.7; stroke: #000000; stroke-linejoin: miter"/>
   </g>
   <g id="patch_44">
    <path d="M 452.738307 386.918125 
L 462.358943 386.918125 
L 462.358943 329.045109 
L 452.738307 329.045109 
z
" clip-path="url(#p974565c0ba)" style="fill: #4682b4; opacity: 0.7; stroke: #000000; stroke-linejoin: miter"/>
   </g>
   <g id="patch_45">
    <path d="M 462.358943 386.918125 
L 471.97958 386.918125 
L 471.97958 97.553046 
L 462.358943 97.553046 
z
" clip-path="url(#p974565c0ba)" style="fill: #4682b4; opacity: 0.7; stroke: #000000; stroke-linejoin: miter"/>
   </g>
   <g id="patch_46">
    <path d="M 471.97958 386.918125 
L 481.600216 386.918125 
L 481.600216 271.172093 
L 471.97958 271.172093 
z
" clip-path="url(#p974565c0ba)" style="fill: #4682b4; opacity: 0.7; stroke: #000000; stroke-linejoin: miter"/>
   </g>
   <g id="patch_47">
    <path d="M 481.600216 386.918125 
L 491.220852 386.918125 
L 491.220852 329.045109 
L 481.600216 329.045109 
z
" clip-path="url(#p974565c0ba)" style="fill: #4682b4; opacity: 0.7; stroke: #000000; stroke-linejoin: miter"/>
   </g>
   <g id="patch_48">
    <path d="M 491.220852 386.918125 
L 500.841489 386.918125 
L 500.841489 329.045109 
L 491.220852 329.045109 
z
" clip-path="url(#p974565c0ba)" style="fill: #4682b4; opacity: 0.7; stroke: #000000; stroke-linejoin: miter"/>
   </g>
   <g id="patch_49">
    <path d="M 500.841489 386.918125 
L 510.462125 386.918125 
L 510.462125 329.045109 
L 500.841489 329.045109 
z
" clip-path="url(#p974565c0ba)" style="fill: #4682b4; opacity: 0.7; stroke: #000000; stroke-linejoin: miter"/>
   </g>
   <g id="patch_50">
    <path d="M 510.462125 386.918125 
L 520.082761 386.918125 
L 520.082761 329.045109 
L 510.462125 329.045109 
z
" clip-path="url(#p974565c0ba)" style="fill: #4682b4; opacity: 0.7; stroke: #000000; stroke-linejoin: miter"/>
   </g>
   <g id="patch_51">
    <path d="M 520.082761 386.918125 
L 529.703398 386.918125 
L 529.703398 386.918125 
L 520.082761 386.918125 
z
" clip-path="url(#p974565c0ba)" style="fill: #4682b4; opacity: 0.7; stroke: #000000; stroke-linejoin: miter"/>
   </g>
   <g id="patch_52">
    <path d="M 529.703398 386.918125 
L 539.324034 386.918125 
L 539.324034 329.045109 
L 529.703398 329.045109 
z
" clip-path="url(#p974565c0ba)" style="fill: #4682b4; opacity: 0.7; stroke: #000000; stroke-linejoin: miter"/>
   </g>
   <g id="patch_53">
    <path d="M 377.205159 386.918125 
L 406.633212 386.918125 
L 406.633212 22.318125 
L 377.205159 22.318125 
z
" clip-path="url(#p974565c0ba)" style="fill: #ffa500; opacity: 0.2; stroke: #ffa500; stroke-linejoin: miter"/>
   </g>
   <g id="patch_54">
    <path d="M 406.633212 386.918125 
L 416.442563 386.918125 
L 416.442563 22.318125 
L 406.633212 22.318125 
z
" clip-path="url(#p974565c0ba)" style="fill: #ffa500; opacity: 0.3; stroke: #ffa500; stroke-linejoin: miter"/>
   </g>
   <g id="line2d_21">
    <path d="M 406.633212 386.918125 
L 406.633212 22.318125 
" clip-path="url(#p974565c0ba)" style="fill: none; stroke-dasharray: 7.4,3.2; stroke-dashoffset: 0; stroke: #ffa500; stroke-width: 2"/>
   </g>
   <g id="patch_55">
    <path d="M 34.240625 386.918125 
L 34.240625 22.318125 
" style="fill: none; stroke: #cccccc; stroke-width: 0.8; stroke-linejoin: miter; stroke-linecap: square"/>
   </g>
   <g id="patch_56">
    <path d="M 563.375625 386.918125 
L 563.375625 22.318125 
" style="fill: none; stroke: #cccccc; stroke-width: 0.8; stroke-linejoin: miter; stroke-linecap: square"/>
   </g>
   <g id="patch_57">
    <path d="M 34.240625 386.918125 
L 563.375625 386.918125 
" style="fill: none; stroke: #cccccc; stroke-width: 0.8; stroke-linejoin: miter; stroke-linecap: square"/>
   </g>
   <g id="patch_58">
    <path d="M 34.240625 22.318125 
L 563.375625 22.318125 
" style="fill: none; stroke: #cccccc; stroke-width: 0.8; stroke-linejoin: miter; stroke-linecap: square"/>
   </g>
   <g id="text_23">
    <!-- Wild boar - Distribution Relative to Sunset -->
    <g style="fill: #262626" transform="translate(154.895313 16.318125) scale(0.12 -0.12)">
     <defs>
      <path id="DejaVuSans-Bold-57" d="M 191 4666 
L 1344 4666 
L 2150 1275 
L 2950 4666 
L 4109 4666 
L 4909 1275 
L 5716 4666 
L 6859 4666 
L 5759 0 
L 4372 0 
L 3525 3547 
L 2688 0 
L 1300 0 
L 191 4666 
z
" transform="scale(0.015625)"/>
      <path id="DejaVuSans-Bold-69" d="M 538 3500 
L 1656 3500 
L 1656 0 
L 538 0 
L 538 3500 
z
M 538 4863 
L 1656 4863 
L 1656 3950 
L 538 3950 
L 538 4863 
z
" transform="scale(0.015625)"/>
      <path id="DejaVuSans-Bold-6c" d="M 538 4863 
L 1656 4863 
L 1656 0 
L 538 0 
L 538 4863 
z
" transform="scale(0.015625)"/>
      <path id="DejaVuSans-Bold-64" d="M 2919 2988 
L 2919 4863 
L 4044 4863 
L 4044 0 
L 2919 0 
L 2919 506 
Q 2688 197 2409 53 
Q 2131 -91 1766 -91 
Q 1119 -91 703 423 
Q 288 938 288 1747 
Q 288 2556 703 3070 
Q 1119 3584 1766 3584 
Q 2128 3584 2408 3439 
Q 2688 3294 2919 2988 
z
M 2181 722 
Q 2541 722 2730 984 
Q 2919 1247 2919 1747 
Q 2919 2247 2730 2509 
Q 2541 2772 2181 2772 
Q 1825 2772 1636 2509 
Q 1447 2247 1447 1747 
Q 1447 1247 1636 984 
Q 1825 722 2181 722 
z
" transform="scale(0.015625)"/>
      <path id="DejaVuSans-Bold-20" transform="scale(0.015625)"/>
      <path id="DejaVuSans-Bold-62" d="M 2400 722 
Q 2759 722 2948 984 
Q 3138 1247 3138 1747 
Q 3138 2247 2948 2509 
Q 2759 2772 2400 2772 
Q 2041 2772 1848 2508 
Q 1656 2244 1656 1747 
Q 1656 1250 1848 986 
Q 2041 722 2400 722 
z
M 1656 2988 
Q 1888 3294 2169 3439 
Q 2450 3584 2816 3584 
Q 3463 3584 3878 3070 
Q 4294 2556 4294 1747 
Q 4294 938 3878 423 
Q 3463 -91 2816 -91 
Q 2450 -91 2169 54 
Q 1888 200 1656 506 
L 1656 0 
L 538 0 
L 538 4863 
L 1656 4863 
L 1656 2988 
z
" transform="scale(0.015625)"/>
      <path id="DejaVuSans-Bold-6f" d="M 2203 2784 
Q 1831 2784 1636 2517 
Q 1441 2250 1441 1747 
Q 1441 1244 1636 976 
Q 1831 709 2203 709 
Q 2569 709 2762 976 
Q 2956 1244 2956 1747 
Q 2956 2250 2762 2517 
Q 2569 2784 2203 2784 
z
M 2203 3584 
Q 3106 3584 3614 3096 
Q 4122 2609 4122 1747 
Q 4122 884 3614 396 
Q 3106 -91 2203 -91 
Q 1297 -91 786 396 
Q 275 884 275 1747 
Q 275 2609 786 3096 
Q 1297 3584 2203 3584 
z
" transform="scale(0.015625)"/>
      <path id="DejaVuSans-Bold-61" d="M 2106 1575 
Q 1756 1575 1579 1456 
Q 1403 1338 1403 1106 
Q 1403 894 1545 773 
Q 1688 653 1941 653 
Q 2256 653 2472 879 
Q 2688 1106 2688 1447 
L 2688 1575 
L 2106 1575 
z
M 3816 1997 
L 3816 0 
L 2688 0 
L 2688 519 
Q 2463 200 2181 54 
Q 1900 -91 1497 -91 
Q 953 -91 614 226 
Q 275 544 275 1050 
Q 275 1666 698 1953 
Q 1122 2241 2028 2241 
L 2688 2241 
L 2688 2328 
Q 2688 2594 2478 2717 
Q 2269 2841 1825 2841 
Q 1466 2841 1156 2769 
Q 847 2697 581 2553 
L 581 3406 
Q 941 3494 1303 3539 
Q 1666 3584 2028 3584 
Q 2975 3584 3395 3211 
Q 3816 2838 3816 1997 
z
" transform="scale(0.015625)"/>
      <path id="DejaVuSans-Bold-72" d="M 3138 2547 
Q 2991 2616 2845 2648 
Q 2700 2681 2553 2681 
Q 2122 2681 1889 2404 
Q 1656 2128 1656 1613 
L 1656 0 
L 538 0 
L 538 3500 
L 1656 3500 
L 1656 2925 
Q 1872 3269 2151 3426 
Q 2431 3584 2822 3584 
Q 2878 3584 2943 3579 
Q 3009 3575 3134 3559 
L 3138 2547 
z
" transform="scale(0.015625)"/>
      <path id="DejaVuSans-Bold-2d" d="M 347 2297 
L 2309 2297 
L 2309 1388 
L 347 1388 
L 347 2297 
z
" transform="scale(0.015625)"/>
      <path id="DejaVuSans-Bold-44" d="M 1791 3756 
L 1791 909 
L 2222 909 
Q 2959 909 3348 1275 
Q 3738 1641 3738 2338 
Q 3738 3031 3350 3393 
Q 2963 3756 2222 3756 
L 1791 3756 
z
M 588 4666 
L 1856 4666 
Q 2919 4666 3439 4514 
Q 3959 4363 4331 4000 
Q 4659 3684 4818 3271 
Q 4978 2859 4978 2338 
Q 4978 1809 4818 1395 
Q 4659 981 4331 666 
Q 3956 303 3431 151 
Q 2906 0 1856 0 
L 588 0 
L 588 4666 
z
" transform="scale(0.015625)"/>
      <path id="DejaVuSans-Bold-73" d="M 3272 3391 
L 3272 2541 
Q 2913 2691 2578 2766 
Q 2244 2841 1947 2841 
Q 1628 2841 1473 2761 
Q 1319 2681 1319 2516 
Q 1319 2381 1436 2309 
Q 1553 2238 1856 2203 
L 2053 2175 
Q 2913 2066 3209 1816 
Q 3506 1566 3506 1031 
Q 3506 472 3093 190 
Q 2681 -91 1863 -91 
Q 1516 -91 1145 -36 
Q 775 19 384 128 
L 384 978 
Q 719 816 1070 734 
Q 1422 653 1784 653 
Q 2113 653 2278 743 
Q 2444 834 2444 1013 
Q 2444 1163 2330 1236 
Q 2216 1309 1875 1350 
L 1678 1375 
Q 931 1469 631 1722 
Q 331 1975 331 2491 
Q 331 3047 712 3315 
Q 1094 3584 1881 3584 
Q 2191 3584 2531 3537 
Q 2872 3491 3272 3391 
z
" transform="scale(0.015625)"/>
      <path id="DejaVuSans-Bold-74" d="M 1759 4494 
L 1759 3500 
L 2913 3500 
L 2913 2700 
L 1759 2700 
L 1759 1216 
Q 1759 972 1856 886 
Q 1953 800 2241 800 
L 2816 800 
L 2816 0 
L 1856 0 
Q 1194 0 917 276 
Q 641 553 641 1216 
L 641 2700 
L 84 2700 
L 84 3500 
L 641 3500 
L 641 4494 
L 1759 4494 
z
" transform="scale(0.015625)"/>
      <path id="DejaVuSans-Bold-75" d="M 500 1363 
L 500 3500 
L 1625 3500 
L 1625 3150 
Q 1625 2866 1622 2436 
Q 1619 2006 1619 1863 
Q 1619 1441 1641 1255 
Q 1663 1069 1716 984 
Q 1784 875 1895 815 
Q 2006 756 2150 756 
Q 2500 756 2700 1025 
Q 2900 1294 2900 1772 
L 2900 3500 
L 4019 3500 
L 4019 0 
L 2900 0 
L 2900 506 
Q 2647 200 2364 54 
Q 2081 -91 1741 -91 
Q 1134 -91 817 281 
Q 500 653 500 1363 
z
" transform="scale(0.015625)"/>
      <path id="DejaVuSans-Bold-6e" d="M 4056 2131 
L 4056 0 
L 2931 0 
L 2931 347 
L 2931 1631 
Q 2931 2084 2911 2256 
Q 2891 2428 2841 2509 
Q 2775 2619 2662 2680 
Q 2550 2741 2406 2741 
Q 2056 2741 1856 2470 
Q 1656 2200 1656 1722 
L 1656 0 
L 538 0 
L 538 3500 
L 1656 3500 
L 1656 2988 
Q 1909 3294 2193 3439 
Q 2478 3584 2822 3584 
Q 3428 3584 3742 3212 
Q 4056 2841 4056 2131 
z
" transform="scale(0.015625)"/>
      <path id="DejaVuSans-Bold-52" d="M 2297 2597 
Q 2675 2597 2839 2737 
Q 3003 2878 3003 3200 
Q 3003 3519 2839 3656 
Q 2675 3794 2297 3794 
L 1791 3794 
L 1791 2597 
L 2297 2597 
z
M 1791 1766 
L 1791 0 
L 588 0 
L 588 4666 
L 2425 4666 
Q 3347 4666 3776 4356 
Q 4206 4047 4206 3378 
Q 4206 2916 3982 2619 
Q 3759 2322 3309 2181 
Q 3556 2125 3751 1926 
Q 3947 1728 4147 1325 
L 4800 0 
L 3519 0 
L 2950 1159 
Q 2778 1509 2601 1637 
Q 2425 1766 2131 1766 
L 1791 1766 
z
" transform="scale(0.015625)"/>
      <path id="DejaVuSans-Bold-65" d="M 4031 1759 
L 4031 1441 
L 1416 1441 
Q 1456 1047 1700 850 
Q 1944 653 2381 653 
Q 2734 653 3104 758 
Q 3475 863 3866 1075 
L 3866 213 
Q 3469 63 3072 -14 
Q 2675 -91 2278 -91 
Q 1328 -91 801 392 
Q 275 875 275 1747 
Q 275 2603 792 3093 
Q 1309 3584 2216 3584 
Q 3041 3584 3536 3087 
Q 4031 2591 4031 1759 
z
M 2881 2131 
Q 2881 2450 2695 2645 
Q 2509 2841 2209 2841 
Q 1884 2841 1681 2658 
Q 1478 2475 1428 2131 
L 2881 2131 
z
" transform="scale(0.015625)"/>
      <path id="DejaVuSans-Bold-76" d="M 97 3500 
L 1216 3500 
L 2088 1081 
L 2956 3500 
L 4078 3500 
L 2700 0 
L 1472 0 
L 97 3500 
z
" transform="scale(0.015625)"/>
      <path id="DejaVuSans-Bold-53" d="M 3834 4519 
L 3834 3531 
Q 3450 3703 3084 3790 
Q 2719 3878 2394 3878 
Q 1963 3878 1756 3759 
Q 1550 3641 1550 3391 
Q 1550 3203 1689 3098 
Q 1828 2994 2194 2919 
L 2706 2816 
Q 3484 2659 3812 2340 
Q 4141 2022 4141 1434 
Q 4141 663 3683 286 
Q 3225 -91 2284 -91 
Q 1841 -91 1394 -6 
Q 947 78 500 244 
L 500 1259 
Q 947 1022 1364 901 
Q 1781 781 2169 781 
Q 2563 781 2772 912 
Q 2981 1044 2981 1288 
Q 2981 1506 2839 1625 
Q 2697 1744 2272 1838 
L 1806 1941 
Q 1106 2091 782 2419 
Q 459 2747 459 3303 
Q 459 4000 909 4375 
Q 1359 4750 2203 4750 
Q 2588 4750 2994 4692 
Q 3400 4634 3834 4519 
z
" transform="scale(0.015625)"/>
     </defs>
     <use xlink:href="#DejaVuSans-Bold-57"/>
     <use xlink:href="#DejaVuSans-Bold-69" transform="translate(110.302734 0)"/>
     <use xlink:href="#DejaVuSans-Bold-6c" transform="translate(144.580078 0)"/>
     <use xlink:href="#DejaVuSans-Bold-64" transform="translate(178.857422 0)"/>
     <use xlink:href="#DejaVuSans-Bold-20" transform="translate(250.439453 0)"/>
     <use xlink:href="#DejaVuSans-Bold-62" transform="translate(285.253906 0)"/>
     <use xlink:href="#DejaVuSans-Bold-6f" transform="translate(356.835938 0)"/>
     <use xlink:href="#DejaVuSans-Bold-61" transform="translate(425.537109 0)"/>
     <use xlink:href="#DejaVuSans-Bold-72" transform="translate(493.017578 0)"/>
     <use xlink:href="#DejaVuSans-Bold-20" transform="translate(542.333984 0)"/>
     <use xlink:href="#DejaVuSans-Bold-2d" transform="translate(577.148438 0)"/>
     <use xlink:href="#DejaVuSans-Bold-20" transform="translate(618.652344 0)"/>
     <use xlink:href="#DejaVuSans-Bold-44" transform="translate(653.466797 0)"/>
     <use xlink:href="#DejaVuSans-Bold-69" transform="translate(736.474609 0)"/>
     <use xlink:href="#DejaVuSans-Bold-73" transform="translate(770.751953 0)"/>
     <use xlink:href="#DejaVuSans-Bold-74" transform="translate(830.273438 0)"/>
     <use xlink:href="#DejaVuSans-Bold-72" transform="translate(878.076172 0)"/>
     <use xlink:href="#DejaVuSans-Bold-69" transform="translate(927.392578 0)"/>
     <use xlink:href="#DejaVuSans-Bold-62" transform="translate(961.669922 0)"/>
     <use xlink:href="#DejaVuSans-Bold-75" transform="translate(1033.251953 0)"/>
     <use xlink:href="#DejaVuSans-Bold-74" transform="translate(1104.443359 0)"/>
     <use xlink:href="#DejaVuSans-Bold-69" transform="translate(1152.246094 0)"/>
     <use xlink:href="#DejaVuSans-Bold-6f" transform="translate(1186.523438 0)"/>
     <use xlink:href="#DejaVuSans-Bold-6e" transform="translate(1255.224609 0)"/>
     <use xlink:href="#DejaVuSans-Bold-20" transform="translate(1326.416016 0)"/>
     <use xlink:href="#DejaVuSans-Bold-52" transform="translate(1361.230469 0)"/>
     <use xlink:href="#DejaVuSans-Bold-65" transform="translate(1438.232422 0)"/>
     <use xlink:href="#DejaVuSans-Bold-6c" transform="translate(1506.054688 0)"/>
     <use xlink:href="#DejaVuSans-Bold-61" transform="translate(1540.332031 0)"/>
     <use xlink:href="#DejaVuSans-Bold-74" transform="translate(1607.8125 0)"/>
     <use xlink:href="#DejaVuSans-Bold-69" transform="translate(1655.615234 0)"/>
     <use xlink:href="#DejaVuSans-Bold-76" transform="translate(1689.892578 0)"/>
     <use xlink:href="#DejaVuSans-Bold-65" transform="translate(1755.078125 0)"/>
     <use xlink:href="#DejaVuSans-Bold-20" transform="translate(1822.900391 0)"/>
     <use xlink:href="#DejaVuSans-Bold-74" transform="translate(1857.714844 0)"/>
     <use xlink:href="#DejaVuSans-Bold-6f" transform="translate(1905.517578 0)"/>
     <use xlink:href="#DejaVuSans-Bold-20" transform="translate(1974.21875 0)"/>
     <use xlink:href="#DejaVuSans-Bold-53" transform="translate(2009.033203 0)"/>
     <use xlink:href="#DejaVuSans-Bold-75" transform="translate(2081.054688 0)"/>
     <use xlink:href="#DejaVuSans-Bold-6e" transform="translate(2152.246094 0)"/>
     <use xlink:href="#DejaVuSans-Bold-73" transform="translate(2223.4375 0)"/>
     <use xlink:href="#DejaVuSans-Bold-65" transform="translate(2282.958984 0)"/>
     <use xlink:href="#DejaVuSans-Bold-74" transform="translate(2350.78125 0)"/>
    </g>
   </g>
   <g id="legend_1">
    <g id="patch_59">
     <path d="M 222.789375 74.3525 
L 374.826875 74.3525 
Q 376.826875 74.3525 376.826875 72.3525 
L 376.826875 29.318125 
Q 376.826875 27.318125 374.826875 27.318125 
L 222.789375 27.318125 
Q 220.789375 27.318125 220.789375 29.318125 
L 220.789375 72.3525 
Q 220.789375 74.3525 222.789375 74.3525 
z
" style="fill: #ffffff; opacity: 0.8; stroke: #cccccc; stroke-linejoin: miter"/>
    </g>
    <g id="patch_60">
     <path d="M 224.789375 38.916562 
L 244.789375 38.916562 
L 244.789375 31.916562 
L 224.789375 31.916562 
z
" style="fill: #ffa500; opacity: 0.2; stroke: #ffa500; stroke-linejoin: miter"/>
    </g>
    <g id="text_24">
     <!-- 1.5 hours before Sunset -->
     <g style="fill: #262626" transform="translate(252.789375 38.916562) scale(0.1 -0.1)">
      <defs>
       <path id="DejaVuSans-2e" d="M 684 794 
L 1344 794 
L 1344 0 
L 684 0 
L 684 794 
z
" transform="scale(0.015625)"/>
      </defs>
      <use xlink:href="#DejaVuSans-31"/>
      <use xlink:href="#DejaVuSans-2e" transform="translate(63.623047 0)"/>
      <use xlink:href="#DejaVuSans-35" transform="translate(95.410156 0)"/>
      <use xlink:href="#DejaVuSans-20" transform="translate(159.033203 0)"/>
      <use xlink:href="#DejaVuSans-68" transform="translate(190.820312 0)"/>
      <use xlink:href="#DejaVuSans-6f" transform="translate(254.199219 0)"/>
      <use xlink:href="#DejaVuSans-75" transform="translate(315.380859 0)"/>
      <use xlink:href="#DejaVuSans-72" transform="translate(378.759766 0)"/>
      <use xlink:href="#DejaVuSans-73" transform="translate(419.873047 0)"/>
      <use xlink:href="#DejaVuSans-20" transform="translate(471.972656 0)"/>
      <use xlink:href="#DejaVuSans-62" transform="translate(503.759766 0)"/>
      <use xlink:href="#DejaVuSans-65" transform="translate(567.236328 0)"/>
      <use xlink:href="#DejaVuSans-66" transform="translate(628.759766 0)"/>
      <use xlink:href="#DejaVuSans-6f" transform="translate(663.964844 0)"/>
      <use xlink:href="#DejaVuSans-72" transform="translate(725.146484 0)"/>
      <use xlink:href="#DejaVuSans-65" transform="translate(764.009766 0)"/>
      <use xlink:href="#DejaVuSans-20" transform="translate(825.533203 0)"/>
      <use xlink:href="#DejaVuSans-53" transform="translate(857.320312 0)"/>
      <use xlink:href="#DejaVuSans-75" transform="translate(920.796875 0)"/>
      <use xlink:href="#DejaVuSans-6e" transform="translate(984.175781 0)"/>
      <use xlink:href="#DejaVuSans-73" transform="translate(1047.554688 0)"/>
      <use xlink:href="#DejaVuSans-65" transform="translate(1099.654297 0)"/>
      <use xlink:href="#DejaVuSans-74" transform="translate(1161.177734 0)"/>
     </g>
    </g>
    <g id="patch_61">
     <path d="M 224.789375 53.594687 
L 244.789375 53.594687 
L 244.789375 46.594687 
L 224.789375 46.594687 
z
" style="fill: #ffa500; opacity: 0.3; stroke: #ffa500; stroke-linejoin: miter"/>
    </g>
    <g id="text_25">
     <!-- 0.5 hours after Sunset -->
     <g style="fill: #262626" transform="translate(252.789375 53.594687) scale(0.1 -0.1)">
      <defs>
       <path id="DejaVuSans-61" d="M 2194 1759 
Q 1497 1759 1228 1600 
Q 959 1441 959 1056 
Q 959 750 1161 570 
Q 1363 391 1709 391 
Q 2188 391 2477 730 
Q 2766 1069 2766 1631 
L 2766 1759 
L 2194 1759 
z
M 3341 1997 
L 3341 0 
L 2766 0 
L 2766 531 
Q 2569 213 2275 61 
Q 1981 -91 1556 -91 
Q 1019 -91 701 211 
Q 384 513 384 1019 
Q 384 1609 779 1909 
Q 1175 2209 1959 2209 
L 2766 2209 
L 2766 2266 
Q 2766 2663 2505 2880 
Q 2244 3097 1772 3097 
Q 1472 3097 1187 3025 
Q 903 2953 641 2809 
L 641 3341 
Q 956 3463 1253 3523 
Q 1550 3584 1831 3584 
Q 2591 3584 2966 3190 
Q 3341 2797 3341 1997 
z
" transform="scale(0.015625)"/>
      </defs>
      <use xlink:href="#DejaVuSans-30"/>
      <use xlink:href="#DejaVuSans-2e" transform="translate(63.623047 0)"/>
      <use xlink:href="#DejaVuSans-35" transform="translate(95.410156 0)"/>
      <use xlink:href="#DejaVuSans-20" transform="translate(159.033203 0)"/>
      <use xlink:href="#DejaVuSans-68" transform="translate(190.820312 0)"/>
      <use xlink:href="#DejaVuSans-6f" transform="translate(254.199219 0)"/>
      <use xlink:href="#DejaVuSans-75" transform="translate(315.380859 0)"/>
      <use xlink:href="#DejaVuSans-72" transform="translate(378.759766 0)"/>
      <use xlink:href="#DejaVuSans-73" transform="translate(419.873047 0)"/>
      <use xlink:href="#DejaVuSans-20" transform="translate(471.972656 0)"/>
      <use xlink:href="#DejaVuSans-61" transform="translate(503.759766 0)"/>
      <use xlink:href="#DejaVuSans-66" transform="translate(565.039062 0)"/>
      <use xlink:href="#DejaVuSans-74" transform="translate(598.494141 0)"/>
      <use xlink:href="#DejaVuSans-65" transform="translate(637.703125 0)"/>
      <use xlink:href="#DejaVuSans-72" transform="translate(699.226562 0)"/>
      <use xlink:href="#DejaVuSans-20" transform="translate(740.339844 0)"/>
      <use xlink:href="#DejaVuSans-53" transform="translate(772.126953 0)"/>
      <use xlink:href="#DejaVuSans-75" transform="translate(835.603516 0)"/>
      <use xlink:href="#DejaVuSans-6e" transform="translate(898.982422 0)"/>
      <use xlink:href="#DejaVuSans-73" transform="translate(962.361328 0)"/>
      <use xlink:href="#DejaVuSans-65" transform="translate(1014.460938 0)"/>
      <use xlink:href="#DejaVuSans-74" transform="translate(1075.984375 0)"/>
     </g>
    </g>
    <g id="line2d_22">
     <path d="M 224.789375 64.772812 
L 234.789375 64.772812 
L 244.789375 64.772812 
" style="fill: none; stroke-dasharray: 7.4,3.2; stroke-dashoffset: 0; stroke: #ffa500; stroke-width: 2"/>
    </g>
    <g id="text_26">
     <!-- Sunset -->
     <g style="fill: #262626" transform="translate(252.789375 68.272812) scale(0.1 -0.1)">
      <use xlink:href="#DejaVuSans-53"/>
      <use xlink:href="#DejaVuSans-75" transform="translate(63.476562 0)"/>
      <use xlink:href="#DejaVuSans-6e" transform="translate(126.855469 0)"/>
      <use xlink:href="#DejaVuSans-73" transform="translate(190.234375 0)"/>
      <use xlink:href="#DejaVuSans-65" transform="translate(242.333984 0)"/>
      <use xlink:href="#DejaVuSans-74" transform="translate(303.857422 0)"/>
     </g>
    </g>
   </g>
  </g>
  <g id="axes_2">
   <g id="patch_62">
    <path d="M 608.035625 386.918125 
L 1137.170625 386.918125 
L 1137.170625 22.318125 
L 608.035625 22.318125 
z
" style="fill: #ffffff"/>
   </g>
   <g id="matplotlib.axis_3">
    <g id="xtick_14">
     <g id="line2d_23">
      <path d="M 640.171784 386.918125 
L 640.171784 22.318125 
" clip-path="url(#p49d3b4ecfe)" style="fill: none; stroke: #cccccc; stroke-width: 0.8; stroke-linecap: round"/>
     </g>
     <g id="text_27">
      <!-- 0 -->
      <g style="fill: #262626" transform="translate(636.990534 401.516562) scale(0.1 -0.1)">
       <use xlink:href="#DejaVuSans-30"/>
      </g>
     </g>
    </g>
    <g id="xtick_15">
     <g id="line2d_24">
      <path d="M 680.594626 386.918125 
L 680.594626 22.318125 
" clip-path="url(#p49d3b4ecfe)" style="fill: none; stroke: #cccccc; stroke-width: 0.8; stroke-linecap: round"/>
     </g>
     <g id="text_28">
      <!-- 2 -->
      <g style="fill: #262626" transform="translate(677.413376 401.516562) scale(0.1 -0.1)">
       <use xlink:href="#DejaVuSans-32"/>
      </g>
     </g>
    </g>
    <g id="xtick_16">
     <g id="line2d_25">
      <path d="M 721.017468 386.918125 
L 721.017468 22.318125 
" clip-path="url(#p49d3b4ecfe)" style="fill: none; stroke: #cccccc; stroke-width: 0.8; stroke-linecap: round"/>
     </g>
     <g id="text_29">
      <!-- 4 -->
      <g style="fill: #262626" transform="translate(717.836218 401.516562) scale(0.1 -0.1)">
       <use xlink:href="#DejaVuSans-34"/>
      </g>
     </g>
    </g>
    <g id="xtick_17">
     <g id="line2d_26">
      <path d="M 761.44031 386.918125 
L 761.44031 22.318125 
" clip-path="url(#p49d3b4ecfe)" style="fill: none; stroke: #cccccc; stroke-width: 0.8; stroke-linecap: round"/>
     </g>
     <g id="text_30">
      <!-- 6 -->
      <g style="fill: #262626" transform="translate(758.25906 401.516562) scale(0.1 -0.1)">
       <use xlink:href="#DejaVuSans-36"/>
      </g>
     </g>
    </g>
    <g id="xtick_18">
     <g id="line2d_27">
      <path d="M 801.863152 386.918125 
L 801.863152 22.318125 
" clip-path="url(#p49d3b4ecfe)" style="fill: none; stroke: #cccccc; stroke-width: 0.8; stroke-linecap: round"/>
     </g>
     <g id="text_31">
      <!-- 8 -->
      <g style="fill: #262626" transform="translate(798.681902 401.516562) scale(0.1 -0.1)">
       <defs>
        <path id="DejaVuSans-38" d="M 2034 2216 
Q 1584 2216 1326 1975 
Q 1069 1734 1069 1313 
Q 1069 891 1326 650 
Q 1584 409 2034 409 
Q 2484 409 2743 651 
Q 3003 894 3003 1313 
Q 3003 1734 2745 1975 
Q 2488 2216 2034 2216 
z
M 1403 2484 
Q 997 2584 770 2862 
Q 544 3141 544 3541 
Q 544 4100 942 4425 
Q 1341 4750 2034 4750 
Q 2731 4750 3128 4425 
Q 3525 4100 3525 3541 
Q 3525 3141 3298 2862 
Q 3072 2584 2669 2484 
Q 3125 2378 3379 2068 
Q 3634 1759 3634 1313 
Q 3634 634 3220 271 
Q 2806 -91 2034 -91 
Q 1263 -91 848 271 
Q 434 634 434 1313 
Q 434 1759 690 2068 
Q 947 2378 1403 2484 
z
M 1172 3481 
Q 1172 3119 1398 2916 
Q 1625 2713 2034 2713 
Q 2441 2713 2670 2916 
Q 2900 3119 2900 3481 
Q 2900 3844 2670 4047 
Q 2441 4250 2034 4250 
Q 1625 4250 1398 4047 
Q 1172 3844 1172 3481 
z
" transform="scale(0.015625)"/>
       </defs>
       <use xlink:href="#DejaVuSans-38"/>
      </g>
     </g>
    </g>
    <g id="xtick_19">
     <g id="line2d_28">
      <path d="M 842.285994 386.918125 
L 842.285994 22.318125 
" clip-path="url(#p49d3b4ecfe)" style="fill: none; stroke: #cccccc; stroke-width: 0.8; stroke-linecap: round"/>
     </g>
     <g id="text_32">
      <!-- 10 -->
      <g style="fill: #262626" transform="translate(835.923494 401.516562) scale(0.1 -0.1)">
       <use xlink:href="#DejaVuSans-31"/>
       <use xlink:href="#DejaVuSans-30" transform="translate(63.623047 0)"/>
      </g>
     </g>
    </g>
    <g id="xtick_20">
     <g id="line2d_29">
      <path d="M 882.708835 386.918125 
L 882.708835 22.318125 
" clip-path="url(#p49d3b4ecfe)" style="fill: none; stroke: #cccccc; stroke-width: 0.8; stroke-linecap: round"/>
     </g>
     <g id="text_33">
      <!-- 12 -->
      <g style="fill: #262626" transform="translate(876.346335 401.516562) scale(0.1 -0.1)">
       <use xlink:href="#DejaVuSans-31"/>
       <use xlink:href="#DejaVuSans-32" transform="translate(63.623047 0)"/>
      </g>
     </g>
    </g>
    <g id="xtick_21">
     <g id="line2d_30">
      <path d="M 923.131677 386.918125 
L 923.131677 22.318125 
" clip-path="url(#p49d3b4ecfe)" style="fill: none; stroke: #cccccc; stroke-width: 0.8; stroke-linecap: round"/>
     </g>
     <g id="text_34">
      <!-- 14 -->
      <g style="fill: #262626" transform="translate(916.769177 401.516562) scale(0.1 -0.1)">
       <use xlink:href="#DejaVuSans-31"/>
       <use xlink:href="#DejaVuSans-34" transform="translate(63.623047 0)"/>
      </g>
     </g>
    </g>
    <g id="xtick_22">
     <g id="line2d_31">
      <path d="M 963.554519 386.918125 
L 963.554519 22.318125 
" clip-path="url(#p49d3b4ecfe)" style="fill: none; stroke: #cccccc; stroke-width: 0.8; stroke-linecap: round"/>
     </g>
     <g id="text_35">
      <!-- 16 -->
      <g style="fill: #262626" transform="translate(957.192019 401.516562) scale(0.1 -0.1)">
       <use xlink:href="#DejaVuSans-31"/>
       <use xlink:href="#DejaVuSans-36" transform="translate(63.623047 0)"/>
      </g>
     </g>
    </g>
    <g id="xtick_23">
     <g id="line2d_32">
      <path d="M 1003.977361 386.918125 
L 1003.977361 22.318125 
" clip-path="url(#p49d3b4ecfe)" style="fill: none; stroke: #cccccc; stroke-width: 0.8; stroke-linecap: round"/>
     </g>
     <g id="text_36">
      <!-- 18 -->
      <g style="fill: #262626" transform="translate(997.614861 401.516562) scale(0.1 -0.1)">
       <use xlink:href="#DejaVuSans-31"/>
       <use xlink:href="#DejaVuSans-38" transform="translate(63.623047 0)"/>
      </g>
     </g>
    </g>
    <g id="xtick_24">
     <g id="line2d_33">
      <path d="M 1044.400203 386.918125 
L 1044.400203 22.318125 
" clip-path="url(#p49d3b4ecfe)" style="fill: none; stroke: #cccccc; stroke-width: 0.8; stroke-linecap: round"/>
     </g>
     <g id="text_37">
      <!-- 20 -->
      <g style="fill: #262626" transform="translate(1038.037703 401.516562) scale(0.1 -0.1)">
       <use xlink:href="#DejaVuSans-32"/>
       <use xlink:href="#DejaVuSans-30" transform="translate(63.623047 0)"/>
      </g>
     </g>
    </g>
    <g id="xtick_25">
     <g id="line2d_34">
      <path d="M 1084.823045 386.918125 
L 1084.823045 22.318125 
" clip-path="url(#p49d3b4ecfe)" style="fill: none; stroke: #cccccc; stroke-width: 0.8; stroke-linecap: round"/>
     </g>
     <g id="text_38">
      <!-- 22 -->
      <g style="fill: #262626" transform="translate(1078.460545 401.516562) scale(0.1 -0.1)">
       <use xlink:href="#DejaVuSans-32"/>
       <use xlink:href="#DejaVuSans-32" transform="translate(63.623047 0)"/>
      </g>
     </g>
    </g>
    <g id="text_39">
     <!-- Hour of Day -->
     <g style="fill: #262626" transform="translate(842.688281 415.194687) scale(0.1 -0.1)">
      <defs>
       <path id="DejaVuSans-44" d="M 1259 4147 
L 1259 519 
L 2022 519 
Q 2988 519 3436 956 
Q 3884 1394 3884 2338 
Q 3884 3275 3436 3711 
Q 2988 4147 2022 4147 
L 1259 4147 
z
M 628 4666 
L 1925 4666 
Q 3281 4666 3915 4102 
Q 4550 3538 4550 2338 
Q 4550 1131 3912 565 
Q 3275 0 1925 0 
L 628 0 
L 628 4666 
z
" transform="scale(0.015625)"/>
       <path id="DejaVuSans-79" d="M 2059 -325 
Q 1816 -950 1584 -1140 
Q 1353 -1331 966 -1331 
L 506 -1331 
L 506 -850 
L 844 -850 
Q 1081 -850 1212 -737 
Q 1344 -625 1503 -206 
L 1606 56 
L 191 3500 
L 800 3500 
L 1894 763 
L 2988 3500 
L 3597 3500 
L 2059 -325 
z
" transform="scale(0.015625)"/>
      </defs>
      <use xlink:href="#DejaVuSans-48"/>
      <use xlink:href="#DejaVuSans-6f" transform="translate(75.195312 0)"/>
      <use xlink:href="#DejaVuSans-75" transform="translate(136.376953 0)"/>
      <use xlink:href="#DejaVuSans-72" transform="translate(199.755859 0)"/>
      <use xlink:href="#DejaVuSans-20" transform="translate(240.869141 0)"/>
      <use xlink:href="#DejaVuSans-6f" transform="translate(272.65625 0)"/>
      <use xlink:href="#DejaVuSans-66" transform="translate(333.837891 0)"/>
      <use xlink:href="#DejaVuSans-20" transform="translate(369.042969 0)"/>
      <use xlink:href="#DejaVuSans-44" transform="translate(400.830078 0)"/>
      <use xlink:href="#DejaVuSans-61" transform="translate(477.832031 0)"/>
      <use xlink:href="#DejaVuSans-79" transform="translate(539.111328 0)"/>
     </g>
    </g>
   </g>
   <g id="matplotlib.axis_4">
    <g id="ytick_8">
     <g id="line2d_35">
      <path d="M 608.035625 386.918125 
L 1137.170625 386.918125 
" clip-path="url(#p49d3b4ecfe)" style="fill: none; stroke: #cccccc; stroke-opacity: 0.3; stroke-width: 0.8; stroke-linecap: round"/>
     </g>
     <g id="text_40">
      <!-- 0 -->
      <g style="fill: #262626" transform="translate(594.673125 390.717344) scale(0.1 -0.1)">
       <use xlink:href="#DejaVuSans-30"/>
      </g>
     </g>
    </g>
    <g id="ytick_9">
     <g id="line2d_36">
      <path d="M 608.035625 317.470506 
L 1137.170625 317.470506 
" clip-path="url(#p49d3b4ecfe)" style="fill: none; stroke: #cccccc; stroke-opacity: 0.3; stroke-width: 0.8; stroke-linecap: round"/>
     </g>
     <g id="text_41">
      <!-- 2 -->
      <g style="fill: #262626" transform="translate(594.673125 321.269725) scale(0.1 -0.1)">
       <use xlink:href="#DejaVuSans-32"/>
      </g>
     </g>
    </g>
    <g id="ytick_10">
     <g id="line2d_37">
      <path d="M 608.035625 248.022887 
L 1137.170625 248.022887 
" clip-path="url(#p49d3b4ecfe)" style="fill: none; stroke: #cccccc; stroke-opacity: 0.3; stroke-width: 0.8; stroke-linecap: round"/>
     </g>
     <g id="text_42">
      <!-- 4 -->
      <g style="fill: #262626" transform="translate(594.673125 251.822106) scale(0.1 -0.1)">
       <use xlink:href="#DejaVuSans-34"/>
      </g>
     </g>
    </g>
    <g id="ytick_11">
     <g id="line2d_38">
      <path d="M 608.035625 178.575268 
L 1137.170625 178.575268 
" clip-path="url(#p49d3b4ecfe)" style="fill: none; stroke: #cccccc; stroke-opacity: 0.3; stroke-width: 0.8; stroke-linecap: round"/>
     </g>
     <g id="text_43">
      <!-- 6 -->
      <g style="fill: #262626" transform="translate(594.673125 182.374487) scale(0.1 -0.1)">
       <use xlink:href="#DejaVuSans-36"/>
      </g>
     </g>
    </g>
    <g id="ytick_12">
     <g id="line2d_39">
      <path d="M 608.035625 109.127649 
L 1137.170625 109.127649 
" clip-path="url(#p49d3b4ecfe)" style="fill: none; stroke: #cccccc; stroke-opacity: 0.3; stroke-width: 0.8; stroke-linecap: round"/>
     </g>
     <g id="text_44">
      <!-- 8 -->
      <g style="fill: #262626" transform="translate(594.673125 112.926868) scale(0.1 -0.1)">
       <use xlink:href="#DejaVuSans-38"/>
      </g>
     </g>
    </g>
    <g id="ytick_13">
     <g id="line2d_40">
      <path d="M 608.035625 39.68003 
L 1137.170625 39.68003 
" clip-path="url(#p49d3b4ecfe)" style="fill: none; stroke: #cccccc; stroke-opacity: 0.3; stroke-width: 0.8; stroke-linecap: round"/>
     </g>
     <g id="text_45">
      <!-- 10 -->
      <g style="fill: #262626" transform="translate(588.310625 43.479249) scale(0.1 -0.1)">
       <use xlink:href="#DejaVuSans-31"/>
       <use xlink:href="#DejaVuSans-30" transform="translate(63.623047 0)"/>
      </g>
     </g>
    </g>
    <g id="text_46">
     <!-- Number of Sightings -->
     <g style="fill: #262626" transform="translate(582.230938 255.904844) rotate(-90) scale(0.1 -0.1)">
      <use xlink:href="#DejaVuSans-4e"/>
      <use xlink:href="#DejaVuSans-75" transform="translate(74.804688 0)"/>
      <use xlink:href="#DejaVuSans-6d" transform="translate(138.183594 0)"/>
      <use xlink:href="#DejaVuSans-62" transform="translate(235.595703 0)"/>
      <use xlink:href="#DejaVuSans-65" transform="translate(299.072266 0)"/>
      <use xlink:href="#DejaVuSans-72" transform="translate(360.595703 0)"/>
      <use xlink:href="#DejaVuSans-20" transform="translate(401.708984 0)"/>
      <use xlink:href="#DejaVuSans-6f" transform="translate(433.496094 0)"/>
      <use xlink:href="#DejaVuSans-66" transform="translate(494.677734 0)"/>
      <use xlink:href="#DejaVuSans-20" transform="translate(529.882812 0)"/>
      <use xlink:href="#DejaVuSans-53" transform="translate(561.669922 0)"/>
      <use xlink:href="#DejaVuSans-69" transform="translate(625.146484 0)"/>
      <use xlink:href="#DejaVuSans-67" transform="translate(652.929688 0)"/>
      <use xlink:href="#DejaVuSans-68" transform="translate(716.40625 0)"/>
      <use xlink:href="#DejaVuSans-74" transform="translate(779.785156 0)"/>
      <use xlink:href="#DejaVuSans-69" transform="translate(818.994141 0)"/>
      <use xlink:href="#DejaVuSans-6e" transform="translate(846.777344 0)"/>
      <use xlink:href="#DejaVuSans-67" transform="translate(910.15625 0)"/>
      <use xlink:href="#DejaVuSans-73" transform="translate(973.632812 0)"/>
     </g>
    </g>
   </g>
   <g id="patch_63">
    <path d="M 632.087216 386.918125 
L 648.256353 386.918125 
L 648.256353 317.470506 
L 632.087216 317.470506 
z
" clip-path="url(#p49d3b4ecfe)" style="fill: #4682b4; opacity: 0.7; stroke: #000000; stroke-linejoin: miter"/>
   </g>
   <g id="patch_64">
    <path d="M 652.298637 386.918125 
L 668.467774 386.918125 
L 668.467774 317.470506 
L 652.298637 317.470506 
z
" clip-path="url(#p49d3b4ecfe)" style="fill: #4682b4; opacity: 0.7; stroke: #000000; stroke-linejoin: miter"/>
   </g>
   <g id="patch_65">
    <path d="M 672.510058 386.918125 
L 688.679195 386.918125 
L 688.679195 386.918125 
L 672.510058 386.918125 
z
" clip-path="url(#p49d3b4ecfe)" style="fill: #4682b4; opacity: 0.7; stroke: #000000; stroke-linejoin: miter"/>
   </g>
   <g id="patch_66">
    <path d="M 692.721479 386.918125 
L 708.890615 386.918125 
L 708.890615 282.746696 
L 692.721479 282.746696 
z
" clip-path="url(#p49d3b4ecfe)" style="fill: #4682b4; opacity: 0.7; stroke: #000000; stroke-linejoin: miter"/>
   </g>
   <g id="patch_67">
    <path d="M 712.9329 386.918125 
L 729.102036 386.918125 
L 729.102036 143.851458 
L 712.9329 143.851458 
z
" clip-path="url(#p49d3b4ecfe)" style="fill: #4682b4; opacity: 0.7; stroke: #000000; stroke-linejoin: miter"/>
   </g>
   <g id="patch_68">
    <path d="M 733.144321 386.918125 
L 749.313457 386.918125 
L 749.313457 74.403839 
L 733.144321 74.403839 
z
" clip-path="url(#p49d3b4ecfe)" style="fill: #4682b4; opacity: 0.7; stroke: #000000; stroke-linejoin: miter"/>
   </g>
   <g id="patch_69">
    <path d="M 753.355742 386.918125 
L 769.524878 386.918125 
L 769.524878 39.68003 
L 753.355742 39.68003 
z
" clip-path="url(#p49d3b4ecfe)" style="fill: #4682b4; opacity: 0.7; stroke: #000000; stroke-linejoin: miter"/>
   </g>
   <g id="patch_70">
    <path d="M 773.567162 386.918125 
L 789.736299 386.918125 
L 789.736299 282.746696 
L 773.567162 282.746696 
z
" clip-path="url(#p49d3b4ecfe)" style="fill: #4682b4; opacity: 0.7; stroke: #000000; stroke-linejoin: miter"/>
   </g>
   <g id="patch_71">
    <path d="M 793.778583 386.918125 
L 809.94772 386.918125 
L 809.94772 317.470506 
L 793.778583 317.470506 
z
" clip-path="url(#p49d3b4ecfe)" style="fill: #4682b4; opacity: 0.7; stroke: #000000; stroke-linejoin: miter"/>
   </g>
   <g id="patch_72">
    <path d="M 813.990004 386.918125 
L 830.159141 386.918125 
L 830.159141 282.746696 
L 813.990004 282.746696 
z
" clip-path="url(#p49d3b4ecfe)" style="fill: #4682b4; opacity: 0.7; stroke: #000000; stroke-linejoin: miter"/>
   </g>
   <g id="patch_73">
    <path d="M 834.201425 386.918125 
L 850.370562 386.918125 
L 850.370562 248.022887 
L 834.201425 248.022887 
z
" clip-path="url(#p49d3b4ecfe)" style="fill: #4682b4; opacity: 0.7; stroke: #000000; stroke-linejoin: miter"/>
   </g>
   <g id="patch_74">
    <path d="M 854.412846 386.918125 
L 870.581983 386.918125 
L 870.581983 386.918125 
L 854.412846 386.918125 
z
" clip-path="url(#p49d3b4ecfe)" style="fill: #4682b4; opacity: 0.7; stroke: #000000; stroke-linejoin: miter"/>
   </g>
   <g id="patch_75">
    <path d="M 874.624267 386.918125 
L 890.793404 386.918125 
L 890.793404 386.918125 
L 874.624267 386.918125 
z
" clip-path="url(#p49d3b4ecfe)" style="fill: #4682b4; opacity: 0.7; stroke: #000000; stroke-linejoin: miter"/>
   </g>
   <g id="patch_76">
    <path d="M 894.835688 386.918125 
L 911.004825 386.918125 
L 911.004825 386.918125 
L 894.835688 386.918125 
z
" clip-path="url(#p49d3b4ecfe)" style="fill: #4682b4; opacity: 0.7; stroke: #000000; stroke-linejoin: miter"/>
   </g>
   <g id="patch_77">
    <path d="M 915.047109 386.918125 
L 931.216246 386.918125 
L 931.216246 352.194315 
L 915.047109 352.194315 
z
" clip-path="url(#p49d3b4ecfe)" style="fill: #4682b4; opacity: 0.7; stroke: #000000; stroke-linejoin: miter"/>
   </g>
   <g id="patch_78">
    <path d="M 935.25853 386.918125 
L 951.427667 386.918125 
L 951.427667 213.299077 
L 935.25853 213.299077 
z
" clip-path="url(#p49d3b4ecfe)" style="fill: #4682b4; opacity: 0.7; stroke: #000000; stroke-linejoin: miter"/>
   </g>
   <g id="patch_79">
    <path d="M 955.469951 386.918125 
L 971.639088 386.918125 
L 971.639088 386.918125 
L 955.469951 386.918125 
z
" clip-path="url(#p49d3b4ecfe)" style="fill: #4682b4; opacity: 0.7; stroke: #000000; stroke-linejoin: miter"/>
   </g>
   <g id="patch_80">
    <path d="M 975.681372 386.918125 
L 991.850508 386.918125 
L 991.850508 386.918125 
L 975.681372 386.918125 
z
" clip-path="url(#p49d3b4ecfe)" style="fill: #4682b4; opacity: 0.7; stroke: #000000; stroke-linejoin: miter"/>
   </g>
   <g id="patch_81">
    <path d="M 995.892793 386.918125 
L 1012.061929 386.918125 
L 1012.061929 386.918125 
L 995.892793 386.918125 
z
" clip-path="url(#p49d3b4ecfe)" style="fill: #4682b4; opacity: 0.7; stroke: #000000; stroke-linejoin: miter"/>
   </g>
   <g id="patch_82">
    <path d="M 1016.104214 386.918125 
L 1032.27335 386.918125 
L 1032.27335 282.746696 
L 1016.104214 282.746696 
z
" clip-path="url(#p49d3b4ecfe)" style="fill: #4682b4; opacity: 0.7; stroke: #000000; stroke-linejoin: miter"/>
   </g>
   <g id="patch_83">
    <path d="M 1036.315635 386.918125 
L 1052.484771 386.918125 
L 1052.484771 282.746696 
L 1036.315635 282.746696 
z
" clip-path="url(#p49d3b4ecfe)" style="fill: #4682b4; opacity: 0.7; stroke: #000000; stroke-linejoin: miter"/>
   </g>
   <g id="patch_84">
    <path d="M 1056.527055 386.918125 
L 1072.696192 386.918125 
L 1072.696192 178.575268 
L 1056.527055 178.575268 
z
" clip-path="url(#p49d3b4ecfe)" style="fill: #4682b4; opacity: 0.7; stroke: #000000; stroke-linejoin: miter"/>
   </g>
   <g id="patch_85">
    <path d="M 1076.738476 386.918125 
L 1092.907613 386.918125 
L 1092.907613 213.299077 
L 1076.738476 213.299077 
z
" clip-path="url(#p49d3b4ecfe)" style="fill: #4682b4; opacity: 0.7; stroke: #000000; stroke-linejoin: miter"/>
   </g>
   <g id="patch_86">
    <path d="M 1096.949897 386.918125 
L 1113.119034 386.918125 
L 1113.119034 248.022887 
L 1096.949897 248.022887 
z
" clip-path="url(#p49d3b4ecfe)" style="fill: #4682b4; opacity: 0.7; stroke: #000000; stroke-linejoin: miter"/>
   </g>
   <g id="patch_87">
    <path d="M 962.850182 386.918125 
L 1062.253625 386.918125 
L 1062.253625 22.318125 
L 962.850182 22.318125 
z
" clip-path="url(#p49d3b4ecfe)" style="fill: #ffa500; opacity: 0.2; stroke: #ffa500; stroke-linejoin: miter"/>
   </g>
   <g id="patch_88">
    <path d="M 608.035625 386.918125 
L 608.035625 22.318125 
" style="fill: none; stroke: #cccccc; stroke-width: 0.8; stroke-linejoin: miter; stroke-linecap: square"/>
   </g>
   <g id="patch_89">
    <path d="M 1137.170625 386.918125 
L 1137.170625 22.318125 
" style="fill: none; stroke: #cccccc; stroke-width: 0.8; stroke-linejoin: miter; stroke-linecap: square"/>
   </g>
   <g id="patch_90">
    <path d="M 608.035625 386.918125 
L 1137.170625 386.918125 
" style="fill: none; stroke: #cccccc; stroke-width: 0.8; stroke-linejoin: miter; stroke-linecap: square"/>
   </g>
   <g id="patch_91">
    <path d="M 608.035625 22.318125 
L 1137.170625 22.318125 
" style="fill: none; stroke: #cccccc; stroke-width: 0.8; stroke-linejoin: miter; stroke-linecap: square"/>
   </g>
   <g id="text_47">
    <!-- Wild boar - Hourly Activity Pattern -->
    <g style="fill: #262626" transform="translate(755.68 16.318125) scale(0.12 -0.12)">
     <defs>
      <path id="DejaVuSans-Bold-48" d="M 588 4666 
L 1791 4666 
L 1791 2888 
L 3566 2888 
L 3566 4666 
L 4769 4666 
L 4769 0 
L 3566 0 
L 3566 1978 
L 1791 1978 
L 1791 0 
L 588 0 
L 588 4666 
z
" transform="scale(0.015625)"/>
      <path id="DejaVuSans-Bold-79" d="M 78 3500 
L 1197 3500 
L 2138 1125 
L 2938 3500 
L 4056 3500 
L 2584 -331 
Q 2363 -916 2067 -1148 
Q 1772 -1381 1288 -1381 
L 641 -1381 
L 641 -647 
L 991 -647 
Q 1275 -647 1404 -556 
Q 1534 -466 1606 -231 
L 1638 -134 
L 78 3500 
z
" transform="scale(0.015625)"/>
      <path id="DejaVuSans-Bold-41" d="M 3419 850 
L 1538 850 
L 1241 0 
L 31 0 
L 1759 4666 
L 3194 4666 
L 4922 0 
L 3713 0 
L 3419 850 
z
M 1838 1716 
L 3116 1716 
L 2478 3572 
L 1838 1716 
z
" transform="scale(0.015625)"/>
      <path id="DejaVuSans-Bold-63" d="M 3366 3391 
L 3366 2478 
Q 3138 2634 2908 2709 
Q 2678 2784 2431 2784 
Q 1963 2784 1702 2511 
Q 1441 2238 1441 1747 
Q 1441 1256 1702 982 
Q 1963 709 2431 709 
Q 2694 709 2930 787 
Q 3166 866 3366 1019 
L 3366 103 
Q 3103 6 2833 -42 
Q 2563 -91 2291 -91 
Q 1344 -91 809 395 
Q 275 881 275 1747 
Q 275 2613 809 3098 
Q 1344 3584 2291 3584 
Q 2566 3584 2833 3536 
Q 3100 3488 3366 3391 
z
" transform="scale(0.015625)"/>
      <path id="DejaVuSans-Bold-50" d="M 588 4666 
L 2584 4666 
Q 3475 4666 3951 4270 
Q 4428 3875 4428 3144 
Q 4428 2409 3951 2014 
Q 3475 1619 2584 1619 
L 1791 1619 
L 1791 0 
L 588 0 
L 588 4666 
z
M 1791 3794 
L 1791 2491 
L 2456 2491 
Q 2806 2491 2997 2661 
Q 3188 2831 3188 3144 
Q 3188 3456 2997 3625 
Q 2806 3794 2456 3794 
L 1791 3794 
z
" transform="scale(0.015625)"/>
     </defs>
     <use xlink:href="#DejaVuSans-Bold-57"/>
     <use xlink:href="#DejaVuSans-Bold-69" transform="translate(110.302734 0)"/>
     <use xlink:href="#DejaVuSans-Bold-6c" transform="translate(144.580078 0)"/>
     <use xlink:href="#DejaVuSans-Bold-64" transform="translate(178.857422 0)"/>
     <use xlink:href="#DejaVuSans-Bold-20" transform="translate(250.439453 0)"/>
     <use xlink:href="#DejaVuSans-Bold-62" transform="translate(285.253906 0)"/>
     <use xlink:href="#DejaVuSans-Bold-6f" transform="translate(356.835938 0)"/>
     <use xlink:href="#DejaVuSans-Bold-61" transform="translate(425.537109 0)"/>
     <use xlink:href="#DejaVuSans-Bold-72" transform="translate(493.017578 0)"/>
     <use xlink:href="#DejaVuSans-Bold-20" transform="translate(542.333984 0)"/>
     <use xlink:href="#DejaVuSans-Bold-2d" transform="translate(577.148438 0)"/>
     <use xlink:href="#DejaVuSans-Bold-20" transform="translate(618.652344 0)"/>
     <use xlink:href="#DejaVuSans-Bold-48" transform="translate(653.466797 0)"/>
     <use xlink:href="#DejaVuSans-Bold-6f" transform="translate(737.158203 0)"/>
     <use xlink:href="#DejaVuSans-Bold-75" transform="translate(805.859375 0)"/>
     <use xlink:href="#DejaVuSans-Bold-72" transform="translate(877.050781 0)"/>
     <use xlink:href="#DejaVuSans-Bold-6c" transform="translate(926.367188 0)"/>
     <use xlink:href="#DejaVuSans-Bold-79" transform="translate(960.644531 0)"/>
     <use xlink:href="#DejaVuSans-Bold-20" transform="translate(1025.830078 0)"/>
     <use xlink:href="#DejaVuSans-Bold-41" transform="translate(1060.644531 0)"/>
     <use xlink:href="#DejaVuSans-Bold-63" transform="translate(1138.037109 0)"/>
     <use xlink:href="#DejaVuSans-Bold-74" transform="translate(1197.314453 0)"/>
     <use xlink:href="#DejaVuSans-Bold-69" transform="translate(1245.117188 0)"/>
     <use xlink:href="#DejaVuSans-Bold-76" transform="translate(1279.394531 0)"/>
     <use xlink:href="#DejaVuSans-Bold-69" transform="translate(1344.580078 0)"/>
     <use xlink:href="#DejaVuSans-Bold-74" transform="translate(1378.857422 0)"/>
     <use xlink:href="#DejaVuSans-Bold-79" transform="translate(1426.660156 0)"/>
     <use xlink:href="#DejaVuSans-Bold-20" transform="translate(1491.845703 0)"/>
     <use xlink:href="#DejaVuSans-Bold-50" transform="translate(1526.660156 0)"/>
     <use xlink:href="#DejaVuSans-Bold-61" transform="translate(1597.326172 0)"/>
     <use xlink:href="#DejaVuSans-Bold-74" transform="translate(1664.806641 0)"/>
     <use xlink:href="#DejaVuSans-Bold-74" transform="translate(1712.609375 0)"/>
     <use xlink:href="#DejaVuSans-Bold-65" transform="translate(1760.412109 0)"/>
     <use xlink:href="#DejaVuSans-Bold-72" transform="translate(1828.234375 0)"/>
     <use xlink:href="#DejaVuSans-Bold-6e" transform="translate(1877.550781 0)"/>
    </g>
   </g>
   <g id="legend_2">
    <g id="patch_92">
     <path d="M 787.424219 44.99625 
L 957.782031 44.99625 
Q 959.782031 44.99625 959.782031 42.99625 
L 959.782031 29.318125 
Q 959.782031 27.318125 957.782031 27.318125 
L 787.424219 27.318125 
Q 785.424219 27.318125 785.424219 29.318125 
L 785.424219 42.99625 
Q 785.424219 44.99625 787.424219 44.99625 
z
" style="fill: #ffffff; opacity: 0.8; stroke: #cccccc; stroke-linejoin: miter"/>
    </g>
    <g id="patch_93">
     <path d="M 789.424219 38.916562 
L 809.424219 38.916562 
L 809.424219 31.916562 
L 789.424219 31.916562 
z
" style="fill: #ffa500; opacity: 0.2; stroke: #ffa500; stroke-linejoin: miter"/>
    </g>
    <g id="text_48">
     <!-- Sunset range (16.5h-20.4h) -->
     <g style="fill: #262626" transform="translate(817.424219 38.916562) scale(0.1 -0.1)">
      <defs>
       <path id="DejaVuSans-28" d="M 1984 4856 
Q 1566 4138 1362 3434 
Q 1159 2731 1159 2009 
Q 1159 1288 1364 580 
Q 1569 -128 1984 -844 
L 1484 -844 
Q 1016 -109 783 600 
Q 550 1309 550 2009 
Q 550 2706 781 3412 
Q 1013 4119 1484 4856 
L 1984 4856 
z
" transform="scale(0.015625)"/>
       <path id="DejaVuSans-2d" d="M 313 2009 
L 1997 2009 
L 1997 1497 
L 313 1497 
L 313 2009 
z
" transform="scale(0.015625)"/>
       <path id="DejaVuSans-29" d="M 513 4856 
L 1013 4856 
Q 1481 4119 1714 3412 
Q 1947 2706 1947 2009 
Q 1947 1309 1714 600 
Q 1481 -109 1013 -844 
L 513 -844 
Q 928 -128 1133 580 
Q 1338 1288 1338 2009 
Q 1338 2731 1133 3434 
Q 928 4138 513 4856 
z
" transform="scale(0.015625)"/>
      </defs>
      <use xlink:href="#DejaVuSans-53"/>
      <use xlink:href="#DejaVuSans-75" transform="translate(63.476562 0)"/>
      <use xlink:href="#DejaVuSans-6e" transform="translate(126.855469 0)"/>
      <use xlink:href="#DejaVuSans-73" transform="translate(190.234375 0)"/>
      <use xlink:href="#DejaVuSans-65" transform="translate(242.333984 0)"/>
      <use xlink:href="#DejaVuSans-74" transform="translate(303.857422 0)"/>
      <use xlink:href="#DejaVuSans-20" transform="translate(343.066406 0)"/>
      <use xlink:href="#DejaVuSans-72" transform="translate(374.853516 0)"/>
      <use xlink:href="#DejaVuSans-61" transform="translate(415.966797 0)"/>
      <use xlink:href="#DejaVuSans-6e" transform="translate(477.246094 0)"/>
      <use xlink:href="#DejaVuSans-67" transform="translate(540.625 0)"/>
      <use xlink:href="#DejaVuSans-65" transform="translate(604.101562 0)"/>
      <use xlink:href="#DejaVuSans-20" transform="translate(665.625 0)"/>
      <use xlink:href="#DejaVuSans-28" transform="translate(697.412109 0)"/>
      <use xlink:href="#DejaVuSans-31" transform="translate(736.425781 0)"/>
      <use xlink:href="#DejaVuSans-36" transform="translate(800.048828 0)"/>
      <use xlink:href="#DejaVuSans-2e" transform="translate(863.671875 0)"/>
      <use xlink:href="#DejaVuSans-35" transform="translate(895.458984 0)"/>
      <use xlink:href="#DejaVuSans-68" transform="translate(959.082031 0)"/>
      <use xlink:href="#DejaVuSans-2d" transform="translate(1022.460938 0)"/>
      <use xlink:href="#DejaVuSans-32" transform="translate(1058.544922 0)"/>
      <use xlink:href="#DejaVuSans-30" transform="translate(1122.167969 0)"/>
      <use xlink:href="#DejaVuSans-2e" transform="translate(1185.791016 0)"/>
      <use xlink:href="#DejaVuSans-34" transform="translate(1217.578125 0)"/>
      <use xlink:href="#DejaVuSans-68" transform="translate(1281.201172 0)"/>
      <use xlink:href="#DejaVuSans-29" transform="translate(1344.580078 0)"/>
     </g>
    </g>
   </g>
  </g>
 </g>
 <defs>
  <clipPath id="p974565c0ba">
   <rect x="34.240625" y="22.318125" width="529.135" height="364.6"/>
  </clipPath>
  <clipPath id="p49d3b4ecfe">
   <rect x="608.035625" y="22.318125" width="529.135" height="364.6"/>
  </clipPath>
 </defs>
</svg>
